/* XPM */
static char *fef6d7b488ee426be1c8efd33663991fvfiFC5ktCwWGIvLY[] = {
/* columns rows colors chars-per-pixel */
"50 50 175 2 ",
"   c None",
".  c #0A0907",
"X  c #0D0D0D",
"o  c #130F10",
"O  c #0C1011",
"+  c #131213",
"@  c #1B1213",
"#  c #151619",
"$  c #17181C",
"%  c #181A1E",
"&  c #231517",
"*  c #29171A",
"=  c #2C191B",
"-  c #211618",
";  c #341A1D",
":  c #28231C",
">  c #1A1D22",
",  c #3E1E22",
"<  c #1E2027",
"1  c #1F232B",
"2  c #21232C",
"3  c #252935",
"4  c #272C38",
"5  c #262A35",
"6  c #2C313F",
"7  c #421E21",
"8  c #432124",
"9  c #4B2225",
"0  c #4E2228",
"q  c #53252B",
"w  c #5C262D",
"e  c #57262B",
"r  c #45392A",
"t  c #60272F",
"y  c #672A31",
"u  c #6B2C34",
"i  c #763438",
"p  c #7A2E39",
"a  c #4F412F",
"s  c #50412F",
"d  c #4E4334",
"f  c #544837",
"g  c #7D4B2E",
"h  c #754B39",
"j  c #67553E",
"k  c #2E3444",
"l  c #31374A",
"z  c #333A4E",
"x  c #3C3441",
"c  c #363E53",
"v  c #383F57",
"b  c #5F3847",
"n  c #783340",
"m  c #374155",
"M  c #3B435D",
"N  c #3A455B",
"B  c #3E4663",
"V  c #3E4864",
"C  c #4B455B",
"Z  c #6B505F",
"A  c #494961",
"S  c #434D6C",
"D  c #484E68",
"F  c #404D66",
"G  c #44516D",
"H  c #5B556C",
"J  c #5F586F",
"K  c #444F70",
"L  c #465373",
"P  c #485673",
"I  c #4B5B7C",
"U  c #485777",
"Y  c #5A5B77",
"T  c #695262",
"R  c #83353B",
"E  c #8B323E",
"W  c #8F383E",
"Q  c #9A353F",
"!  c #8E5132",
"~  c #8C5B2B",
"^  c #A56630",
"/  c #AB6C30",
"(  c #B87631",
")  c #8F3C42",
"_  c #8C3441",
"`  c #993643",
"'  c #943B42",
"]  c #9B3C44",
"[  c #933542",
"{  c #A33745",
"}  c #A23946",
"|  c #AA3A49",
" . c #A83746",
".. c #B53C4C",
"X. c #B93C4D",
"o. c #BF3F50",
"O. c #8F4A41",
"+. c #9A4447",
"@. c #A9444C",
"#. c #A34048",
"$. c #B1424B",
"%. c #BF454F",
"&. c #A54E55",
"*. c #BF4751",
"=. c #B84A53",
"-. c #A75657",
";. c #BC525A",
":. c #B35457",
">. c #A27C54",
",. c #BE6065",
"<. c #B46C70",
"1. c #C34351",
"2. c #CC4554",
"3. c #CA4954",
"4. c #C54B55",
"5. c #D24756",
"6. c #D44A56",
"7. c #D64C59",
"8. c #DC4B59",
"9. c #CB5059",
"0. c #E34F5B",
"q. c #E6505C",
"w. c #EB525E",
"e. c #F1535F",
"r. c #D95863",
"t. c #C65E67",
"y. c #ED5661",
"u. c #E65963",
"i. c #E95B66",
"p. c #E25661",
"a. c #F25561",
"s. c #F25A65",
"d. c #F35E69",
"f. c #DB636C",
"g. c #C96E73",
"h. c #DF6E76",
"j. c #C57479",
"k. c #DF7279",
"l. c #F5626C",
"z. c #F36A74",
"x. c #F56F79",
"c. c #F66B75",
"v. c #F4737D",
"b. c #CB8132",
"n. c #EA963A",
"m. c #A88055",
"M. c #C48E52",
"N. c #C4925D",
"B. c #CD9454",
"V. c #F19D44",
"C. c #F3A149",
"Z. c #4E5E82",
"A. c #4F6084",
"S. c #516287",
"D. c #53658B",
"F. c #54688F",
"G. c #576B93",
"H. c #586C95",
"J. c #596E98",
"K. c #E97F86",
"L. c #F57C83",
"P. c #FA7E86",
"I. c #DC8489",
"U. c #ED848A",
"Y. c #F98088",
"T. c #EC8A90",
"R. c #F98E95",
"E. c #E69A9F",
"W. c #FB989E",
"Q. c #F99BA1",
"!. c #FAA6AB",
"~. c #FEBFC2",
"^. c #FECACD",
"/. c #FCC4C7",
"(. c #FDD3D5",
/* pixels */
"                                                                                                    ",
"                                                                                                    ",
"                                                                                                    ",
"                                                                                                    ",
"                                                                                                    ",
"                                                                                                    ",
"                                                                                                    ",
"                                                                                                    ",
"                                                                                                    ",
"                                                                                                    ",
"                                                                                                    ",
"                                                                                                    ",
"                                                                                                    ",
"                                                                                                    ",
"                                                                                                    ",
"                                                                                                    ",
"                                + = 7 9 9 * : r a s r : * 7 7 ; @                                   ",
"                            + 9 R ;.h.U.;.h j f d d f j h *.f.9.&.y *                               ",
"                        @ = q p R ' :.t.O.B.N.>.>.>.m.N.M.+.P.l.a.2.Q 9 X                           ",
"                  @ 0 ) =.f.u.q.p.I.g.} g n.V.C.C.C.V.V.n.! %.$.] ' R i 9 ; @                       ",
"                8 @.T.~.W.s.a.a.a.s.u.6.i ~ ^ ^ ^ / ( b.( g +.,.7.0.q.i.K.r.$.R ,                   ",
"              8 3.a.x.v.s.a.a.w.%.' ' #.<.j.9.3.3.*.:.-.i R 4.y.d.v.x.s.l.a.l.R.k.R &               ",
"            X ' a.a.e.e.a.a.1.) @.7.w.a.x.P.a.a.a.a.Y.Q.z.6.#.W j./.!.s.a.v.z.d.l.a.] @             ",
"            X ' w.a.a.a.a.$.+.E.^.!.s.e.a.s.e.a.e.z.L.a.e.a.e.8.' =.a.a.a.L.L.a.e.a.q.9             ",
"              w 1.5.8.0.1.' y.z.v.z.a.a.a.s.z.d.a.s.d.a.a.z.L.x.y.' 6.a.a.e.e.a.a.q.2.0             ",
"              @ p ..X.X.E $.a.e.e.e.a.a.a.Q.(.R.e.a.e.a.a.Q.(.^.v.| ] 6.6.8.6.5.2.o.| ;             ",
"                @ e [ ..E [ 5.8.w.w.a.a.a.d.l.s.a.a.a.a.a.y.i.r.2.E E X...X.X.X.X.| w               ",
"                    @ , 9 w ..X.X.1.2.6.7.8.8.8.8.8.7.5.2.1.X.X...u ` | | } ` E y ;                 ",
"                          + t } ..X.X.X.X.X.X.X.X.X.X.X.X.X...{ w - ; ; ; * & o                     ",
"                              * q p _ ` { { {  .{ { { ` _ n b x X                                   ",
"                                O N P D A C C C C C A D P I D.I %                                   ",
"                                1 D.H.D.G.H.H.H.H.H.H.H.H.H.G.F.3                                   ",
"                                k G.D.T J G.G.G.G.H H G.G.G.G.H.k                                   ",
"                                z H.F.H Y H.G.G.F.Z T G.G.G.G.G.m                                   ",
"                              X m H.G.G.D.A.G.D.D.S.S.G.G.G.G.U z                                   ",
"                            # 4 m G.G.G.G.U G G S.H.G.G.G.G.D.D.c #                                 ",
"                      # 3 l M M 6 S.H.G.G.H.G.G.G.G.G.G.G.G.S Z.G.L k %                             ",
"                      3 S S M 2 % S F.G.G.G.G.G.G.G.G.G.G.G.S c D.H.H.G #                           ",
"                      # 4 3 %     6 U D.G.G.G.G.G.G.G.G.G.I S c k I G.U $                           ",
"                                  + k S I S.D.F.G.D.D.Z.U S V 3 X > 4 <                             ",
"                                    + 3 v F L L L L K S V c 2                                       ",
"                                        # 6 k k l l k l k +                                         ",
"                                      X < B 3 .     . m U $                                         ",
"                              + 6 z l c V V 2         B H.F %                                       ",
"                              # z B M z 4 >         + G J.J.m                                       ",
"                                + # #                 4 G L k                                       ",
"                                                        X +                                         ",
"                                                                                                    ",
"                                                                                                    ",
"                                                                                                    "
};
