/* XPM */
static const char *cGFweXJ1c19zcHJpdGVfdjRfYnlfaW14cjI0X29sZF9ieV9pbXhyMjRfZGYxNDBrYy1mdWxsdmlldy1mb2NvY2xpcHBpbmctc3RhbmRhcmQtMg__[] = {
/* columns rows colors chars-per-pixel */
"50 50 227 2 ",
"   c black",
".  c #010101",
"X  c #020202",
"o  c gray2",
"O  c #060606",
"+  c #070707",
"@  c #090909",
"#  c #0C0C0C",
"$  c gray5",
"%  c #0E0E0E",
"&  c gray6",
"*  c #131313",
"=  c gray8",
"-  c gray9",
";  c #181818",
":  c gray10",
">  c gray11",
",  c #1E1E1E",
"<  c gray13",
"1  c #222222",
"2  c #232323",
"3  c #252525",
"4  c gray15",
"5  c #272727",
"6  c gray16",
"7  c #2A2A2A",
"8  c #2C2C2C",
"9  c #2D2D2D",
"0  c #2F2F2F",
"q  c gray19",
"w  c #313131",
"e  c gray20",
"r  c #343434",
"t  c #353535",
"y  c #373737",
"u  c gray22",
"i  c #393939",
"p  c #3C3C3C",
"a  c gray24",
"s  c #3E3E3E",
"d  c #3F3F3F",
"f  c #414141",
"g  c gray26",
"h  c #434343",
"j  c #444444",
"k  c gray27",
"l  c #464646",
"z  c gray28",
"x  c #484848",
"c  c #494949",
"v  c gray29",
"b  c #4C4C4C",
"n  c gray30",
"m  c #4E4E4E",
"M  c gray31",
"N  c #505050",
"B  c #515151",
"V  c gray32",
"C  c #535353",
"Z  c gray33",
"A  c #555555",
"S  c #565656",
"D  c gray34",
"F  c #585858",
"G  c gray35",
"H  c #5A5A5A",
"J  c #5B5B5B",
"K  c gray36",
"L  c #5D5D5D",
"P  c gray37",
"I  c #5F5F5F",
"U  c #606060",
"Y  c gray38",
"T  c #626262",
"R  c gray39",
"E  c #646464",
"W  c #656565",
"Q  c gray40",
"!  c #676767",
"~  c #686868",
"^  c DimGray",
"/  c #6A6A6A",
"(  c gray42",
")  c #6C6C6C",
"_  c #6D6D6D",
"`  c gray43",
"'  c #6F6F6F",
"]  c gray44",
"[  c #717171",
"{  c #727272",
"}  c gray45",
"|  c #747474",
" . c gray46",
".. c #767676",
"X. c #777777",
"o. c gray47",
"O. c #797979",
"+. c gray48",
"@. c #7B7B7B",
"#. c #7C7C7C",
"$. c gray49",
"%. c #7E7E7E",
"&. c gray50",
"*. c #808080",
"=. c #818181",
"-. c gray51",
";. c #838383",
":. c #848484",
">. c gray52",
",. c #868686",
"<. c gray53",
"1. c #888888",
"2. c #898989",
"3. c gray54",
"4. c #8B8B8B",
"5. c gray55",
"6. c #8D8D8D",
"7. c #8E8E8E",
"8. c gray56",
"9. c #909090",
"0. c gray57",
"q. c #929292",
"w. c #939393",
"e. c gray58",
"r. c #959595",
"t. c gray59",
"y. c #979797",
"u. c #989898",
"i. c gray60",
"p. c #9A9A9A",
"a. c #9B9B9B",
"s. c gray61",
"d. c #9D9D9D",
"f. c gray62",
"g. c #9F9F9F",
"h. c #A0A0A0",
"j. c gray63",
"k. c #A2A2A2",
"l. c gray64",
"z. c #A4A4A4",
"x. c #A5A5A5",
"c. c gray65",
"v. c #A7A7A7",
"b. c gray66",
"n. c #A9A9A9",
"m. c #AAAAAA",
"M. c gray67",
"N. c #ACACAC",
"B. c gray68",
"V. c #AEAEAE",
"C. c #AFAFAF",
"Z. c gray69",
"A. c #B1B1B1",
"S. c #B2B2B2",
"D. c gray70",
"F. c #B4B4B4",
"G. c gray71",
"H. c #B6B6B6",
"J. c #B7B7B7",
"K. c gray72",
"L. c #B9B9B9",
"P. c #BBBBBB",
"I. c #BCBCBC",
"U. c gray74",
"Y. c gray",
"T. c gray75",
"R. c #C0C0C0",
"E. c #C1C1C1",
"W. c gray76",
"Q. c #C3C3C3",
"!. c gray77",
"~. c #C5C5C5",
"^. c #C6C6C6",
"/. c gray78",
"(. c #C8C8C8",
"). c gray79",
"_. c #CACACA",
"`. c #CBCBCB",
"'. c gray80",
"]. c #CDCDCD",
"[. c #CECECE",
"{. c gray81",
"}. c gray82",
"|. c #D2D2D2",
" X c gray83",
".X c #D5D5D5",
"XX c #D7D7D7",
"oX c #D8D8D8",
"OX c gray85",
"+X c #DADADA",
"@X c gray86",
"#X c gainsboro",
"$X c #DDDDDD",
"%X c gray87",
"&X c #DFDFDF",
"*X c gray88",
"=X c #E1E1E1",
"-X c #E2E2E2",
";X c #E4E4E4",
":X c gray90",
">X c #E6E6E6",
",X c #E7E7E7",
"<X c gray91",
"1X c #E9E9E9",
"2X c #EAEAEA",
"3X c gray92",
"4X c #ECECEC",
"5X c gray93",
"6X c #EEEEEE",
"7X c #EFEFEF",
"8X c gray94",
"9X c #F1F1F1",
"0X c gray95",
"qX c #F3F3F3",
"wX c #F4F4F4",
"eX c gray96",
"rX c #F6F6F6",
"tX c gray97",
"yX c #F8F8F8",
"uX c #F9F9F9",
"iX c gray98",
"pX c #FBFBFB",
"aX c gray99",
"sX c #FDFDFD",
"dX c #FEFEFE",
"fX c white",
"gX c None",
/* pixels */
"gXgXgXgXgXgXgXgXgXgXgXgXgXgXgXgXgXgXgXgXgXgX} X.X.X.' gXgXgXgXgXgXgXgXgXgXgXgXgXgXgXgXgXgXgXgXgXgXgX",
"gXgXgXgXgXgXgXgXgXgXgXgXgXgXgXgXgXgXgXgXl ^.qXyXyXyX6XD.0 gXgXgXgXgXgXgXgXgXgXgXgXgXgXgXgXgXgXgXgXgX",
"gXgXgXgXgXgXgXgXgXgXgXgXgXgXgXgXgXgXgXgX(.fXfXfXfXfXfXfXD.gXgXgXgXgXgXgXgXgXgXgXgXgXgXgXgXgXgXgXgXgX",
"gXgXgXgXgXgXgXgXgXgXgXgXgXgXgXgXgXgXgX4.3XfXfXfXfXfXfXfXqX} gXgXgXgXgXgXgXgXgXgXgXgXgXgXgXgXgXgXgXgX",
"gXgXgXgXgXgXgXgXgXgXgXgXgXgXgXgXgXgXgX' r.D.3XfXfXfXfXfXyX@.gXgXgXgXgXgXgXgXgXgXgXgXgXgXgXgXgXgXgXgX",
"gXgXgXgXgXgXgXgXgXgXgXgXgXgXgXgXgXgXgXL @XN L 6XeXeXeXT.w.' gXgXgXgXgXgXgXgXgXgXgXgXgXgXgXgXgXgXgXgX",
"gXgXgXgXgXgXgXgXgXgXgXgXgXgXgXgXgXgXgXS *XM b.yXb.H f.@.a gXgXgXgXgXgXgXgXgXgXgXgXgXgXgXgXgXgXgXgXgX",
"gXgXgXgXgXgXgXgXgXgXgXgXgXgXgXgXgXgXgX} T.H x.yX(.N j.J.} gXgXgXgXgXgXgXgXgXgXgXgXgXgXgXgXgXgXgXgXgX",
"gXgXgXgXgXgXgXgXgXgXgXgXgXgXgXgXgXgXN } j.}.H (.yX6Xi.f.b.h gXgXgXgXgXgXgXgXgXgXgXgXgXgXgXgXgXgXgXgX",
"gXgXgXgXgXgXgXgXgXgXgXgXgXgXgXgXgX-.w.: 7 (.^..X3X*X#.} > 2 U B.M gXgXgXgXgXgXgXgXgXgXgXgXgXgXgXgXgX",
"gXgXgXgXgXgXgXgXgXgXgXgXgXgXgXgX7 #.M   o H 4.:.:.@.N l   # E ;XE X.f.5.gXgXgXgXgXgXgXgXgXgXgXgXgXgX",
"gXgXgXgXgXgXgXgXgXgXgXgXgXgXgX5.w.#.@.# o t #.-.X.l S 3 v i.x.E f.qXfXyX^.gXgXgXgXgXgXgXgXgXgXgXgXgX",
"gXgXgXgXgXgXgXgXgXgXgXgXgX^ @XJ.v B.D.S H H v a a S ' B.x.t 3 L eXfXfXfXfXx.gXgXgXgXgXgXgXgXgXgXgXgX",
"gXgXgXgXgXgXgXgXgXgXgXgXgXP.fXj.= i.eX'.' 4.i.^ } i..XE.3 N a r.fXfXfXfXfX^.q gXgXgXgXgXgXgXgXgXgXgX",
"gXgXgXgXgXgXgXgXgXgXgXgXgX.XfXj.M M ;X$X' 2 # : S '.yXU ' L o X.fXfXfXfXfXB.N X.gXgXgXgXgXgXgXgXgXgX",
"gXgXgXgXgXgXgXgXgXgXgXgXq J.fXT.E S M P.'.j.^ j.3XfX^.#.U } w.q ^.fXfXfX3Xl : 4.5.gXgXgXgXgXgXgXgXgX",
"gXgXgXgXgXgXgXgXgXgXgXgX5.:.*XqX^ P.h > ' ^.yXfXfXqXE.U 2 ^ ^.i.X.B.}.P.X.@   : -.P.#.gXgXgXgXgXgXgX",
"gXgXgXgXgXgXgXgXgXgXgXgXL r.4.D.E J.qX:.0 a @.*X'.r.U } x.L ;XJ.H w.X.^ 4.*       E $X-.gXgXgXgXgXgX",
"gXgXgXgXgXgXgXgXgXgXgXgX^ x.X.a gX5.fXeX#.v N N H h ' 6XyX6XfXE o 4.x.H #           4.@XgXgXgXgXgXgX",
"gXgXgXgXgXgXgXgXgXgXgXgX^.P.gXgXgXgX@XfXyXJ.X.w.^ w.qXfXfXfX@X2   X.fXN             0 @X^ gXgXgXgXgX",
"gXgXgXgXgXgXgXgXgXgXgX:.;XX.gXgXgXgXi.fXfXfXE.#.@XfXfXfXfXfX#.    N qXN   # 2 l i # 3 J.gXgXgXgXgXgX",
"gXgXgXgXgXgXgXgXgXgXgXE.T.gXgXgXgXgXgXJ.eXfXfXfXfXfXfXfX6X5.#     > $XE a E E L U L S E gXgXgXgXgXgX",
"gXgXgXgXgXgXgXgXgXgXw.*X} gXgXgXgXgXgXgX#.E.3XyXyXyX*XJ.E 0     # i *Xx.gXgXgXgXgXgXS gXgXgXgXgXgXgX",
"gXgXgXgXgXgXgXgXgXL 3XD.q gXgXgXv gXgXgXgXU b.b.b.i.5.v M @.  * N L ^.#.gXgXgXgXgXgXgXgXgXgXgXgXgXgX",
"gXgXgXgXgXgXgXgXgXE D.L } #.@..X:.X.gXgXgXgXl w.j.4.a gXgX5.2 S gX^ P.P.gXgXgXgXgXgXgXgXgXgXgXgXgXgX",
"gXgXgXgXgXgXgXgXgXX.@.4.N @.T.$X6XyX;XB.N gX3 U X.M gXgXgXj.' L gXv U H gXgXgXgXgXgXgXgXgXgXgXgXgXgX",
"gXgXgXgXgXgXgXgXgXgX^ f.E E.J.;XfXfXfXfXD.:.L q X.l h gXgXX.r.l gXi.H v gXgXgXgXgXgXgXgXgXgXgXgXgXgX",
"gXgXgXgXgXgXgXgXgXgXgXgXgXj.4.f.f.@XyXfXX.H x.} r.E 2 @.' gXN i a :.#.-.5.gXgXgXgXgXgXgXgXgXgXgXgXgX",
"gXgXgXgXgXgXgXgXgXgXgXgXgXgXgXgX' ' ;X;XS 4.' j.D.D.4.r.:.gXgXq r.'.fX3X@.gXgXgXgXgXgXgXgXgXgXgXgXgX",
"gXgXgXgXgXgXgXgXgXgXgXgXgXgXgXgXM r.fXJ.l ^..XD.^.3XB.S #.gXgXgX:.@XfXqXX.gXgXgXgXgXgXgXgXgXgXgXgXgX",
"gXgXgXgXgXgXgXgXgXgXgXgXgXgXgXgXgXT.D.M x.(.;XfXfXfXB.v q gXgXgXT.fXfX.XgXgXgXgXgXgXgXgXgXgXgXgXgXgX",
"gXgXgXgXgXgXgXgXgXgXgXgXgXgXgXgXgXgXgXl @X#.X.;XeX@X' T.a 3 gXgXP.fXfXB.gXgXgXgXgXgXgXgXgXgXgXgXgXgX",
"gXgXgXgXgXgXgXgXgXgXgXgXgXgXgXgXgXgXgX#.^.gXgXL ' U h (.@X} gXgXE.eXyX:.gXgXgXgXgXgXgXgXgXgXgXgXgXgX",
"gXgXgXgXgXgXgXgXgXgXgXgXgXgXgXgXgXgXgXf.^.gXgXgXgXgXgXi.$XgXgX4.D.r.fXD.gXgXgXgXgXgXgXgXgXgXgXgXgXgX",
"gXgXgXgXgXgXgXgXgXgXgXgXgXgXgXgXgXgXgXE.j.gXgXgXgXgXgX5.E.gXgX-.5.E.fXP.gXgXgXgXgXgXgXgXgXgXgXgXgXgX",
"gXgXgXgXgXgXgXgXgXgXgXgXgXgXgXgXgXgXN E.i.gXgXgXgXgXgX5.w.gXgXgX-.3X*X:.gXgXgXgXgXgXgXgXgXgXgXgXgXgX",
"gXgXgXgXgXgXgXgXgXgXgXgXgXgXgXgXgXv B.U ' gXgXgXgXgXgX5.f.gXgXgX5.4.gXgXgXgXgXgXgXgXgXgXgXgXgXgXgXgX",
"gXgXgXgXgXgXgXgXgXgXgXgXgXgXgXgXgXE j.#.U gXgXgXgXgXgXB.x.gXgXgXgXgXgXgXgXgXgXgXgXgXgXgXgXgXgXgXgXgX",
"gXgXgXgXgXgXgXgXgXgXgXgXgXgXgX@.@.t q -.gXgXgXgXgXgXH i.f.U gXgXgXgXgXgXgXgXgXgXgXgXgXgXgXgXgXgXgXgX",
"gXgXgXgXgXgXgXgXgXgXgXgXgXgXa r.'.P.i.5.v gXgXgXgXgXgXM b.U H gXgXgXgXgXgXgXgXgXgXgXgXgXgXgXgXgXgXgX",
"gXgXgXgXgXgXgXgXgXgXgXgXgXgXgXb.eX.X}.fX(.l gXgXgXgXgX} i.j.B.L gXgXgXgXgXgXgXgXgXgXgXgXgXgXgXgXgXgX",
"gXgXgXgXgXgXgXgXgXgXgXgXgXgXgXl X.f.;XfXB.gXgXgXgX^ '.eX}.4.f.t gXgXgXgXgXgXgXgXgXgXgXgXgXgXgXgXgXgX",
"gXgXgXgXgXgXgXgXgXgXgXgXgXgXgXH i.-.$XfXP.gXgXgXgXL ;X6XT.4.b.gXgXgXgXgXgXgXgXgXgXgXgXgXgXgXgXgXgXgX",
"gXgXgXgXgXgXgXgXgXgXgXgXgXgXgXgXH w.yXyX-.gXgXgXgXM $X' t ^ 5.gXgXgXgXgXgXgXgXgXgXgXgXgXgXgXgXgXgXgX",
"gXgXgXgXgXgXgXgXgXgXgXgX^ :.gX= -.E.fXyX#.gXgXgXgXL ;X^.r.x.} gXgXgXgXgXgXgXgXgXgXgXgXgXgXgXgXgXgXgX",
"gXgXgXgXgXgXgXgXgXgXgXgX@XyX.Xi.w.^.fXyX@.gXgXgXgXL 6XJ.h H } w.v gXgXgXgXgXgXgXgXgXgXgXgXgXgXgXgXgX",
"gXgXgXgXgXgXgXgXgXgXgX' qXfXfXfXfXyXfXfXr.gXgXgXgX4.yXB.:.$XeXfXx.gXgXgXgXgXgXgXgXgXgXgXgXgXgXgXgXgX",
"gXgXgXgXgXgXgXgXgXgXgXf.fXfXfXfXfXfXfXfX(.gXgXgXgXj.yXD.eXfXfXfX'.gXgXgXgXgXgXgXgXgXgXgXgXgXgXgXgXgX",
"gXgXgXgXgXgXgXgXgXgXgXx.yXyXyXyXyXyXyXyX;XU gXgXgX'.yX6XyXyXyXyX;XH gXgXgXgXgXgXgXgXgXgXgXgXgXgXgXgX",
"gXgXgXgXgXgXgXgXgXgXgXN @.@.@.@.@.@.@.@.} gXgXgXgX^ @.@.@.@.@.@.} gXgXgXgXgXgXgXgXgXgXgXgXgXgXgXgXgX"
};
