/* XPM */
static const char *V3MtZm9jb2NsaXBwaW5nLXN0YW5kYXJkLTk_[] = {
/* columns rows colors chars-per-pixel */
"50 50 193 2 ",
"   c #010101",
".  c gray1",
"X  c gray2",
"o  c #060506",
"O  c #070707",
"+  c gray3",
"@  c #090809",
"#  c #090909",
"$  c #0A090A",
"%  c gray4",
"&  c #0B0A0B",
"*  c #0B0B0B",
"=  c #0C0C0C",
"-  c gray5",
";  c #0E0D0E",
":  c #0E0E0E",
">  c gray6",
",  c #101010",
"<  c #111111",
"1  c gray7",
"2  c #131313",
"3  c gray8",
"4  c #161616",
"5  c #161716",
"6  c gray9",
"7  c #181818",
"8  c #191919",
"9  c gray10",
"0  c #1B1B1B",
"q  c #1B1C1B",
"w  c #1D1D1D",
"e  c #1D1E1D",
"r  c #1E1E1E",
"t  c gray12",
"y  c #202020",
"u  c #202120",
"i  c #222222",
"p  c #232423",
"a  c #252625",
"s  c #262726",
"d  c #272727",
"f  c #272827",
"g  c #282928",
"h  c #292A29",
"j  c #2A2A2A",
"k  c #2A2B2A",
"l  c #2C2D2C",
"z  c gray18",
"x  c #2F302F",
"c  c gray19",
"v  c #303130",
"b  c #313231",
"n  c #323232",
"m  c #323332",
"M  c #333433",
"N  c #353535",
"B  c #353635",
"V  c #363736",
"C  c #373837",
"Z  c #393A39",
"A  c #393B39",
"S  c #3A3B3A",
"D  c #3B3C3B",
"F  c #3C3D3C",
"G  c #3C3E3C",
"H  c #3D3E3D",
"J  c #3E3F3E",
"K  c #3F403F",
"L  c #404240",
"P  c #414341",
"I  c #444644",
"U  c #464746",
"Y  c #494B49",
"T  c #4D4E4D",
"R  c #4E504E",
"E  c #515351",
"W  c #555655",
"Q  c #555755",
"!  c #565856",
"~  c #585A58",
"^  c #595B59",
"/  c #5A5C5A",
"(  c #5B5D5B",
")  c #5E615E",
"_  c #5F615F",
"`  c #5F625F",
"'  c #606260",
"]  c #626462",
"[  c #626562",
"{  c #636563",
"}  c #636663",
"|  c #646664",
" . c #646764",
".. c #656765",
"X. c #666866",
"o. c #666966",
"O. c #676967",
"+. c #676A67",
"@. c #686A68",
"#. c #696B69",
"$. c #696C69",
"%. c #6A6C6A",
"&. c #6A6D6A",
"*. c #6B6D6B",
"=. c #6B6E6B",
"-. c #6C6E6C",
";. c #6C6F6C",
":. c #6D6F6D",
">. c #6D706D",
",. c #6E706E",
"<. c #6E716E",
"1. c #6F726F",
"2. c #707370",
"3. c #747774",
"4. c #7B7E7B",
"5. c #7C7F7C",
"6. c #7D807D",
"7. c #808380",
"8. c #818481",
"9. c #828582",
"0. c #838683",
"q. c #8A8D8A",
"w. c #929592",
"e. c #989C98",
"r. c #9A9D9A",
"t. c #9A9E9A",
"y. c #9B9F9B",
"u. c #9CA09C",
"i. c #9EA29E",
"p. c #9FA39F",
"a. c #A0A3A0",
"s. c #A0A4A0",
"d. c #A1A5A1",
"f. c #A3A7A3",
"g. c #A5A9A5",
"h. c #A6AAA6",
"j. c #A8ACA8",
"k. c #A9ADA9",
"l. c #ADB2AD",
"z. c #B1B5B1",
"x. c #B4B9B4",
"c. c #B7BBB7",
"v. c #B7BCB7",
"b. c #BABFBA",
"n. c #BCC1BC",
"m. c #BDC2BD",
"M. c #C1C6C1",
"N. c #C2C6C2",
"B. c #C3C7C3",
"V. c #C3C8C3",
"C. c #C4C9C4",
"Z. c #C6CBC6",
"A. c #C7CCC7",
"S. c #C8CCC8",
"D. c #C8CDC8",
"F. c #C9CEC9",
"G. c #CACFCA",
"H. c #CBD0CB",
"J. c #CCD1CC",
"K. c #CDD2CD",
"L. c #CED3CE",
"P. c #D0D5D0",
"I. c #D0D6D0",
"U. c #D1D6D1",
"Y. c #D4D9D4",
"T. c #D6DBD6",
"R. c #D6DCD6",
"E. c #D7DCD7",
"W. c #D8DDD8",
"Q. c #DBE1DB",
"!. c #E1E7E1",
"~. c #E2E7E2",
"^. c #E2E8E2",
"/. c #E3E8E3",
"(. c #E3E9E3",
"). c #E4EAE4",
"_. c #E5EAE5",
"`. c #E5EBE5",
"'. c #E7ECE7",
"]. c #E7EDE7",
"[. c #E8EEE8",
"{. c #E9EEE9",
"}. c #E9EFE9",
"|. c #EAF0EA",
" X c #EBF1EB",
".X c #ECF2EC",
"XX c #EDF3ED",
"oX c #EFF5EF",
"OX c #F0F6F0",
"+X c #F8FEF8",
"@X c #FDFFFD",
"#X c white",
"$X c None",
/* pixels */
"$X$X$X$X$X$X$X$X$X$X$X$X$X$X$X$X$X$X$X$X$X$X$X$X$X$X$X$X$X$X$X$X$X$X$X$X$X$X$X$X$X$X$X$X$X$X$X$X$X$X",
"$X$X$X$X$X$X$X$X$X$X$X$X$X$X$X$X$X$X$X$X$X$X$X$X$X$X$X$X$X$X$X$X$X$X$X$X$X$X$X$X$X$X$X$X$X$X$X$X$X$X",
"$X$X$X$X$X$X$X$X$X$X$X$X$X$X$X$X$X$X$X$X$X$X$X$X$X$X$X$X$X$X$X$X$X$X$X$X$X$X$X$X$X$X$X$X$X$X$X$X$X$X",
"$X$X$X$X$X$X$X$X$X$X$X$X$X$X$X$X$X$X$X$X$X$X$X$X$X$X$X$X$X$X$X$X$X$X$X$X$X$X$X$X$X$X$X$X$X$X$X$X$X$X",
"$X$X$X$X$X$X$X$X$X$X$X$X$X$X$X$X$X$X$X$X$X$X$X$X$X$X$X$X$X$X$X$X$X$X$X$X$X$X$X$X$X$X$X$X$X$X$X$X$X$X",
"$X$X$X$X$X$X$X$X$X$X$X$X$X$X$X$X$X$X$X$X$X$X$X$X$X$X$X$X$X$X$X$X$X$X$X$X$X$X$X$X$X$X$X$X$X$X$X$X$X$X",
"$X$X$X$X$X$X$X$X$X$X$X$X$X$X$X$X$X$X$X$X$X$X$X$X$X$X$X$X$X$X$X$X$X$X$X$X$X$X$X$X$X$X$X$X$X$X$X$X$X$X",
"$X$X$X$X$X$X$X$X$X$X$X$X$X$X$X$X$X$X$X$X$X$X$X$X$X$X$X$X$X$X$X$X$X$X$X$X$X$X$X$X$X$X$X$X$X$X$X$X$X$X",
"$X$X$X$X$X$X$X$X$X$X$X$X$X$X$X$X$X$X$X$X$X$X$X$X$X$X$X$X$X$X$X$X$X$X$X$X$X$X$X$X$X$X$X$X$X$X$X$X$X$X",
"$X$X$X$X$X$X$X$X$X$X$X$X$X$X$X$X$X$X$X$X$X$X$X$X$X$X$X$X$X$X$X$X$X$X$X$X$X$X$X$X$X$X$X$X$X$X$X$X$X$X",
"$X$X$X$X$X$X$X$X$X$X$X$X$X$X$X$X$X$X$X$X$X$X$X$X$X$X$X$X$X$X$X$X$X$X$X$X$X$X$X$X$X$X$X$X$X$X$X$X$X$X",
"$X$X$X$X$X$X$X$X$X$X$X$X$X$X$X$X$X$X$X$X$X$X$X$X$X$X$X$X$X$X$X$X$X$X$X$X$X$X$X$X$X$X$X$X$X$X$X$X$X$X",
"$X$X$X$X$X$X$X$X$X$X$X$Xk t.oX'.!.^.|.XX_.!.^.^.^.^.^.^.}.c.C ( R.}._._.w.k $X$X$X$X$X$X$X$X$X$X$X$X",
"$X$X$X$X$X$X$X$X$X$X$X$Xt.Y.Q.9.( ;.m.Y.9.] &.;.&.X.....;.^ i b X.>.&.&.5.w.$X$X$X$X$X$X$X$X$X$X$X$X",
"$X$X$X$X$X$X$X$X$X$X$X$XoXQ.j.! b U z.P.] p , * 6 M K Z i > , > > * * * &._.$X$X$X$X$X$X$X$X$X$X$X$X",
"$X$X$X$X$X$X$X$X$X$X$X$X'.9.W j.D.A.!.XXP.4.8 . b d.P.b.! > > > > * * * ;._.$X$X$X$X$X$X$X$X$X$X$X$X",
"$X$X$X$X$X$X$X$X$X$X$X$X'...p 7.h.p.t.t.t.] , . k 9.j.t.Y > > M ] >.W r &.}.$X$X$X$X$X$X$X$X$X$X$X$X",
"$X$X$X$X$X$X$X$X$X$X$X$XR.X., 8 r r r i f d r r r r r r 6 > > ] R.OXv.C ) R.$X$X$X$X$X$X$X$X$X$X$X$X",
"$X$X$X$X$X$X$X$X$X$X$X$X( b > * * * o d 6.d.a.h.9.k o * * * > &.}.#XD.G k ( $X$X$X$X$X$X$X$X$X$X$X$X",
"$X$X$X$X$X$X$X$X$X$X$X$XC i , > > > * B d.K.A.K.d.B * , l b 6 X.^.#XV.G 8 C $X$X$X$X$X$X$X$X$X$X$X$X",
"$X$X$X$X$X$X$X$X$X$X$X$Xc.^ > > > > > 8 B L K L B 8 * 8 9.d.M ] ^.#XM.Z E c.$X$X$X$X$X$X$X$X$X$X$X$X",
"$X$X$X$X$X$X$X$X$X$X$X$X}.;.y ( 3.&.B > * * * * * > x &.D.D.G ' ^.#XM.Z X.}.$X$X$X$X$X$X$X$X$X$X$X$X",
"$X$X$X$X$X$X$X$X$X$X$X$X^...B l.^.H.) > > , , , > > ] W.+XM.Z ' ^.#XM.Z ..^.$X$X$X$X$X$X$X$X$X$X$X$X",
"$X$X$X$X$X$X$X$X$X$X$X$X^.#.i ( 3.&.B , , , , > * > &.}.#XM.Z ' ^.#XM.Z ..^.$X$X$X$X$X$X$X$X$X$X$X$X",
"$X$X$X$X$X$X$X$X$X$X$X$X^.;.> > > > , , , > , l b 6 X.^.#XM.Z ' ^.#XM.Z ..^.$X$X$X$X$X$X$X$X$X$X$X$X",
"$X$X$X$X$X$X$X$X$X$X$X$X^.;.> > > > , , , * 8 9.d.M ] ^.#XM.Z ' ^.#XM.Z ..^.$X$X$X$X$X$X$X$X$X$X$X$X",
"$X$X$X$X$X$X$X$X$X$X$X$X^.;.> > , , > * > x &.D.D.G ' ^.#XM.Z ' ^.#XM.Z X.}.$X$X$X$X$X$X$X$X$X$X$X$X",
"$X$X$X$X$X$X$X$X$X$X$X$X^.;.> > , , 8 8 , ] W.+XM.Z ' ^.#XM.Z ' ^.#XM.Z ) R.$X$X$X$X$X$X$X$X$X$X$X$X",
"$X$X$X$X$X$X$X$X$X$X$X$X^.;.> > * , ..6.k X.}.#XM.Z ' ^.#XM.Z ] |.#XM.D k ( $X$X$X$X$X$X$X$X$X$X$X$X",
"$X$X$X$X$X$X$X$X$X$X$X$X_.;.> > r U c.Z.G ' ^.#XM.Z ' ^.#XM.Z T b.|.Z.G 8 C $X$X$X$X$X$X$X$X$X$X$X$X",
"$X$X$X$X$X$X$X$X$X$X$X$X_.>.> > ! m.XXZ.Z ' ^.#XM.Z ' ^.#XV.G 6 L z.Z.G E c.$X$X$X$X$X$X$X$X$X$X$X$X",
"$X$X$X$X$X$X$X$X$X$X$X$Xq.U > > &.|.#XM.Z ' ^.#XM.Z ' ^.#XM.D d &.D.D.G X.}.$X$X$X$X$X$X$X$X$X$X$X$X",
"$X$X$X$X$X$X$X$X$X$X$X$Xk 8 > > #.^.#XM.Z ' ^.#XM.Z ' ^.#XM.Z ! K.|.v.C ..^.$X$X$X$X$X$X$X$X$X$X$X$X",
"$X$X$X$X$X$X$X$X$X$X$X$Xq.U > > &.|.#XD.D ] |.#XD.D ] |.#XD.G l #.2.W r #.^.$X$X$X$X$X$X$X$X$X$X$X$X",
"$X$X$X$X$X$X$X$X$X$X$X$X'.;.* * W v.K.p.b R v.K.p.x R v.K.d.b o > * * * ;._.$X$X$X$X$X$X$X$X$X$X$X$X",
"$X$X$X$X$X$X$X$X$X$X$X$X'.;.* * r C G M 6 r C G b 6 r C G M 6 * > * * * &._.$X$X$X$X$X$X$X$X$X$X$X$X",
"$X$X$X$X$X$X$X$X$X$X$X$Xw.5.&.;.&.) k q ^ ;.....X.&.;.) k q ^ >.;.;.&.&.5.w.$X$X$X$X$X$X$X$X$X$X$X$X",
"$X$X$X$X$X$X$X$X$X$X$X$Xk w._._.}.R.( C c.}.^.^.^.^.}.R.( C c.}.^.^._._.w.k $X$X$X$X$X$X$X$X$X$X$X$X",
"$X$X$X$X$X$X$X$X$X$X$X$X$X$X$X$X$X$X$X$X$X$X$X$X$X$X$X$X$X$X$X$X$X$X$X$X$X$X$X$X$X$X$X$X$X$X$X$X$X$X",
"$X$X$X$X$X$X$X$X$X$X$X$X$X$X$X$X$X$X$X$X$X$X$X$X$X$X$X$X$X$X$X$X$X$X$X$X$X$X$X$X$X$X$X$X$X$X$X$X$X$X",
"$X$X$X$X$X$X$X$X$X$X$X$X$X$X$X$X$X$X$X$X$X$X$X$X$X$X$X$X$X$X$X$X$X$X$X$X$X$X$X$X$X$X$X$X$X$X$X$X$X$X",
"$X$X$X$X$X$X$X$X$X$X$X$X$X$X$X$X$X$X$X$X$X$X$X$X$X$X$X$X$X$X$X$X$X$X$X$X$X$X$X$X$X$X$X$X$X$X$X$X$X$X",
"$X$X$X$X$X$X$X$X$X$X$X$X$X$X$X$X$X$X$X$X$X$X$X$X$X$X$X$X$X$X$X$X$X$X$X$X$X$X$X$X$X$X$X$X$X$X$X$X$X$X",
"$X$X$X$X$X$X$X$X$X$X$X$X$X$X$X$X$X$X$X$X$X$X$X$X$X$X$X$X$X$X$X$X$X$X$X$X$X$X$X$X$X$X$X$X$X$X$X$X$X$X",
"$X$X$X$X$X$X$X$X$X$X$X$X$X$X$X$X$X$X$X$X$X$X$X$X$X$X$X$X$X$X$X$X$X$X$X$X$X$X$X$X$X$X$X$X$X$X$X$X$X$X",
"$X$X$X$X$X$X$X$X$X$X$X$X$X$X$X$X$X$X$X$X$X$X$X$X$X$X$X$X$X$X$X$X$X$X$X$X$X$X$X$X$X$X$X$X$X$X$X$X$X$X",
"$X$X$X$X$X$X$X$X$X$X$X$X$X$X$X$X$X$X$X$X$X$X$X$X$X$X$X$X$X$X$X$X$X$X$X$X$X$X$X$X$X$X$X$X$X$X$X$X$X$X",
"$X$X$X$X$X$X$X$X$X$X$X$X$X$X$X$X$X$X$X$X$X$X$X$X$X$X$X$X$X$X$X$X$X$X$X$X$X$X$X$X$X$X$X$X$X$X$X$X$X$X",
"$X$X$X$X$X$X$X$X$X$X$X$X$X$X$X$X$X$X$X$X$X$X$X$X$X$X$X$X$X$X$X$X$X$X$X$X$X$X$X$X$X$X$X$X$X$X$X$X$X$X",
"$X$X$X$X$X$X$X$X$X$X$X$X$X$X$X$X$X$X$X$X$X$X$X$X$X$X$X$X$X$X$X$X$X$X$X$X$X$X$X$X$X$X$X$X$X$X$X$X$X$X"
};
