/* XPM */
static const char *V3MtZm9jb2NsaXBwaW5nLXN0YW5kYXJkLTEw[] = {
/* columns rows colors chars-per-pixel */
"50 50 42 1 ",
"  c gray9",
". c #232323",
"X c #373837",
"o c #393A39",
"O c #3A3B3A",
"+ c #3B3C3B",
"@ c #3B3D3B",
"# c #4D4E4D",
"$ c #5B5D5B",
"% c #606260",
"& c #626562",
"* c #636563",
"= c #646664",
"- c #656765",
"; c #878A87",
": c #B7BCB7",
"> c #C1C6C1",
", c #C2C6C2",
"< c #C2C7C2",
"1 c #C3C8C3",
"2 c #C6CBC6",
"3 c #CDD2CD",
"4 c #D6DBD6",
"5 c #D7DCD7",
"6 c #E1E7E1",
"7 c #E2E8E2",
"8 c #E3E8E3",
"9 c #E5EAE5",
"0 c #E7EDE7",
"q c #E9EEE9",
"w c #EAF0EA",
"e c #ECF2EC",
"r c #EFF5EF",
"t c #F0F6F0",
"y c #F2F8F2",
"u c #F5FBF5",
"i c #F7FDF7",
"p c #F9FFF9",
"a c #FCFFFC",
"s c #FDFFFD",
"d c #FEFFFE",
"f c None",
/* pixels */
"ffffffffffffffffffffffffffffffffffffffffffffffffff",
"ffffffffffffffffffffffffffffffffffffffffffffffffff",
"ffffffffffffffffffffffffffffffffffffffffffffffffff",
"ffffffffffffffffffffffffffffffffffffffffffffffffff",
"ffffffffffffffffffffffffffffffffffffffffffffffffff",
"ffffffffffffffffffffffffffffffffffffffffffffffffff",
"ffffffffffffffffffffffffffffffffffffffffffffffffff",
"ffffffffffffffffffffffffffffffffffffffffffffffffff",
"ffffffffffffffffffffffffffffffffffffffffffffffffff",
"ffffffffffffffffffffffffffffffffffffffffffffffffff",
"ffffffffffffffffffffffffffffffffffffffffffffffffff",
"ffffffffffffffffffffffffffffffffffffffffffffffffff",
"ffffffffffffffffffffffffffffffffffffffffffffffffff",
"ffffffffffffffypaaaaaaaaaaaaaaaaaapyffffffffffffff",
"fffffffffffffy03<<<<<<<<<<<<<<<<<<30yfffffffffffff",
"fffffffffffffp3&X++++++++++++++++X&3pfffffffffffff",
"fffffffffffffa<X.$&%%%%%%%%%%%%&$.X<afffffffffffff",
"fffffffffffffa<+$5q888888888888q5$+<afffffffffffff",
"fffffffffffffa<+&qauuuuuuuuuuuuaq&+<afffffffffffff",
"fffffffffffffa<+%8urrrrrrrrrrrru8%+<afffffffffffff",
"fffffffffffffa<+%8urrrrrrrrrrrru8%+<afffffffffffff",
"fffffffffffffa<+%8urrrrrrrrrrrru8%+<afffffffffffff",
"fffffffffffffa<+%8urrrrrrrrrrrru8%+<afffffffffffff",
"fffffffffffffa<+%8urrrrrrrrrrrru8%+<afffffffffffff",
"fffffffffffffa<+%8urrrrrrrrrrrru8%+<afffffffffffff",
"fffffffffffffa<+%8urrrrrrrrrrrru8%+<afffffffffffff",
"fffffffffffffa<+%8urrrrrrrrrrrru8%+<afffffffffffff",
"fffffffffffffa<+%8urrrrrrrrrrrru8%+<afffffffffffff",
"fffffffffffffa<+%8urrrrrrrrrrrru8%+<afffffffffffff",
"fffffffffffffa<+%8urrrrrrrrrrrru8%+<afffffffffffff",
"fffffffffffffa<+%8urrrrrrrrrrrru8%+<afffffffffffff",
"fffffffffffffa<+%8urrrrrrrrrrrru8%+<afffffffffffff",
"fffffffffffffa<+%8urrrrrrrrrrrru8%+<afffffffffffff",
"fffffffffffffa<+&waiiiiiiiiiiiiaw&+<afffffffffffff",
"fffffffffffffa<O#:2<<<<<<<<<<<<2:#O<afffffffffffff",
"fffffffffffffa1+ X+OOOOOOOOOOOO+X +1afffffffffffff",
"fffffffffffffi4;==================;4ifffffffffffff",
"fffffffffffffte96888888888888888869etfffffffffffff",
"ffffffffffffffffffffffffffffffffffffffffffffffffff",
"ffffffffffffffffffffffffffffffffffffffffffffffffff",
"ffffffffffffffffffffffffffffffffffffffffffffffffff",
"ffffffffffffffffffffffffffffffffffffffffffffffffff",
"ffffffffffffffffffffffffffffffffffffffffffffffffff",
"ffffffffffffffffffffffffffffffffffffffffffffffffff",
"ffffffffffffffffffffffffffffffffffffffffffffffffff",
"ffffffffffffffffffffffffffffffffffffffffffffffffff",
"ffffffffffffffffffffffffffffffffffffffffffffffffff",
"ffffffffffffffffffffffffffffffffffffffffffffffffff",
"ffffffffffffffffffffffffffffffffffffffffffffffffff",
"ffffffffffffffffffffffffffffffffffffffffffffffffff"
};
