/* XPM */
static char *_037693d27524e70c457bddb27b025ffRiVpCv6HKMHa7h8J[] = {
/* columns rows colors chars-per-pixel */
"50 50 243 2 ",
"   c None",
".  c black",
"X  c #010101",
"o  c #020202",
"O  c gray1",
"+  c #040404",
"@  c gray2",
"#  c #060606",
"$  c #070707",
"%  c gray3",
"&  c #090909",
"*  c gray4",
"=  c #0B0B0B",
"-  c #0C0C0C",
";  c gray5",
":  c #0E0E0E",
">  c gray6",
",  c #101010",
"<  c #111111",
"1  c gray7",
"2  c #131313",
"3  c gray8",
"4  c #151515",
"5  c #161616",
"6  c gray9",
"7  c #181818",
"8  c #191919",
"9  c gray10",
"0  c #1B1B1B",
"q  c gray11",
"w  c #1D1D1D",
"e  c #1E1E1E",
"r  c gray12",
"t  c #202020",
"y  c gray13",
"u  c #222222",
"i  c #232323",
"p  c gray14",
"a  c #252525",
"s  c gray15",
"d  c #272727",
"f  c #282828",
"g  c gray16",
"h  c #2A2A2A",
"j  c gray17",
"k  c #2C2C2C",
"l  c #2D2D2D",
"z  c gray18",
"x  c #2F2F2F",
"c  c gray19",
"v  c #313131",
"b  c #323232",
"n  c gray20",
"m  c #343434",
"M  c #353535",
"N  c gray21",
"B  c #373737",
"V  c gray22",
"C  c #393939",
"Z  c #3A3A3A",
"A  c gray23",
"S  c #3C3C3C",
"D  c gray24",
"F  c #3E3E3E",
"G  c #3F3F3F",
"H  c gray25",
"J  c #414141",
"K  c gray26",
"L  c #434343",
"P  c #444444",
"I  c gray27",
"U  c #464646",
"Y  c gray28",
"T  c #484848",
"R  c #494949",
"E  c gray29",
"W  c #4B4B4B",
"Q  c #4C4C4C",
"!  c gray30",
"~  c #4E4E4E",
"^  c gray31",
"/  c #505050",
"(  c #515151",
")  c gray32",
"_  c #535353",
"`  c gray33",
"'  c #555555",
"]  c #565656",
"[  c gray34",
"{  c #585858",
"}  c gray35",
"|  c #5A5A5A",
" . c #5B5B5B",
".. c gray36",
"X. c #5D5D5D",
"o. c gray37",
"O. c #5F5F5F",
"+. c #606060",
"@. c gray38",
"#. c #626262",
"$. c gray39",
"%. c #646464",
"&. c #656565",
"*. c gray40",
"=. c #676767",
"-. c #686868",
";. c DimGray",
":. c #6A6A6A",
">. c gray42",
",. c #6C6C6C",
"<. c #6D6D6D",
"1. c gray43",
"2. c #6F6F6F",
"3. c gray44",
"4. c #717171",
"5. c #727272",
"6. c gray45",
"7. c #747474",
"8. c gray46",
"9. c #767676",
"0. c #777777",
"q. c gray47",
"w. c #797979",
"e. c gray48",
"r. c #7C7C7C",
"t. c gray49",
"y. c #7E7E7E",
"u. c gray50",
"i. c #808080",
"p. c #818181",
"a. c gray51",
"s. c #838383",
"d. c #848484",
"f. c gray52",
"g. c #868686",
"h. c gray53",
"j. c #888888",
"k. c #898989",
"l. c gray54",
"z. c #8B8B8B",
"x. c gray55",
"c. c #8D8D8D",
"v. c #8E8E8E",
"b. c gray56",
"n. c #909090",
"m. c gray57",
"M. c #929292",
"N. c #939393",
"B. c gray58",
"V. c #959595",
"C. c gray59",
"Z. c #979797",
"A. c #989898",
"S. c gray60",
"D. c #9A9A9A",
"F. c #9B9B9B",
"G. c gray61",
"H. c #9D9D9D",
"J. c gray62",
"K. c #9F9F9F",
"L. c #A0A0A0",
"P. c gray63",
"I. c #A2A2A2",
"U. c gray64",
"Y. c #A4A4A4",
"T. c #A5A5A5",
"R. c gray65",
"E. c #A7A7A7",
"W. c gray66",
"Q. c #A9A9A9",
"!. c #AAAAAA",
"~. c gray67",
"^. c #ACACAC",
"/. c gray68",
"(. c #AEAEAE",
"). c #AFAFAF",
"_. c gray69",
"`. c #B1B1B1",
"'. c #B2B2B2",
"]. c gray70",
"[. c #B4B4B4",
"{. c gray71",
"}. c #B6B6B6",
"|. c #B7B7B7",
" X c gray72",
".X c #B9B9B9",
"XX c gray73",
"oX c #BBBBBB",
"OX c #BCBCBC",
"+X c gray74",
"@X c gray",
"#X c gray75",
"$X c #C0C0C0",
"%X c #C1C1C1",
"&X c gray76",
"*X c #C3C3C3",
"=X c gray77",
"-X c #C6C6C6",
";X c gray78",
":X c #C8C8C8",
">X c gray79",
",X c #CACACA",
"<X c #CBCBCB",
"1X c gray80",
"2X c #CDCDCD",
"3X c #CECECE",
"4X c gray81",
"5X c #D0D0D0",
"6X c gray82",
"7X c #D2D2D2",
"8X c LightGray",
"9X c gray83",
"0X c #D5D5D5",
"qX c gray85",
"wX c #DADADA",
"eX c gainsboro",
"rX c #DDDDDD",
"tX c gray87",
"yX c #DFDFDF",
"uX c #E2E2E2",
"iX c gray89",
"pX c #E4E4E4",
"aX c gray90",
"sX c #E6E6E6",
"dX c #E7E7E7",
"fX c gray91",
"gX c #E9E9E9",
"hX c #EAEAEA",
"jX c gray92",
"kX c #ECECEC",
"lX c gray93",
"zX c #EEEEEE",
"xX c #EFEFEF",
"cX c gray94",
"vX c #F1F1F1",
"bX c gray95",
"nX c #F3F3F3",
"mX c #F4F4F4",
"MX c gray96",
"NX c gray98",
"BX c #FBFBFB",
"VX c gray99",
"CX c white",
/* pixels */
"                                        5 g S I _ _ I S g 5                                         ",
"                                & m *.v.I.R.`.>Xv.v.>X`.R.I.v.*.v &                                 ",
"                            9 X.F.R.p._ g ; A F.+ O C.S ; g _ p.R.F.X.9                             ",
"                        , +.R.m.I , O O O O p K.+ O F.g O O O O , I m.R.+.,                         ",
"                      L ^.F.m O O O O O & y ` $X . .@X` y ; O O O O O m F.^.L                       ",
"                  ; 6.!.!.6.O O O 5 W p.K.K.v.C..X.XC.v.K.K.p.W 5 O O O 6.!.!.6.;                   ",
"                w F.K.9 9 !.m w 6.I.z._ y w +.C.p.p.C.+.w y _ z.I.6.w m !.9 9 K.F.w                 ",
"              p K.[.m.& O  .=XI.,.w O O W K.,.y O O w 6.K.W O O w ,.I.=X .O & m.[.K.p               ",
"            w K.6.; z.8.v I.I.X.X.8.v.!.rX!.;.I p g W ;.^.rX!.v.8.+.+.R.I.v 8.z.; 6.K.w             ",
"          , m.e.O O 5 .X@X[.K.p.+.6.4X6.m I z.rX>X>XwXp.L v 6.>X,.X.y.K..X@X.X5 O O e.m.,           ",
"          6.m.& O O _ R.6.m.5 O y K._ ; k v.4XK. .+.R.5Xz.v , ` K.y O , m.8.R._ O O & m.8.          ",
"        I ^.w O O W R.v C.m O w .X.XI.4XxXCXxX>X^.`.5XnXCXxX5XR.$X.Xw O v C.v R.W O O w ^.I         ",
"      5 I.W O O k !.k ~ p.9 *..XR.C.hXMX@Xe.L y , 5 p L y.$XMXpXz.K.@X,.w p.~ g !.k O O W I.5       ",
"      *.m.O O ; F.~ O K.C.K.4XF. .@XF.S , 5 g p k v p p y 5 L F.@X` F.>XK.F.I.O ~ F.; O O m.*.      ",
"    w R.v O O ;.d.O A 0Xd.I @X[..XS & p k g 5 w L S y 9 y g p , L @X`.@XL y.0XL O p.;.O O v R.w     ",
"    +.`.5 O y !.w I 4X8.O d.CX4Xk 5 g p 9 A ,.m.z.d.m.6.S w y k ; v 5XCXd.O 6.5XW w !.y O 5 `.+.    ",
"  & K.^.R.6.v.,.~ I.[.v S hXpXS 9 v k 8.m.p._ y + + y _ p.m.e.m v y L pXpXS v `.K.` ,.v.6.R.^.K.&   ",
"  A R., p y.>X;.F.v F.` wXBX;.5 k w z.+.9 , k p y y g k , 5 X.v.9 k , ;.CXwX_ F.k C.,.>Xy.p , R.A   ",
"  ;.d.O O W [.K.p w @X@XnX!.5 m , *.8.+ 9 g k S `  .I v g 9 O ,.,.5 v 9 !.nX.X@Xy w K.@XW O O d.;.  ",
"  C.$Xv.X.F.[.X.O k wXd.5Xm 9 p A C.9 y g W p.y.;.*.e.z.X.k y 5 m.L w g m 5Xd.wXv O  ..XF.X.v.$XC.  ",
"9 R.L I d.=Xp.X.O ,.I.;.m., v y C.m k k  .d.S p A S y m y.6.v k k F.g k ; C.;.I.,.O  .d.=Xd.I L R.9 ",
"k R.; O p K. .6.w 4XI.!._ 9 g e.X.; p S d.k  .L ~ _ S X.p y. .p & ` p.k w ` !.K.4Xw ,.X.K.p O ; R.k ",
"L F.+ O S v.m z.8.C.$XrXm w g m.9 9 p y.L k _ ;.8.8.;._ v k v.v 9 , C.p p m rX$XC.8.z.A v.S O + F.L ",
"~ m.O O ~ y.5 `.^.A rXpXg v 9 v.w y m p.m  .*.I z.v.L *.` A 8._ y 5 m.y g g pXrXA ^.`.5 y.~ O O m.~ ",
"` z.O O ` 8.O R.d.; 4XiXp v 9 v.p v L 6.k ~ *.A 8.6.m +._ v X.+.v w m.9 v g iX4X; p.R.O 8.` O O z.` ",
"` z.O O ` 8.O K.p.& >XiXy g 9 v.p v L 6.k ~ ,.I.m.d.R.;.~ v X.+.v w m.9 g g iX>X& y.I.O 8.` O O z.` ",
"~ m.O O ~ p.; `.^.v rXpXg v 9 v.w y A p.m  .;.8.S S 6.,.` A 8._ y 5 m.y g p pXrXv ^.[., p.~ O O m.~ ",
"L F.+ O S v.k v.y.v.=XrXm g g m.9 9 p y.L k ~ *.*.+.;._ v k v.v 9 , C.p k A rX=Xv.y.v.v v.S O + F.L ",
"k R.; O p K.` 8.y 4XR.^._ , p 8.+.; p S d.k  .L ~ ` S X.g y. .p & ` y.p 9 ` ^.I.4Xy 6.` K.p O ; R.k ",
"9 R.L I d.=Xy.*.O 8.I.;.v., v y C.m g k  .d.S p A S p v y.6.v g k F.y v & m.;.I.8.O +.p.=Xd.I L R.9 ",
"  C.$Xv.X.F.`.*.O k 0Xy.4Xm p y m C.w y g W p.y.;.*.e.z.X.k y 9 m.S 9 k m 4Xy.0Xk O X.[.F.X.v.$XC.  ",
"  ;.d.O O W [.K.p w $X@XxXR.; v ; +.e.+ 9 g k S `  .I v g 9 O 6.;., k 5 R.xX@X$Xw y K..XW O O d.;.  ",
"  A I., p y.>X*.F.k C.X.rXBX*.9 m 9 d.*.w , k p y y p k , 9 +.v.5 v 9 *.BXrXX.F.g C.,.>Xy.p , I.A   ",
"  & F.^.R.6.v.,.~ I.[.m I hXiXA , k g 6.m.d. .p & & p ` d.m.6.k g w S pXhXI m `.K.` ,.v.6.R.^.F.&   ",
"    +.`.5 O y !.w L 4Xe.O d.CX4Xk 9 m w 5 m ;.v.z.z.m.,.m 9 w m 5 k 4XCXd.O 8.5XW w !.y O 5 `.+.    ",
"    w R.v O O ;.d.O A 0Xd.I $X@X.XA & y m p , 5 A m 9 5 w m w , S @X.X@XL y.5XS O d.;.O O v R.w     ",
"      *.m.O O ; F.~ O F.F.K.4XF.X.@Xm.A 9 5 g v g k v y y w A C.@X .F.>XK.K.K.O ~ F.; O O m.*.      ",
"      5 I.W O O k !.k W p.9 *.@XR.C.hXnX.X6.S y ; 5 p S 8.@XnXpXz.K.$X,.y p.~ k !.k O O W I.5       ",
"        I !.9 O O W !.v m.m O w .X@XI.5XnXCXxX=X!.^.4XnXCXnX0XR.$X.Xw O v C.v R.W O O 9 !.I         ",
"          8.m.& O O _ R.,.m.5 O y K._ , v m.4XI.X.+.!.5Xv.v 5 ` K.y O 5 m.6.R._ O O & m.8.          ",
"          , m.e.O O 5 .X@X[.K.p.+.6.4X6.v I z.rX>X>XwXd.L v 6.>X,.X.y.K..X@X.X5 O O e.m.,           ",
"            w K.,.; z.8.v I.I.X.X.8.v.!.rX^.;.W g g ~ ,.^.rX!.m.e.+.+.R.I.v 8.z.; ,.K.w             ",
"              p F.[.m.+ O  .=XI.,.w O O W K.6.y O O y 6.K.W O O w ,.I.=X .O & m.[.F.p               ",
"                w F.F.9 9 !.m w 6.I.z._ y w +.C.p.p.C.+.w w _ z.I.6.w m !.9 9 F.F.w                 ",
"                  ; 6.R.!.6.O O O , W p.K.K.v.C..X.XC.v.K.K.p.W 5 O O O 6.!.R.6.;                   ",
"                      L ^.F.v O O O O O ; y ` $X . .@X` y ; O O O O O v F.^.L                       ",
"                        , +.R.m.I , O O O O p K.+ O F.g O O O O , I m.R.+.,                         ",
"                            9 X.F.R.p._ g ; A F.+ O C.S ; g _ p.R.F.X.9                             ",
"                                & m *.v.I.I.`.>Xv.v.=X`.I.I.v.*.v &                                 ",
"                                        5 g S I _ _ I S g 5                                         "
};
