/* XPM */
static const char *V3MtZm9jb2NsaXBwaW5nLXN0YW5kYXJkLTExLTI_[] = {
/* columns rows colors chars-per-pixel */
"50 50 62 1 ",
"  c black",
". c gray5",
"X c #111111",
"o c #181818",
"O c gray10",
"+ c #1E1E1E",
"@ c #202120",
"# c #272827",
"$ c #282928",
"% c #292A29",
"& c #2A2A2A",
"* c #2A2B2A",
"= c #383938",
"- c #393A39",
"; c #3B3C3B",
": c #3C3D3C",
"> c #3E3F3E",
", c #474947",
"< c #484A48",
"1 c #4C4E4C",
"2 c #535553",
"3 c #565856",
"4 c #5F615F",
"5 c #646664",
"6 c #656765",
"7 c #676967",
"8 c #696C69",
"9 c #6E706E",
"0 c #858885",
"q c #929592",
"w c #969996",
"e c #979A97",
"r c #979B97",
"t c #989B98",
"y c #999D99",
"u c #9A9D9A",
"i c #9A9E9A",
"p c #9C9F9C",
"a c #AEB2AE",
"s c #AFB3AF",
"d c #BBC0BB",
"f c #BEC3BE",
"g c #C4C8C4",
"h c #C4C9C4",
"j c #C5C9C5",
"k c #C5CAC5",
"l c #C7CCC7",
"z c #CED3CE",
"x c #D6DBD6",
"c c #D6DCD6",
"v c #E2E8E2",
"b c #E4EAE4",
"n c #E5EAE5",
"m c #E5EBE5",
"M c #E8EDE8",
"N c #E9EEE9",
"B c #F2F8F2",
"V c #F3F9F3",
"C c #F5FBF5",
"Z c #F6FCF6",
"A c #F8FFF8",
"S c None",
/* pixels */
"SSSSSSSSSSSSSSSSSSSSSSSSSSSSSSSSSSSSSSSSSSSSSSSSSS",
"SSSSSSSSSSSSSSSSSSSSSSSSSSSSSSSSSSSSSSSSSSSSSSSSSS",
"SSSSSSSSSSSSSSSSSSSSSSSSSSSSSSSSSSSSSSSSSSSSSSSSSS",
"SSSSSSSSSSSSSSSSSSSSSSSSSSSSSSSSSSSSSSSSSSSSSSSSSS",
"SSSSSSSSSSSSSSSSSSSSSSSSSSSSSSSSSSSSSSSSSSSSSSSSSS",
"SSSSSSSSSSSSSSSSSSSSSSSSSSSSSSSSSSSSSSSSSSSSSSSSSS",
"SSSSSSSSSSSSSSSSSSSSSSSSSSSSSSSSSSSSSSSSSSSSSSSSSS",
"SSSSSSSSSSSSSSSSSSSSSSSSSSSSSSSSSSSSSSSSSSSSSSSSSS",
"SSSSSSSSSSSSSSSSSSSSSSSSSSSSSSSSSSSSSSSSSSSSSSSSSS",
"SSSSSSSSSSSSSSSSSSSSSSSSSSSSSSSSSSSSSSSSSSSSSSSSSS",
"SSSSSSSSSSSSSSSSSSSSSSSSSSSSSSSSSSSSSSSSSSSSSSSSSS",
"SSSSSSSSSSSSSSSSSSSSSSSSSSSSSSSSSSSSSSSSSSSSSSSSSS",
"SSSSSSSSSSSSSSSSSSSSSSSSSSSSSSSSSSSSSSSSSSSSSSSSSS",
"SSSSSSSSSSSSSSSSSSSSSSSSSSSSSSSSSSSSSSSSSSSSSSSSSS",
"SSSSSSSSSSSSSSSSSSSSSSSSSSSSSSSSSSSSSSSSSSSSSSSSSS",
"SSSSSSSSSSSSSSSSSSSSSSSSSSSSSSSSSSSSSSSSSSSSSSSSSS",
"SSSSSSSSSSSSSSSSSSSSSSSSSSSSSSSSSSSSSSSSSSSSSSSSSS",
"SSSSSSSSSSSSSSSSSSSSSSSSSSSSSSSSSSSSSSSSSSSSSSSSSS",
"SSSSSSSSSSSSSSSSSSSSSSSSSSSSSSSSSSSSSSSSSSSSSSSSSS",
"SSSSSSSSSSSSSSSSSSSSSSSSSSSSSSSSSSSSSSSSSSSSSSSSSS",
"SSSSSSSSSSSSSSSSSSSSSSSSSSSSSSSSSSSSSSSSSSSSSSSSSS",
"SSSSSSSSSSSSSSSSSSSSSSSSSSSSSSSSSSSSSSSSSSSSSSSSSS",
"SSSSSSSSSSSSSSSSSSSSSSSSSSSSSSSSSSSSSSSSSSSSSSSSSS",
"SSSSSSSSSSSSSSSSSSSSSSSSSSSSSSSSSSSSSSSSSSSSSSSSSS",
"SSSSSSSSSSSSSSSSSSSSSSSSSSSSSSSSSSSSSSSSSSSSSSSSSS",
"SSSSSSSSSSSSSSSSSSSSSSSSSSSSSSSSSSSSSSSSSSSSSSSSSS",
"SSSSSSSSSSSSSSSSSSSSSSSSSSSSSSSSSSSSSSSSSSSSSSSSSS",
"SSSSSSSSSSSSSSSSSSSSSSSSSSSSSSSSSSSSSSSSSSSSSSSSSS",
"SSSSSSSSSSSSSSSSSSSSSSSSSSSSSSSSSSSSSSSSSSSSSSSSSS",
"SSSSSSSSSSSSSSSSSSSSSSSSSSSSSSSSSSSSSSSSSSSSSSSSSS",
"SSSSSSSSSS.8mSSSSSSSSSSSSSSSSSSSSSSSSSSSSSSSSSSSSS",
"SSSSSSSSSS.3tfSSSSSSSSSSSSSSSSSSSSSSSSSSSSSSSSSSSS",
"SSSSSSSSSSSS%yBSS%yBSSSSSSSSSSSSSSSSS+wBSSSSSSSSSS",
"SSSSSSSSSSSSoyx21qdSSSSSSSSSSSSSSSSSS+wCSSSSSSSSSS",
"SSSSSSSSSSS=@ph;5mSSSSSSSSSSSSSSSSSS=@tNSSSSSSSSSS",
"SSSSSSS+wAZ0#yh;5mSSSSSSSSSSSSSS+wAZ0#yz, oyBSSSSS",
"SSSSSSS+9svw%yh:5vSSSSSSSSSSSSSS+9svw%yh:%5sBSSSSS",
"SSSSSSSSX<ly%yh:5vSSSSSSSSSSSSSSSX<ly%yh:4cSSSSSSS",
"SSSSSSSS =hy%yh:5vSSSSSSSSSSSSSSS =hy%yh:7NSSSSSSS",
"SSSSSSSSS:hy%yh:5vSSSSSSSSSSSSSSSS:hy%yh:5vSSSSSSS",
"SSSSSSSSSSSSSSSSSSSSSSSSSSSSSSSSSSSSSSSSSSSSSSSSSS",
"SSSSSSSSSSSSSSSSSSSSSSSSSSSSSSSSSSSSSSSSSSSSSSSSSS",
"SSSSSSSSSSSSSSSSSSSSSSSSSSSSSSSSSSSSSSSSSSSSSSSSSS",
"SSSSSSSSSSSSSSSSSSSSSSSSSSSSSSSSSSSSSSSSSSSSSSSSSS",
"SSSSSSSSSSSSSSSSSSSSSSSSSSSSSSSSSSSSSSSSSSSSSSSSSS",
"SSSSSSSSSSSSSSSSSSSSSSSSSSSSSSSSSSSSSSSSSSSSSSSSSS",
"SSSSSSSSSSSSSSSSSSSSSSSSSSSSSSSSSSSSSSSSSSSSSSSSSS",
"SSSSSSSSSSSSSSSSSSSSSSSSSSSSSSSSSSSSSSSSSSSSSSSSSS",
"SSSSSSSSSSSSSSSSSSSSSSSSSSSSSSSSSSSSSSSSSSSSSSSSSS",
"SSSSSSSSSSSSSSSSSSSSSSSSSSSSSSSSSSSSSSSSSSSSSSSSSS"
};
