/* XPM */
static const char *aGVyb3MtZm9jb2NsaXBwaW5nLXN0YW5kYXJkKyUyODMlMjk_[] = {
/* columns rows colors chars-per-pixel */
"50 50 140 2 ",
"   c #010102",
".  c #0C0907",
"X  c #01060B",
"o  c #04080D",
"O  c #0A0A0C",
"+  c #100F0F",
"@  c #000B16",
"#  c #010E1C",
"$  c #04111E",
"%  c #0A121C",
"&  c #151515",
"*  c #181717",
"=  c #171718",
"-  c #1B1B1C",
";  c #24211F",
":  c #021325",
">  c #01152B",
",  c #04192E",
"<  c #111C27",
"1  c #1F1F20",
"2  c #001A35",
"3  c #051E38",
"4  c #1F2429",
"5  c #03203E",
"6  c #0B223A",
"7  c #232223",
"8  c #272729",
"9  c #2B2B2C",
"0  c #312F2E",
"q  c #32302F",
"w  c #2E2F31",
"e  c #2F3032",
"r  c #2F343A",
"t  c #343435",
"y  c #383636",
"u  c #373738",
"i  c #3A3A3B",
"p  c #032242",
"a  c #00264D",
"s  c #062A4E",
"d  c #042B53",
"f  c #022E5B",
"g  c #163555",
"h  c #203041",
"j  c #283542",
"k  c #273849",
"l  c #3D3E40",
"z  c #063360",
"x  c #02376C",
"c  c #053A6F",
"v  c #0B3B6B",
"b  c #043B72",
"n  c #374351",
"m  c #454444",
"M  c #484746",
"N  c #474748",
"B  c #45484A",
"V  c #4C4C4C",
"C  c #4F4F50",
"Z  c #535354",
"A  c #5C5C5C",
"S  c #636363",
"D  c #676868",
"F  c #69696A",
"G  c #747475",
"H  c #7B7C7D",
"J  c #034384",
"K  c #004A95",
"L  c #004E9C",
"P  c #0152A4",
"I  c #0156AB",
"U  c #0258AE",
"Y  c #0059B3",
"T  c #005CB9",
"R  c #0063C6",
"E  c #0166CC",
"W  c #0469CF",
"Q  c #016AD5",
"!  c #006DDC",
"~  c #006FE0",
"^  c #0071E4",
"/  c #0075EA",
"(  c #858687",
")  c #878788",
"_  c #8A8B8C",
"`  c #919192",
"'  c #99999A",
"]  c #9F9FA0",
"[  c #A2A2A3",
"{  c #A9A9A9",
"}  c #A9AAAA",
"|  c gray67",
" . c #AEAEAE",
".. c #B6B6B6",
"X. c #B7B7B8",
"o. c #BABABB",
"O. c #BCBCBC",
"+. c #BFBFC0",
"@. c gray76",
"#. c gray77",
"$. c #C5C5C5",
"%. c #C6C6C6",
"&. c #C0C0C0",
"*. c #C7C7C8",
"=. c #CECECE",
"-. c #D7D7D7",
";. c #D5D5D5",
":. c #D6D7D8",
">. c #D8D9D9",
",. c gray85",
"<. c #DADADA",
"1. c #DDDDDD",
"2. c gray87",
"3. c #DBDBDB",
"4. c #E1E1E1",
"5. c #E2E2E2",
"6. c #E3E3E4",
"7. c #E4E4E4",
"8. c #E5E4E5",
"9. c gray90",
"0. c #E6E6E6",
"q. c #E6E6E7",
"w. c #E7E7E7",
"e. c #E1E1E2",
"r. c gray92",
"t. c gray93",
"y. c #EEEEEE",
"u. c #ECECED",
"i. c gray95",
"p. c #F3F3F3",
"a. c #F3F3F4",
"s. c #F5F6F6",
"d. c gray97",
"f. c #F8F8F8",
"g. c #F8F8F9",
"h. c #FEFEFE",
"j. c white",
"k. c #FFFFFF",
"l. c None",
"z. c black",
/* pixels */
"l.l.l.l.l.l.l.l.l.l.l.l.l.l.l.l.l.l.l.l.l.l.l.l.l.l.l.l.l.l.l.l.l.l.l.l.l.l.l.l.l.l.l.l.l.l.l.l.l.l.",
"l.l.l.l.l.l.l.l.l.l.l.l.l.l.l.l.l.l.l.l.l.l.l.l.l.l.l.l.l.l.l.l.l.l.l.l.l.l.l.l.l.l.l.l.l.l.l.l.l.l.",
"l.l.l.l.l.l.l.l.l.l.l.l.l.l.l.l.l.l.l.l.l.l.l.l.l.l.l.l.l.l.l.l.l.l.l.l.l.l.l.l.l.l.l.l.l.l.l.l.l.l.",
"l.l.l.l.l.l.l.l.l.l.l.l.l.l.l.l.l.l.l.l.l.l.l.l.l.l.l.l.l.l.l.l.l.l.l.l.l.l.l.l.l.l.l.l.l.l.l.l.l.l.",
"l.l.l.l.l.l.l.l.l.l.l.l.l.l.l.l.l.l.l.l.l.l.l.l.l.l.l.l.l.l.l.l.l.l.l.l.l.l.l.l.l.l.l.l.l.l.l.l.l.l.",
"l.l.l.l.l.l.l.l.l.l.l.l.l.l.l.l.l.l.l.- & & & & & & & & & & & l.l.l.l.l.l.l.l.l.l.l.l.l.l.l.l.l.l.l.",
"l.l.l.l.l.l.l.l.l.l.l.l.l.l.l.l.u 7 t  .%.%.%.%.%.%.%.%.%.%.@.C & 1 l.l.l.l.l.l.l.l.l.l.l.l.l.l.l.l.",
"l.l.l.l.l.l.l.l.l.l.l.l.l.l.l.l.D H ) t.j.j.j.j.j.j.j.j.j.j.j.[ H G - l.l.l.l.l.l.l.l.l.l.l.l.l.l.l.",
"l.l.l.l.l.l.l.l.l.l.l.l.l.l.l.  [ j.j.j.j.j.j.j.j.j.j.j.j.j.j.j.j.9.7 l.l.l.l.l.l.l.l.l.l.l.l.l.l.l.",
"l.l.l.l.l.l.l.l.l.l.l.l.l.l.l.O [ j.j.j.j.j.j.j.j.j.j.j.j.j.j.j.j.4.8 l.l.l.l.l.l.l.l.l.l.l.l.l.l.l.",
"l.l.l.l.l.l.l.l.l.l.l.l.l.l.m } 6.j.j.j.j.j.j.j.j.j.j.j.j.j.j.j.j.d.+.A i l.l.l.l.l.l.l.l.l.l.l.l.l.",
"l.l.l.l.l.l.l.l.l.l.l.l.l.Z 7 9.j.j.j.j.j.j.j.j.j.j.j.j.j.j.j.j.j.j.j.Z - l.l.l.l.l.l.l.l.l.l.l.l.l.",
"l.l.l.l.l.l.l.l.l.l.l.l.l.Z 7 4.j.j.j.j.j.j.j.j.j.j.j.j.j.j.j.j.j.j.j.Z - l.l.l.l.l.l.l.l.l.l.l.l.l.",
"l.l.l.l.l.l.l.l.l.l.l.l.l.N 7 4.j.j.j.j.j.j.j.j.j.j.j.j.j.j.j.j.j.j.j.Z 7 l.l.l.l.l.l.l.l.l.l.l.l.l.",
"l.l.l.l.l.l.l.l.l.l.l.l.l.m 7 9.j.j.j.j.j.j.j.j.j.j.j.j.j.j.j.j.j.j.j.Z 7 l.l.l.l.l.l.l.l.l.l.l.l.l.",
"l.l.l.l.l.l.l.l.l.l.l.l.l.l.1 ` <.j.j.j.j.j.j.j.j.j.j.j.j.j.j.j.j.p.} m l.l.l.l.l.l.l.l.l.l.l.l.l.l.",
"l.l.l.l.l.l.l.l.l.l.l.l.l.l.l.  ] j.j.j.j.j.j.j.j.j.j.j.j.j.j.j.j.4.7 l.l.l.l.l.l.l.l.l.l.l.l.l.l.l.",
"l.l.l.l.l.l.l.l.l.l.l.l.l.l.& X [ j.j.j.j.j.j.j.j.j.j.j.j.j.j.j.j.4.7 O t l.l.l.l.l.l.l.l.l.l.l.l.l.",
"l.l.l.l.l.l.l.l.l.l.l.l.l.Z = _ <.j.j.j.} D D S S S S D D H a.j.j.p.[ t 7 l.l.l.l.l.l.l.l.l.l.l.l.l.",
"l.l.l.l.l.l.l.l.l.l.l.l.l.Z 7 9.j.j.f...m     m Z Z V &   & ' 9.j.j.j.Z - l.l.l.l.l.l.l.l.l.l.l.l.l.",
"l.l.l.l.l.l.l.l.l.l.l.l.l.A t =.9.t.r.i - & O X.p.f.2.u O - - o.f.9.9.A 9 l.l.l.l.l.l.l.l.l.l.l.l.l.",
"l.l.l.l.l.l.l.l.l.l.l.l.l.l.l.9 8 D f.2.<.[ O - ' -.u X S <.-.d.} 8 8 N l.l.l.l.l.l.l.l.l.l.l.l.l.l.",
"l.l.l.l.l.l.l.l.l.l.l.l.l.l.u   1 N G G G D u X u D u u Z G G G A w   8 D l.l.l.l.l.l.l.l.l.l.l.l.l.",
"l.l.l.l.l.l.l.l.l.l.l.l.l.w X - V V - - = 9 A 8 - 8 S D m = - = u A 8 O 7 l.l.l.l.l.l.l.l.l.l.l.l.l.",
"l.l.l.l.l.l.l.l.l.l.l.l.-   % Z S S S S S S S S S S S S S S S S S S A 4 X O l.l.l.l.l.l.l.l.l.l.l.l.",
"l.l.l.l.l.l.l.l.l.l.l.- . p I < M D S S S D S D S S S S S S S S S A - J J   & l.l.l.l.l.l.l.l.l.l.l.",
"l.l.l.l.l.l.l.l.l.l.l.  s P ! J k m S S m 0 t t q u S D N y A D Z r v R E c @ l.l.l.l.l.l.l.l.l.l.l.",
"l.l.l.l.l.l.l.l.l.l.l.  I / ^ / d * V V h 2 2 2 2 6 B V j 6 B V w $ W ^ ^ Q :   l.l.l.l.l.l.l.l.l.l.",
"l.l.l.l.l.l.l.l.l.m X X P / ^ ^ d   o o J ^ ! ! ~ T # X x R : o   $ E ^ ^ Q >   8 l.l.l.l.l.l.l.l.l.",
"l.l.l.l.l.l.l.l.l.m $ P Q ^ ^ ^ s , I I E ^ ^ ^ ^ ! Y I R ! Y Y x $ E ^ ^ ~ T p 7 l.l.l.l.l.l.l.l.l.",
"l.l.l.l.l.l.l.l.l.m > ! ^ ^ ^ / s p ^ ^ ^ ^ ^ ^ ^ ^ ^ ^ ^ ^ ^ / K $ Q ^ ^ ^ / f ; l.l.l.l.l.l.l.l.l.",
"l.l.l.l.l.l.l.l.l.l.: T ! ^ ~ R f z ^ ^ ^ ^ ^ ^ ^ ^ ^ ^ ^ ^ ^ ^ P 5 U ! ^ ^ R d 7 l.l.l.l.l.l.l.l.l.",
"l.l.l.l.l.l.l.l.l.l.l.% I / E > K ! ^ ^ ^ ^ ^ ^ ^ ^ ^ ^ ^ ^ ^ ^ ^ R > L / Q 6 l.l.l.l.l.l.l.l.l.l.l.",
"l.l.l.l.l.l.l.l.l.l.l.l.g a p X L / ^ ^ ^ ^ ^ ^ ^ ^ ^ ^ ^ ^ ^ ^ ^ E # 2 a d n l.l.l.l.l.l.l.l.l.l.l.",
"l.l.l.l.l.l.l.l.l.l.l.l.l.-     L / ^ ^ ^ ^ ^ ^ ^ ^ ^ ^ ^ ^ ^ ^ ^ E #   X + l.l.l.l.l.l.l.l.l.l.l.l.",
"l.l.l.l.l.l.l.l.l.l.l.l.l.C X   J Q ^ ^ Q R R R R R R R R E ^ ^ ! T #   8 l.l.l.l.l.l.l.l.l.l.l.l.l.",
"l.l.l.l.l.l.l.l.l.l.l.l.l.A X   X d ^ / b @ @ @ @ @ @ @ @ 3 Q / L @     9 l.l.l.l.l.l.l.l.l.l.l.l.l.",
"l.l.l.l.l.l.l.l.l.l.l.l.u 8       # d f :                 X d f 2       & 9 l.l.l.l.l.l.l.l.l.l.l.l.",
"l.l.l.l.l.l.l.l.l.l.l.l.&                         O                       X l.l.l.l.l.l.l.l.l.l.l.l.",
"l.l.l.l.l.l.l.l.l.l.l.l.& X   & = & & = - &     l.l.    O - - - - - - O   X l.l.l.l.l.l.l.l.l.l.l.l.",
"l.l.l.l.l.l.l.l.l.l.l.l.l.m - O.-.-.-.<.2.[ O l.l.l.l.  S 2.2.2.2.2.3.N - l.l.l.l.l.l.l.l.l.l.l.l.l.",
"l.l.l.l.l.l.l.l.l.l.l.9 w 8 1 4.j.j.j.j.j.@.O l.l.l.l.  G j.j.j.j.j.j.Z & u t l.l.l.l.l.l.l.l.l.l.l.",
"l.l.l.l.l.l.l.l.l.l.l.      - 4.j.j.j.j.<._ O l.l.l.l.  Z *.f.j.j.j.j.Z       l.l.l.l.l.l.l.l.l.l.l.",
"l.l.l.l.l.l.l.l.l.l.l.& & & 9 ;.t.u.u.t.G & O l.l.l.l.& & i :.t.t.t.r.A & & & l.l.l.l.l.l.l.l.l.l.l.",
"l.l.l.l.l.l.l.l.l.l.l.l.l.l.l.t w w w e S l.l.l.l.l.l.l.l.( l w w w w C l.l.l.l.l.l.l.l.l.l.l.l.l.l.",
"l.l.l.l.l.l.l.l.l.l.l.l.l.l.l.u u u u u l.l.l.l.l.l.l.l.l.l.V m m m N l.l.l.l.l.l.l.l.l.l.l.l.l.l.l.",
"l.l.l.l.l.l.l.l.l.l.l.l.l.l.l.l.l.l.l.l.l.l.l.l.l.l.l.l.l.l.l.l.l.l.l.l.l.l.l.l.l.l.l.l.l.l.l.l.l.l.",
"l.l.l.l.l.l.l.l.l.l.l.l.l.l.l.l.l.l.l.l.l.l.l.l.l.l.l.l.l.l.l.l.l.l.l.l.l.l.l.l.l.l.l.l.l.l.l.l.l.l.",
"l.l.l.l.l.l.l.l.l.l.l.l.l.l.l.l.l.l.l.l.l.l.l.l.l.l.l.l.l.l.l.l.l.l.l.l.l.l.l.l.l.l.l.l.l.l.l.l.l.l.",
"l.l.l.l.l.l.l.l.l.l.l.l.l.l.l.l.l.l.l.l.l.l.l.l.l.l.l.l.l.l.l.l.l.l.l.l.l.l.l.l.l.l.l.l.l.l.l.l.l.l."
};
