/* XPM */
static const char *aGVyb3MtZm9jb2NsaXBwaW5nLXN0YW5kYXJkKyUyODElMjktMg__[] = {
/* columns rows colors chars-per-pixel */
"50 50 147 2 ",
"   c #010101",
".  c #080605",
"X  c #090807",
"o  c #04070B",
"O  c #06090D",
"+  c #0A0B0C",
"@  c #000714",
"#  c #010914",
"$  c #0C0E12",
"%  c #000E1E",
"&  c #0D1014",
"*  c #04111F",
"=  c #131314",
"-  c #171718",
";  c #1B1B1C",
":  c #000E20",
">  c #011224",
",  c #151E28",
"<  c #001631",
"1  c #021A35",
"2  c #001D3C",
"3  c #07213D",
"4  c #102438",
"5  c #222223",
"6  c #272728",
"7  c #272828",
"8  c #2A2A2A",
"9  c #302E2E",
"0  c #23313E",
"q  c #343434",
"w  c #383635",
"e  c #373839",
"r  c #3B3B3C",
"t  c #001E41",
"y  c #012144",
"u  c #082542",
"i  c #00244C",
"p  c #1C354F",
"a  c #002750",
"s  c #002952",
"d  c #002D5B",
"f  c #233343",
"g  c #3F3F40",
"h  c #002F61",
"j  c #023365",
"k  c #00366D",
"l  c #003973",
"z  c #003D7B",
"x  c #3E444A",
"c  c #2E4257",
"v  c #434344",
"b  c #494745",
"n  c #4A4847",
"m  c #45474A",
"M  c #4B4B4B",
"N  c #545455",
"B  c #5C5C5C",
"V  c #605E5C",
"C  c #5E5F61",
"Z  c #5F6163",
"A  c #656464",
"S  c #696766",
"D  c #6C6C6C",
"F  c #737373",
"G  c #7D7D7E",
"H  c #003F80",
"J  c #044383",
"K  c #01468C",
"L  c #094988",
"P  c #004790",
"I  c #004E9D",
"U  c #0555A6",
"Y  c #0156AB",
"T  c #055AAF",
"R  c #015BB4",
"E  c #015EBB",
"W  c #0561BD",
"Q  c #7F7F81",
"!  c #0063C6",
"~  c #0064C8",
"^  c #0069D3",
"/  c #006EDC",
"(  c #006FE0",
")  c #0071E4",
"_  c #0074E9",
"`  c #7F8183",
"'  c #838383",
"]  c #858688",
"[  c #87888A",
"{  c #8B8B8C",
"}  c #8F8F90",
"|  c #939394",
" . c #97999B",
".. c #9A9B9C",
"X. c #9E9FA0",
"o. c #A3A3A3",
"O. c #ADACAD",
"+. c #AFAFB0",
"@. c #B3B3B4",
"#. c #B6B7B8",
"$. c #BBBCBC",
"%. c #BEBFC0",
"&. c #C3C4C5",
"*. c #C4C4C5",
"=. c #C6C6C6",
"-. c #C2C2C3",
";. c #C7C7C8",
":. c gray79",
">. c gray81",
",. c #CACACA",
"<. c #D0D0D0",
"1. c #D2D2D2",
"2. c #D6D6D6",
"3. c #D8D8D8",
"4. c #DADADA",
"5. c gray86",
"6. c gray87",
"7. c #DFDFDF",
"8. c #DDDDDD",
"9. c #E1E1E2",
"0. c gray89",
"q. c #E4E4E4",
"w. c #E6E6E6",
"e. c #E7E7E7",
"r. c #E3E3E3",
"t. c #EBEBEC",
"y. c gray93",
"u. c #EEEEEE",
"i. c #EFEFEF",
"p. c #EBEBEB",
"a. c gray94",
"s. c #F1F1F1",
"d. c #F3F3F3",
"f. c #F4F4F4",
"g. c #F6F6F5",
"h. c #F7F7F7",
"j. c #F4F4F4",
"k. c #F8F8F8",
"l. c #F9F9F9",
"z. c gray98",
"x. c #FBFBFB",
"c. c #FDFDFD",
"v. c #FEFEFE",
"b. c white",
"n. c #FEFEFE",
"m. c None",
"M. c black",
/* pixels */
"m.m.m.m.m.m.m.m.m.m.m.m.m.m.m.m.m.m.m.m.m.m.m.m.m.m.m.m.m.m.m.m.m.m.m.m.m.m.m.m.m.m.m.m.m.m.m.m.m.m.",
"m.m.m.m.m.m.m.m.m.m.m.m.m.m.m.m.m.m.m.m.m.m.m.m.m.m.m.m.m.m.m.m.m.m.m.m.m.m.m.m.m.m.m.m.m.m.m.m.m.m.",
"m.m.m.m.m.m.m.m.m.m.m.m.m.m.m.m.m.m.m.m.m.m.m.m.m.m.m.m.m.m.m.m.m.m.m.m.m.m.m.m.m.m.m.m.m.m.m.m.m.m.",
"m.m.m.m.m.m.m.m.m.m.m.m.m.m.m.m.m.m.m.m.m.m.m.m.m.m.m.m.m.m.m.m.m.m.m.m.m.m.m.m.m.m.m.m.m.m.m.m.m.m.",
"m.m.m.m.m.m.m.m.m.m.m.m.m.m.m.m.m.m.m.m.m.m.m.m.m.m.m.m.m.m.m.m.m.m.m.m.m.m.m.m.m.m.m.m.m.m.m.m.m.m.",
"m.m.m.m.m.m.m.m.m.m.m.m.m.m.m.m.m.m.m.m.m.m.m.m.m.m.m.m.m.m.m.m.m.m.m.m.m.m.m.m.m.m.m.m.m.m.m.m.m.m.",
"m.m.m.m.m.m.m.m.m.m.m.m.m.m.m.m.m.m.m.6 ; ; ; ; ; ; ; ; ; ; 5 m.m.m.m.m.m.m.m.m.m.m.m.m.m.m.m.m.m.m.",
"m.m.m.m.m.m.m.m.m.m.m.m.m.m.m.m.; - r $.<.>.>.>.>.>.>.>.>.<.-.m ; r m.m.m.m.m.m.m.m.m.m.m.m.m.m.m.m.",
"m.m.m.m.m.m.m.m.m.m.m.m.m.m.m.= F { ..f.b.b.b.b.b.b.b.b.b.b.z.o.{ G 5 m.m.m.m.m.m.m.m.m.m.m.m.m.m.m.",
"m.m.m.m.m.m.m.m.m.m.m.m.m.m.m.= #.b.b.b.b.b.b.b.b.b.b.b.b.b.b.b.b.&.= m.m.m.m.m.m.m.m.m.m.m.m.m.m.m.",
"m.m.m.m.m.m.m.m.m.m.m.m.m.m.m.; #.b.b.b.b.b.b.b.b.b.b.b.b.b.b.b.b.&.5 m.m.m.m.m.m.m.m.m.m.m.m.m.m.m.",
"m.m.m.m.m.m.m.m.m.m.m.m.m.m.M $.u.b.b.b.b.b.b.b.b.b.b.b.b.b.b.b.b.a.$.N m.m.m.m.m.m.m.m.m.m.m.m.m.m.",
"m.m.m.m.m.m.m.m.m.m.m.m.m.O r a.b.&.G M.G @.b.b.b.b.b.b.#.G ' G $.b.f.g   m.m.m.m.m.m.m.m.m.m.m.m.m.",
"m.m.m.m.m.m.m.m.m.m.m.m.m.O r a.b.]       A b.b.b.b.b.b.D       G b.f.v   m.m.m.m.m.m.m.m.m.m.m.m.m.",
"m.m.m.m.m.m.m.m.m.m.m.m.m.O r a.b.{       A b.b.z.z.b.b.F       ' b.f.v   m.m.m.m.m.m.m.m.m.m.m.m.m.",
"m.m.m.m.m.m.m.m.m.m.m.m.m.O r f.b.[       A b.b.{ ] b.b.D       G b.z.v   m.m.m.m.m.m.m.m.m.m.m.m.m.",
"m.m.m.m.m.m.m.m.m.m.m.m.m.m.g } w.&.G G D O.a...8 8 | u.O.D F F #.w.| r m.m.m.m.m.m.m.m.m.m.m.m.m.m.",
"m.m.m.m.m.m.m.m.m.m.m.m.m.m.m.$ #.f.5.b.b.b.9.v 8 8 r 5.b.b.b.6.u.-.= m.m.m.m.m.m.m.m.m.m.m.m.m.m.m.",
"m.m.m.m.m.m.m.m.m.m.m.m.m.; + + $.| r w.b.b.z.w.w.w.w.z.b.b.u.m { ;.= + + m.m.m.m.m.m.m.m.m.m.m.m.m.",
"m.m.m.m.m.m.m.m.m.m.m.m.m.O 5 X.t.] + N N N B N B B N B N N N + G u.o.8   m.m.m.m.m.m.m.m.m.m.m.m.m.",
"m.m.m.m.m.m.m.m.m.m.m.m.m.O r f.b.#.M . v e + N 5 ; N O e m . n @.b.z.v   m.m.m.m.m.m.m.m.m.m.m.m.m.",
"m.m.m.m.m.m.m.m.m.m.m.m.m.; m <.6.u.5.e o.[ ; &.N n :.5 G O.q <.a.6.2.M = m.m.m.m.m.m.m.m.m.m.m.m.m.",
"m.m.m.m.m.m.m.m.m.m.m.m.m.m.m.8 ; ] z.6.C = . ; + + ; . $ B 5.z.} ; 8 A m.m.m.m.m.m.m.m.m.m.m.m.m.m.",
"m.m.m.m.m.m.m.m.m.m.m.m.m.m.4 L > 9 S S ] .... ..... .....{ S S q : L c m.m.m.m.m.m.m.m.m.m.m.m.m.m.",
"m.m.m.m.m.m.m.m.m.m.m.m.m.3 l ) y       F @.O.O.O.O.O.O.+.G       2 ) l 1 m.m.m.m.m.m.m.m.m.m.m.m.m.",
"m.m.m.m.m.m.m.m.m.m.m.m.  z _ ^ u X +   = ; ; ; + + ; ; ; =   + + 3 ^ ) H ; m.m.m.m.m.m.m.m.m.m.m.m.",
"m.m.m.m.m.m.m.m.m.m.m.5   z ! 1 x N m + | 5.5.5.M m 2.5.5...O v N m 1 E J . ; m.m.m.m.m.m.m.m.m.m.m.",
"m.m.m.m.m.m.m.m.m.m.m.$ j R ^ L f b B r A F F F Q ` F F F A r B n 0 J ^ E j O m.m.m.m.m.m.m.m.m.m.m.",
"m.m.m.m.m.m.m.m.m.m.8 $ E _ / R h f n n = - v v #.-.v v ; = n n f d Y / _ W $ ; m.m.m.m.m.m.m.m.m.m.",
"m.m.m.m.m.m.m.m.m.O . # R _ E > Y J o #   A z.z.b.b.z.b.D   # o z T > R _ W * .   m.m.m.m.m.m.m.m.m.",
"m.m.m.m.m.m.m.m.m.+ 1 R / ) / E s l E E 2 S b.b.b.b.b.b.F < R E l s R / ) / E 2   m.m.m.m.m.m.m.m.m.",
"m.m.m.m.m.m.m.m.m.+ y ) ) ) ) ) K l K ) i q | u.b.b.a.| w t / P l K ) ) ) ) _ a   m.m.m.m.m.m.m.m.m.",
"m.m.m.m.m.m.m.m.m.m.u R / ) ) ) ~ z s / i = N w.b.b.e.N = y ^ s l ! ) ) ) / E i m.m.m.m.m.m.m.m.m.m.",
"m.m.m.m.m.m.m.m.m.m.m., R ) ) ) y j ) ) i V e.a.f.f.f.u.A t ( ) l 2 / ) ) W , m.m.m.m.m.m.m.m.m.m.m.",
"m.m.m.m.m.m.m.m.m.m.m.m.u 2 k ) t j ) ) i ; m m m m m m ; y ( _ l 1 ) k 2 p Z m.m.m.m.m.m.m.m.m.m.m.",
"m.m.m.m.m.m.m.m.m.m.m.m.m.. % H > j ) ) i                 y ( _ l % H >   8 m.m.m.m.m.m.m.m.m.m.m.m.",
"m.m.m.m.m.m.m.m.m.m.m.m.m.&     % z ) ) i                 y ( _ K %       m.m.m.m.m.m.m.m.m.m.m.m.m.",
"m.m.m.m.m.m.m.m.m.m.m.m.m.= X   I / ) ) i                 y / ) ( U X . + m.m.m.m.m.m.m.m.m.m.m.m.m.",
"m.m.m.m.m.m.m.m.m.m.m.m.m.m.r O 1 i i i #                 @ y i i 2 O r m.m.m.m.m.m.m.m.m.m.m.m.m.m.",
"m.m.m.m.m.m.m.m.m.m.m.m.m.m.m.= v B B B C C N +     + N Z C B B B m + m.m.m.m.m.m.m.m.m.m.m.m.m.m.m.",
"m.m.m.m.m.m.m.m.m.m.m.m.m.m.m.= #.b.b.b.b.b.6.5     - #.a.b.b.b.b.:.e m.m.m.m.m.m.m.m.m.m.m.m.m.m.m.",
"m.m.m.m.m.m.m.m.m.m.m.m.m.m.m.= #.b.b.b.b.b.6.5 m.m.O = ..b.b.b.b.f.5.v   m.m.m.m.m.m.m.m.m.m.m.m.m.",
"m.m.m.m.m.m.m.m.m.m.m.m.m.m.N o.e.b.b.b.b.b.9.5 m.m.v = q B B B B B B ;   m.m.m.m.m.m.m.m.m.m.m.m.m.",
"m.m.m.m.m.m.m.m.m.m.m.m.m.O 7 O.#.@.@.@.@.@...= m.m.m.;                 m.m.m.m.m.m.m.m.m.m.m.m.m.m.",
"m.m.m.m.m.m.m.m.m.m.m.m.m.m.  . . . . . . . .   m.m.m.m.m.m.m.m.m.m.m.m.m.m.m.m.m.m.m.m.m.m.m.m.m.m.",
"m.m.m.m.m.m.m.m.m.m.m.m.m.m.m.m.m.m.m.m.m.m.m.m.m.m.m.m.m.m.m.m.m.m.m.m.m.m.m.m.m.m.m.m.m.m.m.m.m.m.",
"m.m.m.m.m.m.m.m.m.m.m.m.m.m.m.m.m.m.m.m.m.m.m.m.m.m.m.m.m.m.m.m.m.m.m.m.m.m.m.m.m.m.m.m.m.m.m.m.m.m.",
"m.m.m.m.m.m.m.m.m.m.m.m.m.m.m.m.m.m.m.m.m.m.m.m.m.m.m.m.m.m.m.m.m.m.m.m.m.m.m.m.m.m.m.m.m.m.m.m.m.m.",
"m.m.m.m.m.m.m.m.m.m.m.m.m.m.m.m.m.m.m.m.m.m.m.m.m.m.m.m.m.m.m.m.m.m.m.m.m.m.m.m.m.m.m.m.m.m.m.m.m.m.",
"m.m.m.m.m.m.m.m.m.m.m.m.m.m.m.m.m.m.m.m.m.m.m.m.m.m.m.m.m.m.m.m.m.m.m.m.m.m.m.m.m.m.m.m.m.m.m.m.m.m."
};
