/* XPM */
static char *_4de421d84c146f38e87fea6b9aea8c9SDcbzLQqAB3BKICe[] = {
/* columns rows colors chars-per-pixel */
"50 50 153 2 ",
"   c None",
".  c #010102",
"X  c #02050A",
"o  c #070809",
"O  c #0B0C0D",
"+  c #000913",
"@  c #0C0E11",
"#  c #010E1D",
"$  c #0D1014",
"%  c #02101E",
"&  c #131314",
"*  c #151618",
"=  c #171818",
"-  c #1B1B1C",
";  c #001225",
":  c #03162B",
">  c #04182C",
",  c #1C1D20",
"<  c #061C32",
"1  c #001E3C",
"2  c #1E2022",
"3  c #03203E",
"4  c #13273C",
"5  c #232323",
"6  c #292726",
"7  c #2B2B2C",
"8  c #2D2E30",
"9  c #302F30",
"0  c #2F3031",
"q  c #333334",
"w  c #373739",
"e  c #3C3C3C",
"r  c #403E3D",
"t  c #012244",
"y  c #00244B",
"u  c #05284B",
"i  c #19324B",
"p  c #052C54",
"a  c #002D5B",
"s  c #073059",
"d  c #293949",
"f  c #3C3E41",
"g  c #023466",
"h  c #02366B",
"j  c #043B73",
"k  c #083F76",
"l  c #053E79",
"z  c #05417C",
"x  c #444445",
"c  c #464749",
"v  c #47484A",
"b  c #4A4A4B",
"n  c #4F4F50",
"m  c #4F5051",
"M  c #535353",
"N  c #555658",
"B  c #575859",
"V  c #5A5B5B",
"C  c #5F5F60",
"Z  c #636364",
"A  c #676768",
"S  c #676869",
"D  c #6B6B6C",
"F  c #6E6F70",
"G  c #737374",
"H  c #7D7D7D",
"J  c #034485",
"K  c #05488C",
"L  c #004792",
"P  c #004993",
"I  c #004C99",
"U  c #07539F",
"Y  c #0253A3",
"T  c #0456A8",
"R  c #0A5AAA",
"E  c #015BB4",
"W  c #015DBB",
"Q  c #0461BD",
"!  c #7F7F80",
"~  c #0363C3",
"^  c #0166CB",
"/  c #026CD7",
"(  c #016DD9",
")  c #0071E4",
"_  c #0074EA",
"`  c #818182",
"'  c #8B8B8B",
"]  c #8F9090",
"[  c #929293",
"{  c #969798",
"}  c #9A9A9A",
"|  c #A3A3A3",
" . c #A7A8A9",
".. c #ABACAC",
"X. c #B2B3B3",
"o. c #B6B7B8",
"O. c gray",
"+. c #BCBCBC",
"@. c #BABABA",
"#. c #BFBFC0",
"$. c #C0C0C1",
"%. c gray76",
"&. c gray77",
"*. c #C5C5C5",
"=. c #C5C5C6",
"-. c #C6C6C6",
";. c gray76",
":. c gray79",
">. c #CACACA",
",. c #CBCBCB",
"<. c #CFCFCF",
"1. c #CBCBCC",
"2. c #D0D0D0",
"3. c #D5D5D5",
"4. c #D5D5D6",
"5. c #D5D6D6",
"6. c #D7D7D7",
"7. c gray84",
"8. c #D8D8D8",
"9. c #DADADB",
"0. c #DDDDDD",
"q. c #DFDFDF",
"w. c #DDDDDD",
"e. c gray88",
"r. c #E3E3E3",
"t. c gray90",
"y. c #E4E4E4",
"u. c #E6E6E6",
"i. c #E6E6E5",
"p. c gray91",
"a. c #E9E9E9",
"s. c #EAEAEA",
"d. c #ECECEC",
"f. c gray93",
"g. c #EDEEEE",
"h. c #EEEEEE",
"j. c #EBEBEB",
"k. c gray94",
"l. c #F1F1F1",
"z. c gray95",
"x. c #F3F3F3",
"c. c #F4F4F4",
"v. c #F6F6F6",
"b. c gray97",
"n. c #F4F4F4",
"m. c #F9F9F9",
"M. c gray98",
"N. c #FBFBFB",
"B. c gray99",
"V. c #FDFDFD",
"C. c #FEFEFE",
"Z. c white",
"A. c #FCFCFC",
/* pixels */
"                                                                                                    ",
"                                                                                                    ",
"                                                                                                    ",
"                                                                                                    ",
"                                                                                                    ",
"                                      & . . . . . . . . . . o                                       ",
"                                    f A A A A A A A A A A A A f                                     ",
"                                0 2 c a.Z.Z.Z.Z.Z.Z.Z.Z.Z.Z.l.M - x                                 ",
"                              7  .r.r.Z.Z.Z.Z.Z.Z.Z.Z.Z.Z.Z.Z.y.r.X.7                               ",
"                              O o.Z.Z.Z.Z.Z.Z.Z.Z.Z.Z.Z.Z.Z.Z.Z.Z.&.&                               ",
"                            b Z 2.Z.Z.Z.Z.Z.Z.Z.Z.Z.Z.Z.Z.Z.Z.Z.Z.3.Z x                             ",
"                          O w h.Z.Z.N.a.y.y.a.N.Z.Z.Z.Z.Z.Z.Z.Z.Z.Z.l.c .                           ",
"                          @ w h.Z.Z.9.e 7 7 x r.Z.Z.Z.Z.Z.Z.Z.Z.Z.Z.b.x .                           ",
"                          * w l.Z.Z.3.= . . - q.Z.Z.Z.Z.Z.Z.Z.Z.Z.Z.N.c .                           ",
"                          @ 7 ..h.Z.3.= . . 5 q.Z.Z.Z.Z.Z.Z.Z.Z.Z.h.X.q .                           ",
"                          , O O ..Z.3.7 & & 7 q.Z.Z.Z.l.h.l.Z.Z.N.o.& O O                           ",
"                            M O 2 [ b.<.:.:.<.b.Z.Z.a.M 7 D Z.Z.} 5 o w                             ",
"                            c ` H +.Z.Z.Z.Z.Z.Z... .b.[ H H ` H H C O                               ",
"                          @ 7 +.:.&.&.&.&.&.&.&.c e &.b.Z.+.o 7 | :.&                               ",
"                          $ . O & & & = & & = @ O O 7 3.Z.+.= +.n.+.-                               ",
"                          $ . . ] D , ..e b  .& G #.%.l.Z.+.O w x M                                 ",
"                            & o D b & ! 7 w ' G :.Z.Z.Z.%.A o 5 & 6                                 ",
"                              & 5 9 q 7 8 7 c y.Z.Z.N.9.V . = N e q                                 ",
"                              &  .a.y.y.y.y.a.b.N.N.y.e o - V Z Z b =                               ",
"                              & e M M M M M M M M M m v c n A A A V c e                             ",
"                              & . . . . x e . . & 5 7 V M e e e e e e O .                           ",
"                                  7 O . { ' @ O x Z N B 6 X ; ; + . . = -                           ",
"                                @ q n O & w V V Z c O O . 1 ^ / h . o                               ",
"                                . @ e [  .F 7 V r & X J 3 1 ) ) Q j o                               ",
"                                . . 7 a.<.A . e i y a I j l ) ) _ ~ s 4                             ",
"                                = O 7 r.A - = . P ) ~ 1 z ( ) ) ) ) ) t .                           ",
"                                  8 7 y.y.q.%.- L T < E g p ) ) ) ) ) t .                           ",
"                                    & A D D Z O P U # ^ E k h ^ ) ^ h # .                           ",
"                                  , . . 7 b e o P U % ^ _ Q u ~ _ E o .                             ",
"                                  , . . } h.:.- L Y : W ( / / / ( R 2                               ",
"                                  , . . 5 q 7 . P ) E t : > > > : d                                 ",
"                                  * . . . . . . y Y ) K k l l z 1 6                                 ",
"                                    O . . . . . . 1 E E E E E W g 5                                 ",
"                                      & . . . . . . X X X X X @ $                                   ",
"                                      & . . . . . . . . . . O b                                     ",
"                                      & . . . . c G S & O - 2                                       ",
"                                      & . & q q X.Z.h.M 6                                           ",
"                                    o o . Z h.a.l.N.b.h.A 7                                         ",
"                                  @ 5  .+.3.a.Z b b b b , 7                                         ",
"                                    f } | | ' & O @ O O @ f                                         ",
"                                      & . . . .                                                     ",
"                                                                                                    ",
"                                                                                                    ",
"                                                                                                    ",
"                                                                                                    "
};
