/* XPM */
static char *_802119c006f4f8bae82374183ac45feJbWrU7GpGWfajSRl[] = {
/* columns rows colors chars-per-pixel */
"50 50 144 2 ",
"   c None",
".  c #010101",
"X  c #090605",
"o  c #030609",
"O  c #06090C",
"+  c #0B0B0C",
"@  c #000710",
"#  c #0E0F11",
"$  c #000C19",
"%  c #0E1114",
"&  c #131314",
"*  c #171719",
"=  c #171819",
"-  c #1A1A1B",
";  c #001225",
":  c #02162B",
">  c #04182C",
",  c #1D1E20",
"<  c #011B36",
"1  c #031F3C",
"2  c #1F2022",
"3  c #232324",
"4  c #272728",
"5  c #2C2C2C",
"6  c #32302F",
"7  c #2F2F30",
"8  c #2F3031",
"9  c #323233",
"0  c #363739",
"q  c #3B3B3C",
"w  c #012243",
"e  c #00264D",
"r  c #18314B",
"t  c #022D5A",
"y  c #0A3058",
"u  c #2B3B4B",
"i  c #3E3F40",
"p  c #023365",
"a  c #053768",
"s  c #003770",
"d  c #043D75",
"f  c #053F7A",
"g  c #3F4041",
"h  c #07417A",
"j  c #424344",
"k  c #464748",
"l  c #464849",
"z  c #4B4B4C",
"x  c #4C4E50",
"c  c #4F5051",
"v  c #535353",
"b  c #575859",
"n  c #5C5C5C",
"m  c #5E5F60",
"M  c #5F6061",
"N  c #636364",
"B  c #6B6B6C",
"V  c #6F6F70",
"C  c #737374",
"Z  c #767778",
"A  c #7C7D7E",
"S  c #034484",
"D  c #004B96",
"F  c #004D9A",
"G  c #0252A3",
"H  c #0055AA",
"J  c #005AB5",
"K  c #005CBA",
"L  c #0260BE",
"P  c #7F7F80",
"I  c #0061C4",
"U  c #0065CB",
"Y  c #0067D0",
"T  c #016BD5",
"R  c #016EDB",
"E  c #0070DF",
"W  c #006FE0",
"Q  c #0072E4",
"!  c #0075EA",
"~  c #838484",
"^  c #8D8D8D",
"/  c #949495",
"(  c #9B9C9D",
")  c #9FA0A2",
"_  c #A4A4A5",
"`  c #A5A6A8",
"'  c #ABACAD",
"]  c #AFAFB0",
"[  c #AEB0B1",
"{  c #B1B3B4",
"}  c #B7B8B9",
"|  c gray75",
" . c #BEBFBF",
".. c gray74",
"X. c #BBBCBD",
"o. c #BEBFC0",
"O. c #C1C1C2",
"+. c #C2C3C4",
"@. c gray77",
"#. c #C6C6C6",
"$. c #C4C4C4",
"%. c gray79",
"&. c #CACACA",
"*. c #CACACB",
"=. c gray80",
"-. c #CDCDCD",
";. c #CECECF",
":. c #CACACA",
">. c #CFD0D0",
",. c gray82",
"<. c #D1D2D2",
"1. c #D3D4D5",
"2. c gray83",
"3. c #D5D5D6",
"4. c gray83",
"5. c gainsboro",
"6. c gray87",
"7. c #DDDDDD",
"8. c gray88",
"9. c #E2E2E2",
"0. c gray89",
"q. c #E4E4E4",
"w. c #E6E6E6",
"e. c #E7E7E7",
"r. c #E6E6E6",
"t. c #E9E9E9",
"y. c #EAEAEA",
"u. c #ECECEC",
"i. c gray93",
"p. c #EEEEEE",
"a. c #EDECEC",
"s. c gray94",
"d. c #F3F3F3",
"f. c #F4F4F4",
"g. c #F6F6F6",
"h. c #F7F7F6",
"j. c #F4F4F4",
"k. c #F8F8F8",
"l. c #F9F9F9",
"z. c gray98",
"x. c gray99",
"c. c #FDFDFD",
"v. c white",
"b. c #FEFEFE",
/* pixels */
"                                                                                                    ",
"                                                                                                    ",
"                                                                                                    ",
"                                                                                                    ",
"                                                                                                    ",
"                                      + . . . . . . . . . . +                                       ",
"                                    j B N N N N N N N N N N N i                                     ",
"                                j , z i.v.v.v.v.v.v.v.v.v.v.i.z , j                                 ",
"                              5 ' 0.0.v.v.v.v.v.v.v.v.v.v.v.v.0.0.' 4                               ",
"                              & X.v.v.v.v.v.v.v.v.v.v.v.v.v.v.v.v.X.%                               ",
"                            x N <.v.v.v.v.v.v.v.v.v.v.v.v.v.v.v.v.1.N z                             ",
"                          O 0 i.v.v.v.v.v.v.v.v.v.v.v.t.e.e.e.z.v.v.d.g .                           ",
"                          O 0 d.v.v.v.v.v.v.v.v.v.v.e.z 5 5 0 2.v.v.d.q .                           ",
"                          . 0 d.v.v.v.v.v.v.v.v.v.v.0.3 . . & =.v.v.f.i .                           ",
"                          . 5 ' i.v.v.v.v.v.v.v.v.v.0.4 . . & =.v.i.{ 5 .                           ",
"                          & + # { z.v.v.d.i.d.v.v.v.e.9 & & 3 =.v.{ & + &                           ",
"                            q + 3 / v.v.C 5 z e.v.v.z.<.%.%.=.f./ 3 O j                             ",
"                              & n A A P A A / d.' ' v.v.v.v.v.v...A ~ z                             ",
"                              * +._ 5 O { v.z.%.j j @.@.@.@.@.@.@.%...8 .                           ",
"                              , } f...= [ v.6.9 + + # * & & = % & & + . o                           ",
"                                j j 9 + { v.f.O...Z & _ v 0 ] 4 N / O . o                           ",
"                                . & 3 o M ..v.v.v.=.C ^ 0 4 ~ = z B + #                             ",
"                                & 0 b = . b 2.z.v.v.t.z 5 7 5 9 9 3 +                               ",
"                              = k N N n - O 9 6.v.z.z.t.e.e.e.e.t.' &                               ",
"                            0 k n N N N c l k z v v v b v v b b b q +                               ",
"                          . + q q q q q q x n 5 3 & . . 0 j . . . . &                               ",
"                          - & . . @ ; ; o 4 b b N k + + ~ ( o + =                                   ",
"                            N + . p T Y w X + + j N b b 0 & + z 9 9                                 ",
"                              & a L Q Q w 1 S o & q M 7 B _ / j + 5                                 ",
"                            u y I ! Q Q f s D t e r q O m %.i.9 . 5                                 ",
"                          X < R Q Q Q Q R S < L Q D o = - N e.9 + j                                 ",
"                          X < E Q Q Q Q t p J < G D = ..6.e.t.9 -                                   ",
"                          o $ p I Q Y s d J U $ D D + n B B N &                                     ",
"                            + . H ! U e J ! U $ D D + q z 7 . . &                                   ",
"                              , G R R T T R L : F D = @.i.) o . +                                   ",
"                                u : > > > > w J W D o 5 9 3 . . +                                   ",
"                                5 < h f f d S R G e . . . . . . = k z                               ",
"                                6 t K J J J J J w . . . . . o 9 q 5 +                               ",
"                                9 O % % O o o o . . . . + + - %.v.} &                               ",
"                                7 n @.O.q . . . . . . . B @.@.f.v.o.&                               ",
"                                5 Z v.v.v . + 3 = & # N @.v.z._ ^ ~ 0                               ",
"                                z C >.=.N 5 i       2 6.v.d.O.9 . 4                                 ",
"                                  q = & ` i.%.,     4 2.v.{ 5                                       ",
"                                    z + 9 z j +     B b k N V                                       ",
"                                      , O O O #       2 o q                                         ",
"                                                                                                    ",
"                                                                                              i.    ",
"                                                                                                    ",
"                                                                                                    ",
"                                                                                                    "
};
