/* XPM */
static char *c0f09516f8494ceda9fec2fb65bd31bboVS30fUYnBIb8jl8[] = {
/* columns rows colors chars-per-pixel */
"50 50 166 2 ",
"   c None",
".  c #010101",
"X  c #090705",
"o  c #0A0807",
"O  c #03060A",
"+  c #07080A",
"@  c #0B0B0C",
"#  c #100E0D",
"$  c #000710",
"%  c #020A13",
"&  c #0F0F10",
"*  c #010E1B",
"=  c #0F1216",
"-  c #0A111A",
";  c #141414",
":  c #161718",
">  c #1A1A1B",
",  c #031324",
"<  c #0A1623",
"1  c #00152B",
"2  c #1F1F20",
"3  c #031B33",
"4  c #001D3C",
"5  c #1E2023",
"6  c #12202E",
"7  c #192029",
"8  c #072038",
"9  c #242324",
"0  c #272728",
"q  c #27282B",
"w  c #2A2A2B",
"e  c #312E2C",
"r  c #272D34",
"t  c #2E2F30",
"y  c #222F3D",
"u  c #2F3133",
"i  c #343435",
"p  c #383737",
"a  c #343639",
"s  c #3A3A3B",
"d  c #001F41",
"f  c #022243",
"g  c #01274E",
"h  c #182C40",
"j  c #052D55",
"k  c #002C59",
"l  c #163655",
"z  c #13375B",
"x  c #183858",
"c  c #2B3641",
"v  c #24374B",
"b  c #3E3F41",
"n  c #273C52",
"m  c #002F60",
"M  c #023263",
"N  c #02366A",
"B  c #123A64",
"V  c #013A74",
"C  c #023E7B",
"Z  c #06417D",
"A  c #434344",
"S  c #4A4745",
"D  c #464749",
"F  c #47494A",
"G  c #4C4C4D",
"H  c #464B51",
"J  c #535354",
"K  c #56585B",
"L  c #5A5B5C",
"P  c #5E5F61",
"I  c #5F6061",
"U  c #636364",
"Y  c #6C6D6D",
"T  c #6E6F71",
"R  c #737374",
"E  c #777778",
"W  c #777879",
"Q  c #7D7D7E",
"!  c #004183",
"~  c #00458A",
"^  c #104F8F",
"/  c #004993",
"(  c #004E9C",
")  c #05519D",
"_  c #0C539B",
"`  c #004FA0",
"'  c #0051A2",
"]  c #0156AD",
"[  c #0057B0",
"{  c #005AB5",
"}  c #015DBB",
"|  c #0461BD",
" . c #7F7F80",
".. c #005FC0",
"X. c #0162C3",
"o. c #0265C9",
"O. c #016AD4",
"+. c #006EDC",
"@. c #0071E4",
"#. c #0074E9",
"$. c #828282",
"%. c #8A8A8B",
"&. c #8D8E90",
"*. c #959595",
"=. c #959799",
"-. c #979899",
";. c #9A9A9B",
":. c #A2A2A3",
">. c #ACACAC",
",. c #AEAFB0",
"<. c #AFB0B2",
"1. c #B2B3B3",
"2. c #BDBDBE",
"3. c #BFBFBF",
"4. c #BCBCBC",
"5. c #BCBCBD",
"6. c #C0C0C0",
"7. c #C1C1C1",
"8. c #C3C3C3",
"9. c #C6C6C6",
"0. c #C3C3C3",
"q. c #C9C9C9",
"w. c #CBCBCB",
"e. c #C8C9CA",
"r. c #CBCBCC",
"t. c #CFCFCF",
"y. c #CDCDCE",
"u. c #CDCDCE",
"i. c gray82",
"p. c #D7D7D7",
"a. c #D3D3D3",
"s. c #DBDBDB",
"d. c #DDDDDD",
"f. c gainsboro",
"g. c #DEDEDF",
"h. c #DCDCDD",
"j. c #E2E2E2",
"k. c #E7E7E7",
"l. c #E4E4E5",
"z. c #E1E1E1",
"x. c #E7E7E8",
"c. c gray91",
"v. c #E9E9E9",
"b. c #E8E8E9",
"n. c #EAEAEB",
"m. c #ECEDED",
"M. c #EEEEEE",
"N. c #EDEDEE",
"B. c #EDEDED",
"V. c #F0F0F1",
"C. c #F3F3F3",
"Z. c gray95",
"A. c gray96",
"S. c #F4F4F4",
"D. c gray97",
"F. c #F6F6F6",
"G. c #F3F3F3",
"H. c #F7F7F8",
"J. c #F8F8F8",
"K. c #F9F9F9",
"L. c gray98",
"P. c #FBFBFB",
"I. c #FDFDFD",
"U. c #FEFEFE",
"Y. c white",
"T. c #FFFFFF",
/* pixels */
"                                                                                                    ",
"                                                                                                    ",
"                                  R 9 ; ; ; ; ; ; ; ; ; ; ; ; 0                                     ",
"                              9 9 L 1.4.4.4.4.4.4.4.4.4.4.4.4.>.b : 0                               ",
"                            J G A $.L.U.U.U.U.U.U.U.U.U.U.U.U.v.U A G P                             ",
"                          > Y D.D.L.U.U.U.U.U.U.U.U.U.U.U.U.U.U.L.D.v.A 0                           ",
"                          ; Y U.U.U.U.U.U.U.U.U.U.U.U.U.U.U.U.U.U.U.V.s >                           ",
"                          s  .U.U.U.U.U.U.U.U.U.U.U.U.U.U.U.U.U.U.U.D.L A                           ",
"                      J s 9.M.U.U.U.U.U.U.U.U.U.U.U.U.U.U.U.U.U.U.U.U.v.>.0                         ",
"                      A 0 d.U.D.;.$.$.$.;.V.U.U.U.U.U.U.k.%.$.$.$.,.U.U.8.; a                       ",
"                      p 0 d.U.M.p . . . w v.U.U.U.U.U.U.w.; . . . L L.U.4.: i                       ",
"                      p 0 d.U.M.p . . . t v.U.U.U.U.U.U.r.; . . . L L.U.4.:                         ",
"                      w 0 d.U.M.p . . . w v.U.L.4.w.U.U.w.; . . . L L.U.8.:                         ",
"                      i w p.U.M.s O + O p v.U.k.s L D.U.u.> O + O P L.U.4.>                         ",
"                        U J -.L.8.1.1.1.4.D.:.A @ : J 9.V.1.1.1.1.u.D.W L U                         ",
"                          ; Y L.p.s.U.U.U.U.*.i p p s 4.U.U.U.L.i.d.V.s :                           ",
"                      p @ . Y M.A L D.U.U.U.V.v.v.v.v.L.U.U.U.j.s U M.s . ;                         ",
"                      0 ; T 1.M.i 9 Q Q Q $.$.$.$.$. .$. .Q $.R ; K D.:.P @ a                       ",
"                      0 0 d.U.V.G ; . ; ; . @ : O + : + O : @ . ; Y L.U.8.:                         ",
"                      0 0 d.U.U.j.*.@ %.1.; Y w.w G u.A q w.U : 1.x.U.U.8.:                         ",
"                        G *.;.:.M.u.Y $.$.@ J *.9 p *.i 2 *.Q E k.s.;.;.%.i                         ",
"                          5 + ; 8.D.M.U + + @ @ + + @ + + @ %.V.H.;.+ + q                           ",
"                      S y _ M O s J J %.1.,.<.<.<.<.<.<.<.<.W G J p O Z ^ r                         ",
"                      v k +.~ . . . . E 8.4.4.4.4.4.4.4.4.4.J . . . O { X.g n                       ",
"                    + ~ @.#.~ . . . . @ @ @ @ @ @ @ @ @ @ @ + . . . O { #.+.M :                     ",
"                  ; . ~ O.V x s s w O L ;.*.*.%.> i *.*.*.*.A + p s s z ! +.m + s                   ",
"                & O * / o.3 r L U F ; *.j.d.j.i.D U d.j.g.j.Y ; J U J 7 g +.V * O s                 ",
"                # 3 | +.@.O.Z ; J U J s 0 9 9 t <.*.0 9 9 0 A L U A = ) O.@.O.] % s                 ",
"                X 8 +.@.+./ C N c p p ; ; U Y E j.u.Y R L + > p p v N ! ( +.@.O.C B                 ",
"              O O f +.@.X., M O.4 O $ . t v.U.U.U.U.U.U.u.; O $ O k O.f f +.@.@.#.~ +               ",
"              % ~ X.@.@.+.} C f ( { ] d e M.U.U.U.U.U.U.u.; M { { ~ f / X.@.@.@.#.~ @               ",
"              % { #.@.@.@.#.` f / ..@.k 9 >.d.U.U.U.U.i.;.; ! #.} ! f } #.@.@.@.#.~ @               ",
"              - { @.@.@.@.@.@.O.4 g +.k . & $.U.U.U.D.L @ . ! O.3 j +.@.@.@.@.@.@.~ +               ",
"              H x V @.@.@.@.] k ! ] @.k > *.i.U.U.U.U.9.$.@ ! @.' C k X.@.@.@.O.M l                 ",
"                e h } X.o.@.~ O } #.@.k 0 8.p.i.i.i.i.p.>.; ! #.#./ O [ @.X.X.{ <                   ",
"                    , * d +.~ % { @.@.k O > 2 2 2 2 2 9 : . ! #.#./ $ { X.1 * 6                     ",
"                    0 @ % V g % { @.@.k . . . . . . . . . . ! #.#./ O M M O : i                     ",
"                      ; . . O , } @.@.k . . . . . . . . . . ! #.@.( * . . O                         ",
"                        . . j X.+.#.@.k . . . . . . . . . . ! #.#.+.} 3 . O b                       ",
"                      @ . . f ' ( ( ( 4 . . . . . . . . . . k ' ( ' ( 1 . . 0                       ",
"                    + . . . . O O O O . . . . . . . . . . . . O O O O . . . O ;                     ",
"                    O . . . . . . . . . . . . +   : . . . . . . . . . . . . . ;                     ",
"                    ; O + i s s s s s s t O @ :     : + @ p s s s s s s w O @ >                     ",
"                      ; 0 u.M.M.M.M.M.V.8.: i         9 t s.M.M.M.M.M.V.1.; p                       ",
"                      + 0 d.U.U.U.U.U.U.i.: i         w u v.U.U.U.U.U.U.4.; &                       ",
"                + + ; ; s j.U.U.U.U.U.V.4.; w         0 w a.D.U.U.U.U.U.8.0 ; ; + 0                 ",
"                O p 9.i.s.U.U.U.U.U.U.Q 9 + 0         0 + 0 :.U.U.U.U.U.D.p.i.1.> 0                 ",
"                  J =.;.;.=.=.=.=.=.=.I @ :             @ ; E -.=.=.=.=.-.;.;.&.p                   ",
"                    @ + + + + + + + @                       i + + + + + + + + :                     ",
"                                                                                                    "
};
