/* XPM */
static const char *aGVyb3MtZm9jb2NsaXBwaW5nLXN0YW5kYXJkKyUyODQlMjk_[] = {
/* columns rows colors chars-per-pixel */
"50 50 141 2 ",
"   c #010101",
".  c #0A0807",
"X  c #03060A",
"o  c #080708",
"O  c #05080B",
"+  c #0C0C0D",
"@  c #000A15",
"#  c #0D0E11",
"$  c #010E1C",
"%  c #0D1115",
"&  c #0D1219",
"*  c #141415",
"=  c #161718",
"-  c #17191B",
";  c #1A1A1C",
":  c #211F1E",
">  c #011123",
",  c #04172B",
"<  c #1E1E20",
"1  c #001A36",
"2  c #011C39",
"3  c #03203F",
"4  c #09213A",
"5  c #232324",
"6  c #292727",
"7  c #2A2A2B",
"8  c #32312F",
"9  c #2D2F31",
"0  c #2F3031",
"q  c #333333",
"w  c #363638",
"e  c #373A3E",
"r  c #3B3B3C",
"t  c #002243",
"y  c #0B2541",
"u  c #00254C",
"i  c #152F49",
"p  c #022952",
"a  c #022E5B",
"s  c #0B3056",
"d  c #02305F",
"f  c #173553",
"g  c #2E3741",
"h  c #323A43",
"j  c #3E3F40",
"k  c #013366",
"l  c #003468",
"z  c #103861",
"x  c #003972",
"c  c #023E7B",
"v  c #3F4041",
"b  c #3D434A",
"n  c #394856",
"m  c #444445",
"M  c #444649",
"N  c #474849",
"B  c #4C4C4C",
"V  c #504F4E",
"C  c #525152",
"Z  c #575859",
"A  c #5B5B5C",
"S  c #636363",
"D  c #676768",
"F  c #6B6B6C",
"G  c #6F7070",
"H  c #737374",
"J  c #777778",
"K  c #7C7C7D",
"L  c #014283",
"P  c #014589",
"I  c #03498E",
"U  c #004A94",
"Y  c #004D9B",
"T  c #01509E",
"R  c #0A529A",
"E  c #0152A3",
"W  c #0057AD",
"Q  c #015BB5",
"!  c #005EBC",
"~  c #0063C6",
"^  c #0066CC",
"/  c #006AD4",
"(  c #006EDD",
")  c #006FE0",
"_  c #0071E3",
"`  c #0074EA",
"'  c #828283",
"]  c #86888A",
"[  c #8B8B8C",
"{  c #8E8F90",
"}  c #939494",
"|  c #A5A5A5",
" . c #A7A8A9",
".. c #B3B4B5",
"X. c #B5B5B6",
"o. c #B5B6B7",
"O. c #B6B6B7",
"+. c #B7B8B9",
"@. c #B8B8B9",
"#. c #BEBEBF",
"$. c #BEBEBE",
"%. c #C1C1C2",
"&. c gray77",
"*. c #C5C6C7",
"=. c #C6C6C6",
"-. c gray78",
";. c #C2C2C3",
":. c #C8C8C8",
">. c #CACACA",
",. c #CACBCB",
"<. c #D2D2D2",
"1. c #D2D2D3",
"2. c #D2D3D3",
"3. c #D3D4D5",
"4. c #D7D7D7",
"5. c gray83",
"6. c #D8D8D8",
"7. c gray85",
"8. c #DFDFDF",
"9. c #DCDCDD",
"0. c gray90",
"q. c #E7E7E7",
"w. c gray89",
"e. c #E9E9E9",
"r. c #EAEAEA",
"t. c gray92",
"y. c gray93",
"u. c #E9E9E9",
"i. c gray94",
"p. c #F4F4F4",
"a. c gray96",
"s. c #F6F6F6",
"d. c #F9F9F9",
"f. c gray98",
"g. c #FBFBFB",
"h. c gray99",
"j. c #FEFEFE",
"k. c white",
"l. c #FFFFFF",
"z. c None",
"x. c black",
/* pixels */
"z.z.z.z.z.z.z.z.z.z.z.z.z.z.z.z.z.z.z.z.z.z.z.z.z.z.z.z.z.z.z.z.z.z.z.z.z.z.z.z.z.z.z.z.z.z.z.z.z.z.",
"z.z.z.z.z.z.z.z.z.z.z.z.z.z.z.z.z.z.z.z.z.z.z.z.z.z.z.z.z.z.z.z.z.z.z.z.z.z.z.z.z.z.z.z.z.z.z.z.z.z.",
"z.z.z.z.z.z.z.z.z.z.z.z.z.z.z.z.z.z.z.z.z.z.z.z.z.z.z.z.z.z.z.z.z.z.z.z.z.z.z.z.z.z.z.z.z.z.z.z.z.z.",
"z.z.z.z.z.z.z.z.z.z.z.z.z.z.z.z.z.z.z.z.z.z.z.z.z.z.z.z.z.z.z.z.z.z.z.z.z.z.z.z.z.z.z.z.z.z.z.z.z.z.",
"z.z.z.z.z.z.z.z.z.z.z.z.z.z.z.z.z.z.z.z.z.z.z.z.z.z.z.z.z.z.z.z.z.z.z.z.z.z.z.z.z.z.z.z.z.z.z.z.z.z.",
"z.z.z.z.z.z.z.z.z.z.z.z.z.z.z.z.z.z.7 = = = = = = = = = = = m z.z.z.z.z.z.z.z.z.z.z.z.z.z.z.z.z.z.z.",
"z.z.z.z.z.z.z.z.z.z.z.z.z.z.z.z.7 ; K =.=.=.=.=.=.=.=.=.=.=.{ 6 6 z.z.z.z.z.z.z.z.z.z.z.z.z.z.z.z.z.",
"z.z.z.z.z.z.z.z.z.z.z.z.z.z.z.m K K %.k.k.k.k.k.k.k.k.k.k.k.2.K K B z.z.z.z.z.z.z.z.z.z.z.z.z.z.z.z.",
"z.z.z.z.z.z.z.z.z.z.z.z.z.z.X m d.k.k.k.k.k.k.k.k.k.k.k.k.k.k.k.k.F 6 z.z.z.z.z.z.z.z.z.z.z.z.z.z.z.",
"z.z.z.z.z.z.z.z.z.z.z.z.z.z.- N a.k.k.k.k.k.k.k.k.k.k.k.k.k.k.k.k.H q z.z.z.z.z.z.z.z.z.z.z.z.z.z.z.",
"z.z.z.z.z.z.z.z.z.z.z.z.z.m ' ,.k.k.k.k.k.k.k.k.k.k.k.k.k.k.k.k.k.6.} r z.z.z.z.z.z.z.z.z.z.z.z.z.z.",
"z.z.z.z.z.z.z.z.z.z.z.z.z.< } k.k.k.k.k.k.k.k.k.k.k.k.k.k.k.k.k.k.k.o.* z.z.z.z.z.z.z.z.z.z.z.z.z.z.",
"z.z.z.z.z.z.z.z.z.z.z.z.z.5 } k.k.k.k.k.k.k.k.k.k.k.k.k.k.k.k.k.k.k...* z.z.z.z.z.z.z.z.z.z.z.z.z.z.",
"z.z.z.z.z.z.z.z.z.z.z.z.z.5 } k.k.k.k.k.k.k.k.k.k.k.k.k.k.k.k.k.k.k...* z.z.z.z.z.z.z.z.z.z.z.z.z.z.",
"z.z.z.z.z.z.z.z.z.z.z.z.z.5 } k.k.k.k.k.k.k.k.k.k.k.k.k.k.k.k.k.k.k.o.* z.z.z.z.z.z.z.z.z.z.z.z.z.z.",
"z.z.z.z.z.z.z.z.z.z.z.z.z.5 F @.d.k.k.k.k.k.k.k.k.k.k.k.k.k.k.k.k.,.K # z.z.z.z.z.z.z.z.z.z.z.z.z.z.",
"z.z.z.z.z.z.z.z.z.z.z.z.z.z.# m a.k.k.k.k.k.k.k.k.k.k.k.k.k.k.k.k.F   z.z.z.z.z.z.z.z.z.z.z.z.z.z.z.",
"z.z.z.z.z.z.z.z.z.z.z.z.z.q   m a.k.k.k.k.k.k.k.k.k.k.k.k.k.k.k.k.G   ; z.z.z.z.z.z.z.z.z.z.z.z.z.z.",
"z.z.z.z.z.z.z.z.z.z.z.z.z.5 Z o.d.k.k.8.F D D S S S D D D =.k.k.k.=.F * z.z.z.z.z.z.z.z.z.z.z.z.z.z.",
"z.z.z.z.z.z.z.z.z.z.z.z.z.5 } k.k.k.3.' o   6 C C C 9     D ,.k.k.k.+.* z.z.z.z.z.z.z.z.z.z.z.z.z.z.",
"z.z.z.z.z.z.z.z.z.z.z.z.z.9 [ e.q.k.] = -   F e.d.i.] o = = F d.e.e. .5 z.z.z.z.z.z.z.z.z.z.z.z.z.z.",
"z.z.z.z.z.z.z.z.z.z.z.z.z.z.w 6 q 2.y.4.2.r + B e.H * ; #.6.q.e.B 6 q z.z.z.z.z.z.z.z.z.z.z.z.z.z.z.",
"z.z.z.z.z.z.z.z.z.z.z.z.z.z.  + w D H H H N - * F N q j F H H F v =   z.z.z.z.z.z.z.z.z.z.z.z.z.z.z.",
"z.z.z.z.z.z.z.z.z.z.z.z.z.  + 0 A 6 = - - C m - - B F A 5 - - < A r * o z.z.z.z.z.z.z.z.z.z.z.z.z.z.",
"z.z.z.z.z.z.z.z.z.z.z.m o X e A S S S S S S S S S S S S S S S S S A M @ X + z.z.z.z.z.z.z.z.z.z.z.z.",
"z.z.z.z.z.z.z.z.z.z.; = O T s 6 S S S S S S S S S S S S D S S S D q y W > . r z.z.z.z.z.z.z.z.z.z.z.",
"z.z.z.z.z.z.z.z.z.z.  > c / E z q A D A q 8 q q 8 C D A q V D S r f U ) I 2 6 z.z.z.z.z.z.z.z.z.z.z.",
"z.z.z.z.z.z.z.z.z.z.o u _ _ ` Q X r B b 2 1 1 1 1 h B M 4 g B m + L ` _ ` x : z.z.z.z.z.z.z.z.z.z.z.",
"z.z.z.z.z.z.z.z.z.    p _ _ _ W X X X 3 / ( ( ( ( p X , ^ d X O   L ` _ ` c   + z.z.z.z.z.z.z.z.z.z.",
"z.z.z.z.z.z.z.z.z.  x ~ _ _ _ W @ P W ! _ _ _ _ _ ~ W Q ( ~ W E $ L ` _ _ ^ L # z.z.z.z.z.z.z.z.z.z.",
"z.z.z.z.z.z.z.z.z.  Y ` _ _ ` W @ Q ` _ _ _ _ _ _ _ _ _ _ _ ` / > L ` _ _ ` Q % z.z.z.z.z.z.z.z.z.z.",
"z.z.z.z.z.z.z.z.z.  P ^ _ _ / Y 2 ! _ _ _ _ _ _ _ _ _ _ _ _ _ / t c ^ _ _ / R * z.z.z.z.z.z.z.z.z.z.",
"z.z.z.z.z.z.z.z.z.z.& a _ _ k t / _ _ _ _ _ _ _ _ _ _ _ _ _ _ _ ( k u ( _ c 9 z.z.z.z.z.z.z.z.z.z.z.",
"z.z.z.z.z.z.z.z.z.z.z.n p u $ t _ _ _ _ _ _ _ _ _ _ _ _ _ _ _ _ ` k @ u u i z.z.z.z.z.z.z.z.z.z.z.z.",
"z.z.z.z.z.z.z.z.z.z.z.z.o     t _ _ _ _ _ _ _ _ _ _ _ _ _ _ _ _ ` l     + z.z.z.z.z.z.z.z.z.z.z.z.z.",
"z.z.z.z.z.z.z.z.z.z.z.z.X     2 ~ ( _ ( ^ ~ ~ ~ ~ ~ ~ ~ ~ ( _ _ ^ a   + z.z.z.z.z.z.z.z.z.z.z.z.z.z.",
"z.z.z.z.z.z.z.z.z.z.z.z.+       > ! ` ! > @ @ @ @ @ @ @ @ Y ` / 2 X   + z.z.z.z.z.z.z.z.z.z.z.z.z.z.",
"z.z.z.z.z.z.z.z.z.z.z.z.r o       t a t                   1 a p X     + z.z.z.z.z.z.z.z.z.z.z.z.z.z.",
"z.z.z.z.z.z.z.z.z.z.z.z.z.                    o +                     + z.z.z.z.z.z.z.z.z.z.z.z.z.z.",
"z.z.z.z.z.z.z.z.z.z.z.z.z.    X - ; ; ; ; ; + = z.  + ; ; ; ; - o     + z.z.z.z.z.z.z.z.z.z.z.z.z.z.",
"z.z.z.z.z.z.z.z.z.z.z.z.*     r 4.8.8.8.8.w.H * z.  A 8.8.8.8.=.5   6 z.z.z.z.z.z.z.z.z.z.z.z.z.z.z.",
"z.z.z.z.z.z.z.z.z.z.z.z.w o   m d.k.k.k.k.k.] = z.  D k.k.k.k.a.| r q z.z.z.z.z.z.z.z.z.z.z.z.z.z.z.",
"z.z.z.z.z.z.z.z.z.z.z.z.z.    q @.#.#.#.#.%.K - z.  B %.#.q.k.k.k.H ; z.z.z.z.z.z.z.z.z.z.z.z.z.z.z.",
"z.z.z.z.z.z.z.z.z.z.z.z.z.z.< = ; - - - - ; A z.z.    o o } a.k.k.K +     z.z.z.z.z.z.z.z.z.z.z.z.z.",
"z.z.z.z.z.z.z.z.z.z.z.z.z.z.z.z.z.z.z.z.z.z.z.z.z.        - J k.k.e.} X     z.z.z.z.z.z.z.z.z.z.z.z.",
"z.z.z.z.z.z.z.z.z.z.z.z.z.z.z.z.z.z.z.z.z.z.z.z.z.          7 K K K J r 6 z.z.z.z.z.z.z.z.z.z.z.z.z.",
"z.z.z.z.z.z.z.z.z.z.z.z.z.z.z.z.z.z.z.z.z.z.z.z.z.                  5 z.z.z.z.z.z.z.z.z.z.z.z.z.z.z.",
"z.z.z.z.z.z.z.z.z.z.z.z.z.z.z.z.z.z.z.z.z.z.z.z.z.z.z.z.z.z.z.z.z.z.z.z.z.z.z.z.z.z.z.z.z.z.z.z.z.z.",
"z.z.z.z.z.z.z.z.z.z.z.z.z.z.z.z.z.z.z.z.z.z.z.z.z.z.z.z.z.z.z.z.z.z.z.z.z.z.z.z.z.z.z.z.z.z.z.z.z.z.",
"z.z.z.z.z.z.z.z.z.z.z.z.z.z.z.z.z.z.z.z.z.z.z.z.z.z.z.z.z.z.z.z.z.z.z.z.z.z.z.z.z.z.z.z.z.z.z.z.z.z."
};
