/* XPM */
static const char *aGVyb3MtZm9jb2NsaXBwaW5nLXN0YW5kYXJkKyUyODUlMjk_[] = {
/* columns rows colors chars-per-pixel */
"50 50 148 2 ",
"   c #010102",
".  c #0A0705",
"X  c #050609",
"o  c #06090C",
"O  c #0A0A0B",
"+  c #110E0D",
"@  c #030B14",
"#  c #0D0E10",
"$  c #000F1D",
"%  c #0B1016",
"&  c #0C1118",
"*  c #131314",
"=  c #171718",
"-  c #16191C",
";  c #1B1B1C",
":  c #011224",
">  c #00152B",
",  c #01182F",
"<  c #0F1D2D",
"1  c #1A1D22",
"2  c #001934",
"3  c #001C39",
"4  c #1F2021",
"5  c #172737",
"6  c #192837",
"7  c #1D2B39",
"8  c #232324",
"9  c #272728",
"0  c #2C2D2D",
"q  c #2F2F31",
"w  c #222F3D",
"e  c #2F3031",
"r  c #333333",
"t  c #383635",
"y  c #3C3C3C",
"u  c #012143",
"i  c #00264C",
"p  c #04294F",
"a  c #0F2C49",
"s  c #16314D",
"d  c #052A50",
"f  c #002D5A",
"g  c #173A5D",
"h  c #1A3C5F",
"j  c #2B3744",
"k  c #3F3F40",
"l  c #002F60",
"z  c #003366",
"x  c #05386C",
"c  c #003972",
"v  c #003F7F",
"b  c #444444",
"n  c #484746",
"m  c #474749",
"M  c #4E4D4C",
"N  c #504F4F",
"B  c #51504F",
"V  c #504F50",
"C  c #4E5358",
"Z  c #535353",
"A  c #5C5C5D",
"S  c #575C60",
"D  c #5F5F60",
"F  c #5F6061",
"G  c #626363",
"H  c #676768",
"J  c #6D6D6D",
"K  c #6E6F70",
"L  c #6F7071",
"P  c #727272",
"I  c #787A7B",
"U  c #004082",
"Y  c #044688",
"T  c #054B91",
"R  c #034F9B",
"E  c #03509D",
"W  c #0152A3",
"Q  c #0056AB",
"!  c #0158AE",
"~  c #035AB2",
"^  c #025EBB",
"/  c #0461BE",
"(  c #0162C4",
")  c #0067CF",
"_  c #0069D3",
"`  c #006EDC",
"'  c #006FE0",
"]  c #0071E4",
"[  c #0074EA",
"{  c #838384",
"}  c #868788",
"|  c #8A8B8B",
" . c #979797",
".. c #9E9E9F",
"X. c #A4A4A6",
"o. c #A7A7A8",
"O. c #A7A8A8",
"+. c #A8A9A9",
"@. c #A9A9AA",
"#. c gray68",
"$. c #AEAEAE",
"%. c #AEAEAE",
"&. c #B4B4B4",
"*. c gray72",
"=. c #B9B9B9",
"-. c #BABABB",
";. c #BABBBD",
":. c #BBBCBD",
">. c #BBBDBE",
",. c #BCBDBE",
"<. c #BDBEBF",
"1. c #BCBEBF",
"2. c #BDBEBF",
"3. c #BEBFC0",
"4. c #C0C0C0",
"5. c #C7C7C8",
"6. c #CECFCF",
"7. c #CCCCCC",
"8. c #D0D0D0",
"9. c gray82",
"0. c #D2D2D2",
"q. c LightGray",
"w. c #D3D3D4",
"e. c #DFDFDF",
"r. c gray87",
"t. c gray88",
"y. c #E2E2E2",
"u. c #E2E3E3",
"i. c #E9E9E9",
"p. c #E9E9EA",
"a. c #E9EAEA",
"s. c gray93",
"d. c gray94",
"f. c #F1F1F1",
"g. c gray95",
"h. c #F3F3F3",
"j. c #F4F4F4",
"k. c gray96",
"l. c #F6F6F6",
"z. c gray97",
"x. c gray96",
"c. c #F8F8F8",
"v. c #F9F9F9",
"b. c gray98",
"n. c white",
"m. c white",
"M. c None",
"N. c black",
/* pixels */
"M.M.M.M.M.M.M.M.M.M.M.M.M.M.M.M.M.M.M.M.M.M.M.M.M.M.M.M.M.M.M.M.M.M.M.M.M.M.M.M.M.M.M.M.M.M.M.M.M.M.",
"M.M.M.M.M.M.M.M.M.M.M.M.M.M.M.M.M.M.M.M.M.M.M.M.M.M.M.M.M.M.M.M.M.M.M.M.M.M.M.M.M.M.M.M.M.M.M.M.M.M.",
"M.M.M.M.M.M.M.M.M.M.M.M.M.M.M.M.M.M.M.M.M.M.M.M.M.M.M.M.M.M.M.M.M.M.M.M.M.M.M.M.M.M.M.M.M.M.M.M.M.M.",
"M.M.M.M.M.M.M.M.M.M.M.M.M.M.M.M.M.M.M.M.M.M.M.M.M.M.M.M.M.M.M.M.M.M.M.M.M.M.M.M.M.M.M.M.M.M.M.M.M.M.",
"M.M.M.M.M.M.M.M.M.M.M.M.M.M.M.M.M.M.M.; * * * * * * * * * * ; M.M.M.M.M.M.M.M.M.M.M.M.M.M.M.M.M.M.M.",
"M.M.M.M.M.M.M.M.M.M.M.M.M.M.M.M.Z 8 b #.*.*.*.*.*.*.*.*.*.*.#.b 9 V M.M.M.M.M.M.M.M.M.M.M.M.M.M.M.M.",
"M.M.M.M.M.M.M.M.M.M.M.M.M.M.M.r L J | j.n.n.n.n.n.n.n.n.n.n.j.| J K q M.M.M.M.M.M.M.M.M.M.M.M.M.M.M.",
"M.M.M.M.M.M.M.M.M.M.M.M.M.M.M.* <.n.n.n.n.n.n.n.n.n.n.n.n.n.n.n.n.<.* M.M.M.M.M.M.M.M.M.M.M.M.M.M.M.",
"M.M.M.M.M.M.M.M.M.M.M.M.M.M.M.= :.n.n.n.n.n.n.n.n.n.n.n.n.n.n.n.n.3.- M.M.M.M.M.M.M.M.M.M.M.M.M.M.M.",
"M.M.M.M.M.M.M.M.M.M.M.M.M.M.Z o.i.n.n.n.n.n.n.n.n.n.n.n.n.n.n.n.n.i.+.Z M.M.M.M.M.M.M.M.M.M.M.M.M.M.",
"M.M.M.M.M.M.M.M.M.M.M.M.M.  t d.n.n.n.n.n.n.n.n.n.n.n.n.n.n.n.n.n.n.j.y   M.M.M.M.M.M.M.M.M.M.M.M.M.",
"M.M.M.M.M.M.M.M.M.M.M.M.M.  t d.n.n.n.n.n.n.n.n.n.n.n.n.n.n.n.n.n.n.d.y   M.M.M.M.M.M.M.M.M.M.M.M.M.",
"M.M.M.M.M.M.M.M.M.M.M.M.M.  t d.n.n.n.n.n.n.n.n.n.n.n.n.n.n.n.n.n.n.d.y   M.M.M.M.M.M.M.M.M.M.M.M.M.",
"M.M.M.M.M.M.M.M.M.M.M.M.M.  t j.n.n.n.n.n.n.n.n.n.n.n.n.n.n.n.n.n.n.j.y   M.M.M.M.M.M.M.M.M.M.M.M.M.",
"M.M.M.M.M.M.M.M.M.M.M.M.M.M.y O.i.n.n.n.n.n.n.n.n.n.n.n.n.n.n.n.n.i.+.y M.M.M.M.M.M.M.M.M.M.M.M.M.M.",
"M.M.M.M.M.M.M.M.M.M.M.M.M.M.M.= :.n.n.n.n.n.n.n.n.n.n.n.n.n.n.n.n.:.* M.M.M.M.M.M.M.M.M.M.M.M.M.M.M.",
"M.M.M.M.M.M.M.M.M.M.M.M.M.* * O ;.n.n.n.n.n.n.n.n.n.n.n.n.n.n.n.n.<.O * = M.M.M.M.M.M.M.M.M.M.M.M.M.",
"M.M.M.M.M.M.M.M.M.M.M.M.M.  8 } t.n.n.n...P P P P P P P P ..n.n.n.t.| 8   M.M.M.M.M.M.M.M.M.M.M.M.M.",
"M.M.M.M.M.M.M.M.M.M.M.M.M.  t j.n.n.d.*.t   X y b b y X   t *.d.n.n.c.k   M.M.M.M.M.M.M.M.M.M.M.M.M.",
"M.M.M.M.M.M.M.M.M.M.M.M.M.O b e.s.c.q.9 * O 8 6.j.j.q.9 O * 9 q.c.s.t.b O M.M.M.M.M.M.M.M.M.M.M.M.M.",
"M.M.M.M.M.M.M.M.M.M.M.M.M.M.A t 0  .c.q.q.I X e ;.*.e X P q.q.c. .0 t A M.M.M.M.M.M.M.M.M.M.M.M.M.M.",
"M.M.M.M.M.M.M.M.M.M.M.M.M.M.* X 8 Z { { { G 9   Z G q r F { { { Z 8 X * M.M.M.M.M.M.M.M.M.M.M.M.M.M.",
"M.M.M.M.M.M.M.M.M.M.M.M.M.  X - Z y * * * t A 1 * r G G t * * * y Z - X X M.M.M.M.M.M.M.M.M.M.M.M.M.",
"M.M.M.M.M.M.M.M.M.M.M.M.8   - A G G A G A G G G A G G G G G G D G G A 1     M.M.M.M.M.M.M.M.M.M.M.M.",
"M.M.M.M.M.M.M.M.M.M.M.8 . l T 1 N G G G G G G G G G G G G G G G G B 1 T l   ; M.M.M.M.M.M.M.M.M.M.M.",
"M.M.M.M.M.M.M.M.M.M.M.O p ~ _ x j M G G b t t t t b G G n b G G M j x _ ~ d # M.M.M.M.M.M.M.M.M.M.M.",
"M.M.M.M.M.M.M.M.M.M.0 % ^ [ ] ] 3 9 Z Z 6 > > > > 7 Z Z w 5 Z Z 9 3 ' ] [ / & 9 M.M.M.M.M.M.M.M.M.M.",
"M.M.M.M.M.M.M.M.M.  X @ ^ ] ] ` 3   o o R ` _ _ ` T o X Y W o o   3 ` ] ] ^ @   X M.M.M.M.M.M.M.M.M.",
"M.M.M.M.M.M.M.M.M.  , W _ ] ] ` 3 i W W _ ] ] ] ] ) W W ) _ W W i 3 ` ] ] ` W 2   M.M.M.M.M.M.M.M.M.",
"M.M.M.M.M.M.M.M.M.  u ] ] ] ] ` 3 c [ ] ] ] ] ] ] ] ] [ ] ] ] [ c 3 ` ] ] ] ] u   M.M.M.M.M.M.M.M.M.",
"M.M.M.M.M.M.M.M.M.; s ( ` ] ` ( i v ] ] ] ] ] ] ] ] ] ] ] ] ] [ U u ( ` ] ` ( a + M.M.M.M.M.M.M.M.M.",
"M.M.M.M.M.M.M.M.M.M.S < ^ [ ^ : W ` ] ] ] ] ] ] ] ] ] ] ] ] ] ] ` W > ^ [ / < C M.M.M.M.M.M.M.M.M.M.",
"M.M.M.M.M.M.M.M.M.M.M.Z h f u X Q [ ] ] ] ] ] ] ] ] ] ] ] ] ] ] ] ~ o u f g Z M.M.M.M.M.M.M.M.M.M.M.",
"M.M.M.M.M.M.M.M.M.M.M.M.9       ! [ ] ] ] ] ] ] ] ] ] ] ] ] ] ] ] ~ X     9 M.M.M.M.M.M.M.M.M.M.M.M.",
"M.M.M.M.M.M.M.M.M.M.M.M.M.    X E ` ] ] _ ) ) ) ) ) ) ) ) _ ] ] ` W X     M.M.M.M.M.M.M.M.M.M.M.M.M.",
"M.M.M.M.M.M.M.M.M.M.M.M.M.      @ U [ ] f $ $ $ $ $ $ $ $ f ] [ U @     X M.M.M.M.M.M.M.M.M.M.M.M.M.",
"M.M.M.M.M.M.M.M.M.M.M.M.M.        2 z z :                 $ z z 2   X 0 M.M.M.M.M.M.M.M.M.M.M.M.M.M.",
"M.M.M.M.M.M.M.M.M.M.M.M.M.                      X X                 O M.M.M.M.M.M.M.M.M.M.M.M.M.M.M.",
"M.M.M.M.M.M.M.M.M.M.M.M.M.        O * * * * * X M.M.X * * * * * O   O M.M.M.M.M.M.M.M.M.M.M.M.M.M.M.",
"M.M.M.M.M.M.M.M.M.M.M.M.M.M.M.O   G w.q.q.w.&.- M.M.; &.w.q.q.w.H     O M.M.M.M.M.M.M.M.M.M.M.M.M.M.",
"M.M.M.M.M.M.M.M.M.M.M.M.M.M.M.* A 4.n.n.n.n.e.4 M.M.4 e.n.n.n.n.{   X r M.M.M.M.M.M.M.M.M.M.M.M.M.M.",
"M.M.M.M.M.M.M.M.M.M.M.M.M.M.M.* :.n.j.6.7.6.#.- M.M.8 &.6.7.7.6.G   # M.M.M.M.M.M.M.M.M.M.M.M.M.M.M.",
"M.M.M.M.M.M.M.M.M.M.M.M.;   X * 3.n.5.8 O O O   M.M.M.0 = - = = # O M.M.M.M.M.M.M.M.M.M.M.M.M.M.M.M.",
"M.M.M.M.M.M.M.M.M.M.M.M.;   r <.j.X.0 X         M.M.M.M.M.M.M.M.M.M.M.M.M.M.M.M.M.M.M.M.M.M.M.M.M.M.",
"M.M.M.M.M.M.M.M.M.M.M.M.y 0 Z | | m             M.M.M.M.M.M.M.M.M.M.M.M.M.M.M.M.M.M.M.M.M.M.M.M.M.M.",
"M.M.M.M.M.M.M.M.M.M.M.M.M.M.M.O                 M.M.M.M.M.M.M.M.M.M.M.M.M.M.M.M.M.M.M.M.M.M.M.M.M.M.",
"M.M.M.M.M.M.M.M.M.M.M.M.M.M.M.M.M.M.M.M.M.M.M.M.M.M.M.M.M.M.M.M.M.M.M.M.M.M.M.M.M.M.M.M.M.M.M.M.M.M.",
"M.M.M.M.M.M.M.M.M.M.M.M.M.M.M.M.M.M.M.M.M.M.M.M.M.M.M.M.M.M.M.M.M.M.M.M.M.M.M.M.M.M.M.M.M.M.M.M.M.M.",
"M.M.M.M.M.M.M.M.M.M.M.M.M.M.M.M.M.M.M.M.M.M.M.M.M.M.M.M.M.M.M.M.M.M.M.M.M.M.M.M.M.M.M.M.M.M.M.M.M.M.",
"M.M.M.M.M.M.M.M.M.M.M.M.M.M.M.M.M.M.M.M.M.M.M.M.M.M.M.M.M.M.M.M.M.M.M.M.M.M.M.M.M.M.M.M.M.M.M.M.M.M."
};
