/* XPM */
static char *_33b120c59644e23c4392ab65a81bba5NupraN3fkIoFn2LU[] = {
/* columns rows colors chars-per-pixel */
"50 50 153 2 ",
"   c None",
".  c #010102",
"X  c #02050A",
"o  c #070809",
"O  c #0B0C0D",
"+  c #000913",
"@  c #0C0E11",
"#  c #010E1D",
"$  c #0D1014",
"%  c #02101E",
"&  c #131314",
"*  c #151618",
"=  c #171818",
"-  c #1B1B1C",
";  c #001225",
":  c #03162B",
">  c #04182C",
",  c #1C1D20",
"<  c #061C32",
"1  c #001E3C",
"2  c #1E2022",
"3  c #03203E",
"4  c #13273C",
"5  c #232323",
"6  c #292726",
"7  c #2B2B2C",
"8  c #2D2E30",
"9  c #302F30",
"0  c #2F3031",
"q  c #333334",
"w  c #373739",
"e  c #3C3C3C",
"r  c #403E3D",
"t  c #012244",
"y  c #00244B",
"u  c #05284B",
"i  c #19324B",
"p  c #052C54",
"a  c #002D5B",
"s  c #073059",
"d  c #293949",
"f  c #3C3E41",
"g  c #023466",
"h  c #02366B",
"j  c #043B73",
"k  c #083F76",
"l  c #053E79",
"z  c #05417C",
"x  c #444445",
"c  c #464749",
"v  c #47484A",
"b  c #4A4A4B",
"n  c #4F4F50",
"m  c #4F5051",
"M  c #535353",
"N  c #555658",
"B  c #575859",
"V  c #5A5B5B",
"C  c #5F5F60",
"Z  c #636364",
"A  c #676768",
"S  c #676869",
"D  c #6B6B6C",
"F  c #6E6F70",
"G  c #737374",
"H  c #7D7D7D",
"J  c #034485",
"K  c #05488C",
"L  c #004792",
"P  c #004993",
"I  c #004C99",
"U  c #07539F",
"Y  c #0253A3",
"T  c #0456A8",
"R  c #0A5AAA",
"E  c #015BB4",
"W  c #015DBB",
"Q  c #0461BD",
"!  c #7F7F80",
"~  c #0363C3",
"^  c #0166CB",
"/  c #026CD7",
"(  c #016DD9",
")  c #0071E4",
"_  c #0074EA",
"`  c #818182",
"'  c #8B8B8B",
"]  c #8F9090",
"[  c #929293",
"{  c #969798",
"}  c #9A9A9A",
"|  c #A3A3A3",
" . c #A7A8A9",
".. c #ABACAC",
"X. c #B2B3B3",
"o. c #B6B7B8",
"O. c gray",
"+. c #BCBCBC",
"@. c #BABABA",
"#. c #BFBFC0",
"$. c #C0C0C1",
"%. c gray76",
"&. c gray77",
"*. c #C5C5C5",
"=. c #C5C5C6",
"-. c #C6C6C6",
";. c gray76",
":. c gray79",
">. c #CACACA",
",. c #CBCBCB",
"<. c #CFCFCF",
"1. c #CBCBCC",
"2. c #D0D0D0",
"3. c #D5D5D5",
"4. c #D5D5D6",
"5. c #D5D6D6",
"6. c #D7D7D7",
"7. c gray84",
"8. c #D8D8D8",
"9. c #DADADB",
"0. c #DDDDDD",
"q. c #DFDFDF",
"w. c #DDDDDD",
"e. c gray88",
"r. c #E3E3E3",
"t. c gray90",
"y. c #E4E4E4",
"u. c #E6E6E6",
"i. c #E6E6E5",
"p. c gray91",
"a. c #E9E9E9",
"s. c #EAEAEA",
"d. c #ECECEC",
"f. c gray93",
"g. c #EDEEEE",
"h. c #EEEEEE",
"j. c #EBEBEB",
"k. c gray94",
"l. c #F1F1F1",
"z. c gray95",
"x. c #F3F3F3",
"c. c #F4F4F4",
"v. c #F6F6F6",
"b. c gray97",
"n. c #F4F4F4",
"m. c #F9F9F9",
"M. c gray98",
"N. c #FBFBFB",
"B. c gray99",
"V. c #FDFDFD",
"C. c #FEFEFE",
"Z. c white",
"A. c #FCFCFC",
/* pixels */
"                                                                                                    ",
"                                                                                                    ",
"                                                                                                    ",
"                                                                                                    ",
"                                                                                                    ",
"                                      o . . . . . . . . . . &                                       ",
"                                    f A A A A A A A A A A A A f                                     ",
"                                x - M x.Z.Z.Z.Z.Z.Z.Z.Z.Z.Z.a.x 2 0                                 ",
"                              7 X.r.u.Z.Z.Z.Z.Z.Z.Z.Z.Z.Z.Z.Z.r.r.| 7                               ",
"                              & &.Z.Z.Z.Z.Z.Z.Z.Z.Z.Z.Z.Z.Z.Z.Z.Z.o.O                               ",
"                            x Z 3.Z.Z.Z.Z.Z.Z.Z.Z.Z.Z.Z.Z.Z.Z.Z.Z.2.Z b                             ",
"                          . x x.Z.Z.Z.Z.Z.Z.Z.Z.Z.Z.m.a.u.u.a.m.Z.Z.f.w O                           ",
"                          . x v.Z.Z.Z.Z.Z.Z.Z.Z.Z.Z.r.x 7 7 e 9.Z.Z.f.q @                           ",
"                          . x m.Z.Z.Z.Z.Z.Z.Z.Z.Z.Z.q.- . . = 3.Z.Z.x.q *                           ",
"                          . q X.f.Z.Z.Z.Z.Z.Z.Z.Z.Z.q.5 . . = 3.Z.f...7 @                           ",
"                          O O & o.m.Z.Z.x.f.x.Z.Z.Z.q.7 & & 7 3.Z...O O ,                           ",
"                            q o 5 } Z.Z.D 7 M a.Z.Z.v.<.,.,.<.v.[ 2 O M                             ",
"                              O C H H ` H H [ v. ...Z.Z.Z.Z.Z.Z.o.H ` x                             ",
"                              & ,.| 7 o o.Z.v.&.e x &.&.&.&.&.&.&.,.+.7 @                           ",
"                              - O.v.o.= o.Z.3.7 O O @ = & & = & & & O . $                           ",
"                                N x q O +.Z.x.%.#.G &  .b e .., D ] . . $                           ",
"                                5 & 5 o A %.Z.Z.Z.,.G ' q 7 ! & b D o &                             ",
"                                q e N = . V 9.m.Z.Z.u.c 7 8 7 q 9 5 &                               ",
"                              = b Z Z V - o e u.m.m.v.a.u.u.u.u.a. .&                               ",
"                            e c V A A A n c v m M M M N M M M N N e &                               ",
"                          . O e e e e e e M V 7 5 & . . e x . . . . &                               ",
"                          - = . . + ; ; X 5 B N Z x O @ ' { . O 7                                   ",
"                              o . h / ^ 1 . O O c Z V V q & O b q @                                 ",
"                              o j Q ) ) 1 3 J X & r V 7 F | { e @ .                                 ",
"                            4 s ~ _ ) ) l j I a y i e . A <.a.7 . .                                 ",
"                          . t ) ) ) ) ) ( z 1 ~ ) P . = - A r.7 O =                                 ",
"                          . t ) ) ) ) ) p g E < T L - %.q.u.u.7 8                                   ",
"                          . # h ^ ) ^ h k E ^ # U P O Z D D A &                                     ",
"                            . o E _ ~ u Q _ ^ % U P o e b 7 . . ,                                   ",
"                              2 R ( / / / ( W : Y L - ,.f.} . . ,                                   ",
"                                d : > > > > t E ) P . 7 q 5 . . ,                                   ",
"                                6 1 z k k k K ) Y y . . . . . . *                                   ",
"                                5 g W E E E E E 1 . . . . . . O                                     ",
"                                  $ @ X X X X X . . . . . . &                                       ",
"                                    b O . . . . . . . . . . &                                       ",
"                                      2 - O & S G x . . . . &                                       ",
"                                          5 N f.Z.X.q q & . &                                       ",
"                                        7 A f.v.m.x.a.f.Z . o o                                     ",
"                                        7 , b b b b Z a.3.o. .5 @                                   ",
"                                        f @ O O @ O & ' | | } f                                     ",
"                                                    . . . . &                                       ",
"                                                                                                    ",
"                                                                                                    ",
"                                                                                                    ",
"                                                                                                    "
};
