/* XPM */
static const char *aGVyb3MtZm9jb2NsaXBwaW5nLXN0YW5kYXJkKyUyODIlMjktMg__[] = {
/* columns rows colors chars-per-pixel */
"50 50 160 2 ",
"   c #010102",
".  c #080503",
"X  c #090807",
"o  c #04060A",
"O  c #070809",
"+  c #0A0A0B",
"@  c #100E0D",
"#  c #020A13",
"$  c #0F0F10",
"%  c #000B19",
"&  c #0B131D",
"*  c #131313",
"=  c #171718",
"-  c #181718",
";  c #1B1B1C",
":  c #22201F",
">  c #011325",
",  c #01162B",
"<  c #091A2D",
"1  c #1F1F20",
"2  c #001A35",
"3  c #0A1C30",
"4  c #001E3E",
"5  c #232324",
"6  c #292725",
"7  c #262729",
"8  c #27292B",
"9  c #2C2C2C",
"0  c #32302E",
"q  c #2F2F30",
"w  c #2F3031",
"e  c #28323C",
"r  c #333333",
"t  c #3A3837",
"y  c #373738",
"u  c #3B3B3C",
"i  c #001F40",
"p  c #002144",
"a  c #01244A",
"s  c #0D2A48",
"d  c #182D42",
"f  c #002750",
"g  c #002954",
"h  c #002B58",
"j  c #203142",
"k  c #283645",
"l  c #21364D",
"z  c #3F3F40",
"x  c #243C55",
"c  c #002F60",
"v  c #013263",
"b  c #02366C",
"n  c #023A72",
"m  c #003D7B",
"M  c #3B4146",
"N  c #3D4751",
"B  c #05417E",
"V  c #0A447E",
"C  c #434343",
"Z  c #4A4846",
"A  c #474748",
"S  c #47494A",
"D  c #4C4C4C",
"F  c #4D4F51",
"G  c #4F5051",
"H  c #545455",
"J  c #575758",
"K  c #57585A",
"L  c #5C5C5C",
"P  c #66625E",
"I  c #5D5E60",
"U  c #5E6062",
"Y  c #646464",
"T  c #666769",
"R  c #6C6C6D",
"E  c #737373",
"W  c #76777A",
"Q  c #76787A",
"!  c #7C7D7D",
"~  c #044281",
"^  c #024589",
"/  c #064A8F",
"(  c #034B94",
")  c #004D9C",
"_  c #0052A4",
"`  c #0157AD",
"'  c #0358AE",
"]  c #0059B3",
"[  c #005EBB",
"{  c #7F7F80",
"}  c #0263C4",
"|  c #0165CB",
" . c #006AD5",
".. c #006EDC",
"X. c #0071E4",
"o. c #0074E9",
"O. c #838384",
"+. c #898A8A",
"@. c #8E8F90",
"#. c #919293",
"$. c #959698",
"%. c #97999B",
"&. c #9A9B9C",
"*. c #A2A2A3",
"=. c #ACACAD",
"-. c #AFB0B1",
";. c #B3B3B3",
":. c #BABBBB",
">. c #C1C1C1",
",. c gray78",
"<. c #C3C3C4",
"1. c #C9C9CA",
"2. c #CBCBCB",
"3. c #C8C8C8",
"4. c #CDCDCD",
"5. c gray81",
"6. c #CECECE",
"7. c #CACACB",
"8. c #CECFD0",
"9. c #D0D0D0",
"0. c #D2D2D2",
"q. c #D5D5D5",
"w. c #D5D5D5",
"e. c #D7D7D8",
"r. c gray85",
"t. c #D8D8D8",
"y. c #DBDBDB",
"u. c #DDDDDD",
"i. c #DCDCDD",
"p. c gray87",
"a. c gray85",
"s. c #E1E1E1",
"d. c #E2E2E2",
"f. c #E4E4E4",
"g. c gray90",
"h. c #E4E5E6",
"j. c #E6E6E6",
"k. c #E7E7E8",
"l. c gray91",
"z. c #E9E9E9",
"x. c #EAEAEB",
"c. c gray93",
"v. c #EEEEEE",
"b. c #F1F1F1",
"n. c #F3F3F3",
"m. c gray95",
"M. c gray96",
"N. c gray97",
"B. c #F4F4F4",
"V. c #F9F9F9",
"C. c gray98",
"Z. c #FBFBFB",
"A. c gray99",
"S. c #FDFDFD",
"D. c #FEFEFE",
"F. c white",
"G. c #FFFFFE",
"H. c #FEFEFE",
"J. c None",
"K. c black",
/* pixels */
"J.J.J.J.J.J.J.J.J.J.J.J.J.J.J.J.J.J.J.J.J.J.J.J.J.J.J.J.J.J.J.J.J.J.J.J.J.J.J.J.J.J.J.J.J.J.J.J.J.J.",
"J.J.J.J.J.J.J.J.J.J.J.J.J.J.J.J.J.J.J.J.J.J.J.J.J.J.J.J.J.J.J.J.J.J.J.J.J.J.J.J.J.J.J.J.J.J.J.J.J.J.",
"J.J.J.J.J.J.J.J.J.J.J.J.J.J.J.J.J.J.J.J.J.J.J.J.J.J.J.J.J.J.J.J.J.J.J.J.J.J.J.J.J.J.J.J.J.J.J.J.J.J.",
"J.J.J.J.J.J.J.J.J.J.J.J.J.J.J.J.J.J.J.J.J.J.J.J.J.J.J.J.J.J.J.J.J.J.J.J.J.J.J.J.J.J.J.J.J.J.J.J.J.J.",
"J.J.J.J.J.J.J.J.J.J.J.J.J.J.J.J.J.J.J.J.J.J.J.J.J.J.J.J.J.J.J.J.J.J.J.J.J.J.J.J.J.J.J.J.J.J.J.J.J.J.",
"J.J.J.J.J.J.J.J.J.J.J.J.J.J.J.J.J.J.J.J.J.J.J.J.J.J.J.J.J.J.J.J.J.J.J.J.J.J.J.J.J.J.J.J.J.J.J.J.J.J.",
"J.J.J.J.J.J.J.J.J.J.J.J.J.J.J.J.J.J.J.; ; ; ; ; ; ; ; ; ; ; ; J.J.J.J.J.J.J.J.J.J.J.J.J.J.J.J.J.J.J.",
"J.J.J.J.J.J.J.J.J.J.J.J.J.J.J.J.5 ; q ;.9.5.5.5.5.5.5.5.5.5.2.H ; 9 J.J.J.J.J.J.J.J.J.J.J.J.J.J.J.J.",
"J.J.J.J.J.J.J.J.J.J.J.J.J.J.J.J.Y ! @.b.F.F.F.F.F.F.F.F.F.F.F.=.+.O.5 J.J.J.J.J.J.J.J.J.J.J.J.J.J.J.",
"J.J.J.J.J.J.J.J.J.J.J.J.J.J.J.  *.F.F.F.F.F.F.F.F.F.F.F.F.F.F.F.F.r.; J.J.J.J.J.J.J.J.J.J.J.J.J.J.J.",
"J.J.J.J.J.J.J.J.J.J.J.J.J.J.J.* *.F.F.F.F.F.F.F.F.F.F.F.F.F.F.F.F.e.7 J.J.J.J.J.J.J.J.J.J.J.J.J.J.J.",
"J.J.J.J.J.J.J.J.J.J.J.J.J.D z -.z.F.F.F.F.F.F.F.F.F.F.F.F.F.F.F.F.N.2.L J J.J.J.J.J.J.J.J.J.J.J.J.J.",
"J.J.J.J.J.J.J.J.J.J.J.J.J.9 7 k.F.9.O.{ ! *.F.F.F.F.F.F.:.! { ! :.F.F.H y J.J.J.J.J.J.J.J.J.J.J.J.J.",
"J.J.J.J.J.J.J.J.J.J.J.J.J.r 8 h.F.*.      D Z.F.F.F.F.F.Q       E F.F.H r J.J.J.J.J.J.J.J.J.J.J.J.J.",
"J.J.J.J.J.J.J.J.J.J.J.J.J.u 8 h.F.*.      F Z.F.Z.Z.F.F.Q       E F.F.H 9 J.J.J.J.J.J.J.J.J.J.J.J.J.",
"J.J.J.J.J.J.J.J.J.J.J.J.J.u 8 z.F.*.      D Z.F.#.E Z.F.Q       E F.F.J 9 J.J.J.J.J.J.J.J.J.J.J.J.J.",
"J.J.J.J.J.J.J.J.J.J.J.J.J.J.5 +.u.5.E E R &.b.*.r ; +.k.;.R E E ;.v.%.C J.J.J.J.J.J.J.J.J.J.J.J.J.J.",
"J.J.J.J.J.J.J.J.J.J.J.J.J.J.J.  =.b.r.F.F.F.b.D 7 9 r 5.F.F.F.d.z.q.= J.J.J.J.J.J.J.J.J.J.J.J.J.J.J.",
"J.J.J.J.J.J.J.J.J.J.J.J.J.C * O ;.=.w u.F.F.Z.z.h.h.h.N.F.F.N.H ! e.; O A J.J.J.J.J.J.J.J.J.J.J.J.J.",
"J.J.J.J.J.J.J.J.J.J.J.J.J.9 ; $.k.*.O D J J J J J J J J J J J $ E b.-.y u J.J.J.J.J.J.J.J.J.J.J.J.J.",
"J.J.J.J.J.J.J.J.J.J.J.J.J.9 7 z.F.,.J O u C O G 7 * J * q D   C =.F.F.J u J.J.J.J.J.J.J.J.J.J.J.J.J.",
"J.J.J.J.J.J.J.J.J.J.J.J.J.z r 2.u.z.z.C &.&.= :.I y 5.r E :.r >.b.u.u.J D J.J.J.J.J.J.J.J.J.J.J.J.J.",
"J.J.J.J.J.J.J.J.J.J.J.J.J.J.J.5 ; E Z.d.T *   ; + O 1 O $ A 9.Z.&.1 5 Z J.J.J.J.J.J.J.J.J.J.J.J.J.J.",
"J.J.J.J.J.J.J.J.J.J.J.J.J.J.% ~ , 5 T T +.&.&.%.&.&.%.&.&.#.R T u % ~ x P J.J.J.J.J.J.J.J.J.J.J.J.J.",
"J.J.J.J.J.J.J.J.J.J.J.J.J.l v ..a       R ;.=.=.=.=.=.=.=.+.O     , ..~ x J.J.J.J.J.J.J.J.J.J.J.J.J.",
"J.J.J.J.J.J.J.J.J.J.J.J.O v o. .a X O   * ; ; ; + O ; ; ; *   O O < } o./ * J.J.J.J.J.J.J.J.J.J.J.J.",
"J.J.J.J.J.J.J.J.J.J.J.= . v  .4 M J D + +.r.e.r.K r 5.r.r.=.* u J F 3 ` ( . * J.J.J.J.J.J.J.J.J.J.J.",
"J.J.J.J.J.J.J.J.J.J.J.  v `  .^ j C Y u L E E E O.O.E E E R u J D e V | } n o J.J.J.J.J.J.J.J.J.J.J.",
"J.J.J.J.J.J.J.J.J.J.J.o ] o...] c d Z Z - * C C ;.q.Z C ; + C Z k h _  .o. .h , J.J.J.J.J.J.J.J.J.J.",
"J.J.J.J.J.J.J.J.J.y o # ] o.| , ) ( # #   D b.Z.F.F.Z.F.W   # o b [ > _ o.X.o.h 0 J.J.J.J.J.J.J.J.J.",
"J.J.J.J.J.J.J.J.J.t > ` ..o...[ h v [ [ i H F.F.F.F.F.F.Q > ` [ B a `  .o.X.o.h r J.J.J.J.J.J.J.J.J.",
"J.J.J.J.J.J.J.J.J.t , ..o.X.X.o.( n ~ ..g 6 O.h.F.F.Z.&.u 2 ..) n ~ ..o.X.X.o.h r J.J.J.J.J.J.J.J.J.",
"J.J.J.J.J.J.J.J.J.J.> `  .o.X.o.| ^ p | g @ C r.F.F.N.T * 2 ..v b } X.X.o...[ f r J.J.J.J.J.J.J.J.J.",
"J.J.J.J.J.J.J.J.J.J.J.& ' X.X.X.a h ..o.a Z h.b.N.N.N.v.E 2 ..X.~ 2  .X.X.| 3 J.J.J.J.J.J.J.J.J.J.J.",
"J.J.J.J.J.J.J.J.J.J.J.J.s 4 h ..p h o.o.g * C C C C C C : 2 ..o.~ , ..m 4 s N J.J.J.J.J.J.J.J.J.J.J.",
"J.J.J.J.J.J.J.J.J.J.J.J.J.* # m > h o.o.g                 2 ..o.~ # m , * ; J.J.J.J.J.J.J.J.J.J.J.J.",
"J.J.J.J.J.J.J.J.J.J.J.J.J.u o   % n o.o.g                 2 ..o.( >     u J.J.J.J.J.J.J.J.J.J.J.J.J.",
"J.J.J.J.J.J.J.J.J.J.J.J.J.u O   ( X.X.o.g                 2 ..o.X.] # o C J.J.J.J.J.J.J.J.J.J.J.J.J.",
"J.J.J.J.J.J.J.J.J.J.J.J.J.J.r   2 a a a %                 o p a a 4 o 5 J.J.J.J.J.J.J.J.J.J.J.J.J.J.",
"J.J.J.J.J.J.J.J.J.J.J.J.J.J.J.  C L L L L U L *     o A L L L L L D O J.J.J.J.J.J.J.J.J.J.J.J.J.J.J.",
"J.J.J.J.J.J.J.J.J.J.J.J.J.J.J.7 :.F.F.F.F.N.8.9   o + >.F.F.F.F.F.q.; J.J.J.J.J.J.J.J.J.J.J.J.J.J.J.",
"J.J.J.J.J.J.J.J.J.J.J.J.J.J.7 2.N.F.F.F.F.;.1 O J.J.* >.F.F.F.F.F.q.; J.J.J.J.J.J.J.J.J.J.J.J.J.J.J.",
"J.J.J.J.J.J.J.J.J.J.J.J.J.y * H L L L L L C   9 J.J.* ,.F.F.F.F.F.b.=.J H J.J.J.J.J.J.J.J.J.J.J.J.J.",
"J.J.J.J.J.J.J.J.J.J.J.J.J.J.O                 J.J.J.* +.;.;.;.;.;.;.;.u y J.J.J.J.J.J.J.J.J.J.J.J.J.",
"J.J.J.J.J.J.J.J.J.J.J.J.J.J.J.J.J.J.J.J.J.J.J.J.J.J.O   o o o o o o o   y J.J.J.J.J.J.J.J.J.J.J.J.J.",
"J.J.J.J.J.J.J.J.J.J.J.J.J.J.J.J.J.J.J.J.J.J.J.J.J.J.J.J.J.J.J.J.J.J.J.J.J.J.J.J.J.J.J.J.J.J.J.J.J.J.",
"J.J.J.J.J.J.J.J.J.J.J.J.J.J.J.J.J.J.J.J.J.J.J.J.J.J.J.J.J.J.J.J.J.J.J.J.J.J.J.J.J.J.J.J.J.J.J.J.J.J.",
"J.J.J.J.J.J.J.J.J.J.J.J.J.J.J.J.J.J.J.J.J.J.J.J.J.J.J.J.J.J.J.J.J.J.J.J.J.J.J.J.J.J.J.J.J.J.J.J.J.J.",
"J.J.J.J.J.J.J.J.J.J.J.J.J.J.J.J.J.J.J.J.J.J.J.J.J.J.J.J.J.J.J.J.J.J.J.J.J.J.J.J.J.J.J.J.J.J.J.J.J.J.",
"J.J.J.J.J.J.J.J.J.J.J.J.J.J.J.J.J.J.J.J.J.J.J.J.J.J.J.J.J.J.J.J.J.J.J.J.J.J.J.J.J.J.J.J.J.J.J.J.J.J."
};
