/* XPM */
static char *result[] = {
/* columns rows colors chars-per-pixel */
"55 50 79 1 ",
"  c #040404",
". c #0B0B0C",
"X c #1C0606",
"o c #140B0C",
"O c #0E0F10",
"+ c #0F1011",
"@ c #131414",
"# c #181817",
"$ c #161718",
"% c #161819",
"& c #1A1A1B",
"* c #1D1F21",
"= c #1E2123",
"- c #232425",
"; c #26282B",
": c #2B2C2D",
"> c #2C2E31",
", c #2E3034",
"< c #333434",
"1 c #333539",
"2 c #37393D",
"3 c #39393B",
"4 c #3B3E42",
"5 c #3F4246",
"6 c #424343",
"7 c #42464A",
"8 c #46494E",
"9 c #4C4D4D",
"0 c #474B51",
"q c #494D53",
"w c #4D5257",
"e c #4F5358",
"r c #535353",
"t c #52565C",
"y c #54585E",
"u c #67474B",
"i c #774347",
"p c #665353",
"a c #685253",
"s c #575C62",
"d c #5A5F65",
"f c #615E64",
"g c #5C6066",
"h c #5E636A",
"j c #626364",
"k c #6E6667",
"l c #62666A",
"z c #67696C",
"x c #696B6E",
"c c #716D6F",
"v c #656A72",
"b c #6B6E73",
"n c #6D737B",
"m c #707276",
"M c #717478",
"N c #76797D",
"B c #A72B2D",
"V c #A03032",
"C c #757B83",
"Z c #787E85",
"A c #797F88",
"S c #7B828C",
"D c #81858B",
"F c #838A94",
"G c #888F99",
"H c #8B939D",
"J c #8E96A1",
"K c #9097A1",
"L c #929AA4",
"P c #969EA9",
"I c #97A0AB",
"U c #99A1AD",
"Y c #9EA6B1",
"T c #9FA9B5",
"R c #A1AAB6",
"E c #A4ADBA",
"W c #A8B2BF",
"Q c #ACB6C3",
"! c None",
/* pixels */
"!!!!!!!!!!!!!!!!!!!!!!!!!!!!!!!!!!!!!!!!!!!!!!!!!!!!!!!",
"!!!!!!!!!!!!!!!!!!!!!!!!!!!!!!!!!!!!!!!!!!!!!!!!!!!!!!!",
"!!!!!!!!!!!!!!!!!!!!!!!!!!!!!!!!!!!!!!!!!!!!!!!!!!!!!!!",
"!!!!!!!!!!!!!!!!!!!!!!!!!!!!!!!!!!!!!!!!!!!!!!!!!!!!!!!",
"!!!!!!!!!!!!!!!!!!!!!!!!!!!!!!!!!!!!!!!!!!!!!!!!!!!!!!!",
"!!!!!!!!!!!!!!!!!!!!!!!!!!!!!!!!!!!!!!!!!!!!!!!!!!!!!!!",
"!!!!!!!!!!!!!!!!!!!!!!!!!!!!!!!!!!!!!!!!!!!!!!!!!!!!!!!",
"!!!!!!!!!!!!!!!!!!!!. !!!!!!!!!!!! .!!!!!!!!!!!!!!!!!!!",
"!!!!!!!!!!!!!!!!!!!><*$!!!!!!!!!!&&3;!!!!!!!!!!!!!!!!!!",
"!!!!!!!!!!!!!!!!!!1g-* !!!!!!!!!! -:h;!!!!!!!!!!!!!!!!!",
"!!!!!!!!!!!!!!!!!;l>-#O!!!!!!!!!!@&-1l=!!!!!!!!!!!!!!!!",
"!!!!!!!!!!!!!!!!=h<-#$!!!!!!!!!!!!$#-4g%!!!!!!!!!!!!!!!",
"!!!!!!!!!!!!!!!%d3;#&!!!!!!!!!!!!! &&-7y!!!!!!!!!!!!!!!",
"!!!!!!!!!!!!!!!y8;#& !!!!@$@@$@!!!!.&&;wq!!!!!!!!!!!!!!",
"!!!!!!!!!!!!!!ww-#&.!!!!&dnwwCw$!!!!.&&;d8!!!!!!!!!!!!!",
"!!!!!!!!!!!!!4S2.&.!!!!&w>;==;,q@!!!!o% 8S>!!!!!!!!!!!!",
"!!!!!!!!!!!!$dq8: !!!!@sIKFZZGLLq.!!!! 14ysO!!!!!!!!!!!",
"!!!!!!!!!!!!*00Sh-!!!+qPIxgkjjcYJ6!!!!>vF40O!!!!!!!!!!!",
"!!!!!!!!!!!!%55Agw&O 1HYj&.3:.-bRF> O*yhS18O!!!!!!!!!!!",
"!!!!!!!!!!!!*8O%&-dv23PN-3 <;O<:SW87vs*&$O0O!!!!!!!!!!!",
"!!!!!!!!!!!!&8 4vvUPw4Hlo*<<:<##MU8dYLvv,.0+!!!!!!!!!!!",
"!!!!!!!!!!!!*5;FRLKPTy7-  ::<-  <68KPJLTA-0+!!!!!!!!!!!",
"!!!!!!!!!!!!&8;GTLLUEe6-.&< .<#.>35PPLPTS=8+!!!!!!!!!!!",
"!!!!!!!!!!!!&8 yPPEQn4lr96.  #69rl1SQRLP8.0+!!!!!!!!!!!",
"!!!!!!!!!!!!&8.*-,FUg3x-.*< .<#o:x<nPS;-&O8O!!!!!!!!!!!",
"!!!!!!!!!!!!%75Zgw=&.<l*  ::<;  :l:O$;yhS18@!!!!!!!!!!!",
"!!!!!!!!!!!!&00Fh-!!!O7s#&<<:<@*g4!!!!>vF40@!!!!!!!!!!!",
"!!!!!!!!!!!!$dq7> !!!!$nx9@3<&9ml.!!!! 14yyO!!!!!!!!!!!",
"!!!!!!!!!!!!!4S2.%.!!!!;Ckpjjpmn-!!!!.$.8S>!!!!!!!!!!!!",
"!!!!!!!!!!!!!!ww-%&.!!!!;iVgpBu=!!!!.&&-d5!!!!!!!!!!!!!",
"!!!!!!!!!!!!!!!y7:%& !!!!oX+@Xo!!!!.&&;wq!!!!!!!!!!!!!!",
"!!!!!!!!!!!!!!!%g3-$#!!!!!!!!!!!!! ##;7s!!!!!!!!!!!!!!!",
"!!!!!!!!!!!!!!!!=h1-&$!!!!!!!!!!!!##-4d%!!!!!!!!!!!!!!!",
"!!!!!!!!!!!!!!!!!;l>-$.!!!!!!!!!!@&-1h=!!!!!!!!!!!!!!!!",
"!!!!!!!!!!!!!!!!!!1g-- !!!!!!!!!! -;h;!!!!!!!!!!!!!!!!!",
"!!!!!!!!!!!!!!!!!!!><&$!!!!!!!!!!&&3:!!!!!!!!!!!!!!!!!!",
"!!!!!!!!!!!!!!!!!!!!. !!!!!!!!!!!! .!!!!!!!!!!!!!!!!!!!",
"!!!!!!!!!!!!!!!!!!!!!!!!!!!!!!!!!!!!!!!!!!!!!!!!!!!!!!!",
"!!!!!!!!!!!!!!!!!!!!!!!!!!!!!!!!!!!!!!!!!!!!!!!!!!!!!!!",
"!!!!!!!!!!!!!!!!!!!!!!!!!!!!!!!!!!!!!!!!!!!!!!!!!!!!!!!",
"!!!!!!!!!!!!!!!!!!!!!!!!!!!!!!!!!!!!!!!!!!!!!!!!!!!!!!!",
"!!!!!!!!!!!!!!!!!!!!!!!!!!!!!!!!!!!!!!!!!!!!!!!!!!!!!!!",
"!!!!!!!!!!!!!!!!!!!!!!!!!!!!!!!!!!!!!!!!!!!!!!!!!!!!!!!",
"!!!!!!!!!!!!!!!!!!!!!!!!!!!!!!!!!!!!!!!!!!!!!!!!!!!!!!!",
"!!!!!!!!!!!!!!!!!!!!!!!!!!!!!!!!!!!!!!!!!!!!!!!!!!!!!!!",
"!!!!!!!!!!!!!!!!!!!!!!!!!!!!!!!!!!!!!!!!!!!!!!!!!!!!!!!",
"!!!!!!!!!!!!!!!!!!!!!!!!!!!!!!!!!!!!!!!!!!!!!!!!!!!!!!!",
"!!!!!!!!!!!!!!!!!!!!!!!!!!!!!!!!!!!!!!!!!!!!!!!!!!!!!!!",
"!!!!!!!!!!!!!!!!!!!!!!!!!!!!!!!!!!!!!!!!!!!!!!!!!!!!!!!",
"!!!!!!!!!!!!!!!!!!!!!!!!!!!!!!!!!!!!!!!!!!!!!!!!!!!!!!!"
};
