/* XPM */
static char *bfc9483253784d0bfd7c1df75485b449TefQFf0gY5HozK9m[] = {
/* columns rows colors chars-per-pixel */
"50 50 144 2 ",
"   c None",
".  c #010101",
"X  c #090605",
"o  c #030609",
"O  c #06090C",
"+  c #0B0B0C",
"@  c #000710",
"#  c #0E0F11",
"$  c #000C19",
"%  c #0E1114",
"&  c #131314",
"*  c #171719",
"=  c #171819",
"-  c #1A1A1B",
";  c #001225",
":  c #02162B",
">  c #04182C",
",  c #1D1E20",
"<  c #011B36",
"1  c #031F3C",
"2  c #1F2022",
"3  c #232324",
"4  c #272728",
"5  c #2C2C2C",
"6  c #32302F",
"7  c #2F2F30",
"8  c #2F3031",
"9  c #323233",
"0  c #363739",
"q  c #3B3B3C",
"w  c #012243",
"e  c #00264D",
"r  c #18314B",
"t  c #022D5A",
"y  c #0A3058",
"u  c #2B3B4B",
"i  c #3E3F40",
"p  c #023365",
"a  c #053768",
"s  c #003770",
"d  c #043D75",
"f  c #053F7A",
"g  c #3F4041",
"h  c #07417A",
"j  c #424344",
"k  c #464748",
"l  c #464849",
"z  c #4B4B4C",
"x  c #4C4E50",
"c  c #4F5051",
"v  c #535353",
"b  c #575859",
"n  c #5C5C5C",
"m  c #5E5F60",
"M  c #5F6061",
"N  c #636364",
"B  c #6B6B6C",
"V  c #6F6F70",
"C  c #737374",
"Z  c #767778",
"A  c #7C7D7E",
"S  c #034484",
"D  c #004B96",
"F  c #004D9A",
"G  c #0252A3",
"H  c #0055AA",
"J  c #005AB5",
"K  c #005CBA",
"L  c #0260BE",
"P  c #7F7F80",
"I  c #0061C4",
"U  c #0065CB",
"Y  c #0067D0",
"T  c #016BD5",
"R  c #016EDB",
"E  c #0070DF",
"W  c #006FE0",
"Q  c #0072E4",
"!  c #0075EA",
"~  c #838484",
"^  c #8D8D8D",
"/  c #949495",
"(  c #9B9C9D",
")  c #9FA0A2",
"_  c #A4A4A5",
"`  c #A5A6A8",
"'  c #ABACAD",
"]  c #AFAFB0",
"[  c #AEB0B1",
"{  c #B1B3B4",
"}  c #B7B8B9",
"|  c gray75",
" . c #BEBFBF",
".. c gray74",
"X. c #BBBCBD",
"o. c #BEBFC0",
"O. c #C1C1C2",
"+. c #C2C3C4",
"@. c gray77",
"#. c #C6C6C6",
"$. c #C4C4C4",
"%. c gray79",
"&. c #CACACA",
"*. c #CACACB",
"=. c gray80",
"-. c #CDCDCD",
";. c #CECECF",
":. c #CACACA",
">. c #CFD0D0",
",. c gray82",
"<. c #D1D2D2",
"1. c #D3D4D5",
"2. c gray83",
"3. c #D5D5D6",
"4. c gray83",
"5. c gainsboro",
"6. c gray87",
"7. c #DDDDDD",
"8. c gray88",
"9. c #E2E2E2",
"0. c gray89",
"q. c #E4E4E4",
"w. c #E6E6E6",
"e. c #E7E7E7",
"r. c #E6E6E6",
"t. c #E9E9E9",
"y. c #EAEAEA",
"u. c #ECECEC",
"i. c gray93",
"p. c #EEEEEE",
"a. c #EDECEC",
"s. c gray94",
"d. c #F3F3F3",
"f. c #F4F4F4",
"g. c #F6F6F6",
"h. c #F7F7F6",
"j. c #F4F4F4",
"k. c #F8F8F8",
"l. c #F9F9F9",
"z. c gray98",
"x. c gray99",
"c. c #FDFDFD",
"v. c white",
"b. c #FEFEFE",
/* pixels */
"                                                                                                    ",
"                                                                                                    ",
"                                                                                                    ",
"                                                                                                    ",
"                                                                                                    ",
"                                      + . . . . . . . . . . +                                       ",
"                                    i N N N N N N N N N N N B j                                     ",
"                                j , z i.v.v.v.v.v.v.v.v.v.v.i.z , j                                 ",
"                              4 ' 0.0.v.v.v.v.v.v.v.v.v.v.v.v.0.0.' 5                               ",
"                              % X.v.v.v.v.v.v.v.v.v.v.v.v.v.v.v.v.X.&                               ",
"                            z N 1.v.v.v.v.v.v.v.v.v.v.v.v.v.v.v.v.,.N x                             ",
"                          . g d.v.v.z.q.q.q.t.v.v.v.v.v.v.v.v.v.v.v.i.0 o                           ",
"                          . q d.v.v.2.0 5 5 z q.v.v.v.v.v.v.v.v.v.v.d.0 o                           ",
"                          . i h.v.v.=.& . . 3 0.v.v.v.v.v.v.v.v.v.v.d.0 .                           ",
"                          . 5 { i.v.=.& . . 4 0.v.v.v.v.v.v.v.v.v.i.' 5 .                           ",
"                          & + & { v.=.3 & & 9 q.v.v.v.d.i.d.v.v.z.{ # + &                           ",
"                            j O 3 / h.=.%.%.,.z.v.v.q.z 5 C v.v./ 3 + q                             ",
"                            z ~ A | v.v.v.v.v.v.' ' d./ A A P A A n &                               ",
"                          . 8 | %.@.@.@.@.@.@.@.j j %.z.v.{ o 5 _ +.*                               ",
"                          o . + & & % = & & * # + + 9 5.v.[ - | h.} ,                               ",
"                          o . o / N 4 ] 0 v _ & Z | O.h.v.{ + 9 j j                                 ",
"                            # + B z - ~ 4 0 ^ C =.v.v.v.| M o 3 & .                                 ",
"                              + 3 9 9 5 7 5 z t.v.v.z.2.b . - b 0 &                                 ",
"                              & ' t.q.q.q.q.t.z.z.v.5.9 O - n N N j =                               ",
"                              + q b b b v v b v v v z k l c N N N n k 0                             ",
"                              & . . . . j 0 . . & 3 5 n z q q q q q q + .                           ",
"                                  - + o ( ~ + + j N b b 4 o ; ; @ . . & -                           ",
"                                9 9 z + & 0 b b N j + + X w Y T p . + N                             ",
"                                5 + g / _ B 7 M q & o S 1 w Q Q L a &                               ",
"                                5 . 9 i.%.m o q r e t D s f Q Q ! I y u                             ",
"                                j + 9 q.N - - o D Q L < S R Q Q Q Q R < X                           ",
"                                  - 9 t.q.5.| - D G < K p t Q Q Q Q E < X                           ",
"                                    & N B B n + D D $ U J d s Y Q I p $ o                           ",
"                                  & . . 7 z q + D D $ U ! K e U ! H . +                             ",
"                                  + . o ) i.@.- D F : L R T T R R G ,                               ",
"                                  + . . 3 9 5 o D W J w > > > > : u                                 ",
"                              z j - . . . . . . e G R S d f f h < 5                                 ",
"                              + 5 q 9 o . . . . . w K K K K K K t 6                                 ",
"                              & } v.%.- + + . . . . o o o O % % o 9                                 ",
"                              & o.v.h.@.@.B . . . . . . . q O.@.n 5                                 ",
"                              0 ~ ^ _ z.v.@.N # & = 3 + . v v.v.Z 5                                 ",
"                                4 . 9 O.d.v.5.2       i 5 N =.>.C z                                 ",
"                                      5 { v.2.4     , %.i.` & - q                                   ",
"                                      V N k b B     + j z 9 + z                                     ",
"                                        q o 2       # O O O ,                                       ",
"                                                                                                    ",
"    i.                                                                                              ",
"                                                                                                    ",
"                                                                                                    ",
"                                                                                                    "
};
