/* XPM */
static const char *V3MtZm9jb2NsaXBwaW5nLXN0YW5kYXJkLTEzLTI_[] = {
/* columns rows colors chars-per-pixel */
"50 50 166 2 ",
"   c black",
".  c #010101",
"X  c #020102",
"o  c #060606",
"O  c #070607",
"+  c gray7",
"@  c #151515",
"#  c #151615",
"$  c #181818",
"%  c #181918",
"&  c #1C1D1C",
"*  c #1D1D1D",
"=  c #1F201F",
"-  c gray13",
";  c #222322",
":  c #232423",
">  c gray14",
",  c #272727",
"<  c #292A29",
"1  c #2A2B2A",
"2  c gray17",
"3  c #2B2C2B",
"4  c gray18",
"5  c #313131",
"6  c #323332",
"7  c #333433",
"8  c #343534",
"9  c #353635",
"0  c #363736",
"q  c #383938",
"w  c #393A39",
"e  c #3A3B3A",
"r  c #3E3F3E",
"t  c #414241",
"y  c #444544",
"u  c #454645",
"i  c #474847",
"p  c #474947",
"a  c #484A48",
"s  c #494A49",
"d  c #494B49",
"f  c #4C4E4C",
"g  c #4D4F4D",
"h  c #4E504E",
"j  c #4F504F",
"k  c #4F514F",
"l  c #515351",
"z  c #555755",
"x  c #565856",
"c  c #575957",
"v  c #585958",
"b  c #585A58",
"n  c #595A59",
"m  c #595B59",
"M  c #5A5C5A",
"N  c #5C5E5C",
"B  c #606260",
"V  c #626462",
"C  c #626562",
"Z  c #666966",
"A  c #676A67",
"S  c #696C69",
"D  c #6A6C6A",
"F  c #6C6E6C",
"G  c #6D706D",
"H  c #717471",
"J  c #757775",
"K  c #797C79",
"L  c #7A7D7A",
"P  c #7B7E7B",
"I  c #7E817E",
"U  c #7F817F",
"Y  c #828582",
"T  c #838683",
"R  c #888B88",
"E  c #888C88",
"W  c #898C89",
"Q  c #8A8E8A",
"!  c #8D908D",
"~  c #8F928F",
"^  c #929692",
"/  c #939693",
"(  c #959895",
")  c #989B98",
"_  c #999D99",
"`  c #9A9D9A",
"'  c #9A9E9A",
"]  c #9B9E9B",
"[  c #9EA29E",
"{  c #9FA39F",
"}  c #A0A4A0",
"|  c #A1A5A1",
" . c #A2A6A2",
".. c #A6AAA6",
"X. c #A9AEA9",
"o. c #ABAFAB",
"O. c #ACB0AC",
"+. c #ADB1AD",
"@. c #AFB3AF",
"#. c #B1B6B1",
"$. c #B4B8B4",
"%. c #B6BAB6",
"&. c #B7BBB7",
"*. c #B7BCB7",
"=. c #B8BCB8",
"-. c #B8BDB8",
";. c #B9BDB9",
":. c #BABEBA",
">. c #BABFBA",
",. c #BBBFBB",
"<. c #BBC0BB",
"1. c #BCC0BC",
"2. c #BDC1BD",
"3. c #BDC2BD",
"4. c #BEC2BE",
"5. c #BFC4BF",
"6. c #C0C5C0",
"7. c #C4C8C4",
"8. c #C6CBC6",
"9. c #C7CCC7",
"0. c #C9CEC9",
"q. c #CBD0CB",
"w. c #CCD1CC",
"e. c #CDD2CD",
"r. c #CED3CE",
"t. c #CFD4CF",
"y. c #CFD5CF",
"u. c #D0D5D0",
"i. c #D2D7D2",
"p. c #D3D8D3",
"a. c #D6DBD6",
"s. c #D6DCD6",
"d. c #D8DDD8",
"f. c #D9DED9",
"g. c #DADFDA",
"h. c #DAE0DA",
"j. c #DCE1DC",
"k. c #DCE2DC",
"l. c #DDE3DD",
"z. c #DEE3DE",
"x. c #DFE5DF",
"c. c #E1E6E1",
"v. c #E3E9E3",
"b. c #E4E9E4",
"n. c #E5EBE5",
"m. c #E6EBE6",
"M. c #E6ECE6",
"N. c #E7EDE7",
"B. c #E8EDE8",
"V. c #E8EEE8",
"C. c #E9EEE9",
"Z. c #EBF1EB",
"A. c #EDF3ED",
"S. c #F0F6F0",
"D. c #F4FAF4",
"F. c #F5FBF5",
"G. c #F6FCF6",
"H. c #F6FDF6",
"J. c #F8FEF8",
"K. c #FAFFFA",
"L. c #FBFFFB",
"P. c #FCFFFC",
"I. c #FDFFFD",
"U. c #FEFFFE",
"Y. c white",
"T. c None",
/* pixels */
"T.T.T.T.T.T.T.T.T.T.T.T.T.T.T.T.T.T.T.T.T.T.T.T.T.T.T.T.T.T.T.T.T.T.T.T.T.T.T.T.T.T.T.T.T.T.T.T.T.T.",
"T.T.T.T.T.T.T.T.T.T.T.T.T.T.T.T.T.T.T.T.T.T.T.T.T.T.T.T.T.T.T.T.T.T.T.T.T.T.T.T.T.T.T.T.T.T.T.T.T.T.",
"T.T.T.T.T.T.T.T.T.T.T.T.T.T.T.T.T.T.T.T.T.T.T.T.T.T.T.T.T.T.T.T.T.T.T.T.T.T.T.T.T.T.T.T.T.T.T.T.T.T.",
"T.T.T.T.T.T.T.T.T.T.T.T.T.T.T.T.T.T.T.T.T.T.T.T.T.T.T.T.T.T.T.T.T.T.T.T.T.T.T.T.T.T.T.T.T.T.T.T.T.T.",
"T.T.T.T.T.T.T.T.T.T.T.T.T.T.T.T.T.T.T.T.T.T.T.T.T.T.T.T.T.T.T.T.T.T.T.T.T.T.T.T.T.T.T.T.T.T.T.T.T.T.",
"T.T.T.T.T.T.T.T.T.T.T.T.T.T.T.T.T.T.T.T.T.T.T.T.T.T.T.T.T.T.T.T.T.T.T.T.T.T.T.T.T.T.T.T.T.T.T.T.T.T.",
"T.T.T.T.T.T.T.T.T.T.T.T.T.T.T.T.T.T.T.T.T.T.T.T.T.T.T.T.T.T.T.T.T.T.T.T.T.T.T.T.T.T.T.T.T.T.T.T.T.T.",
"T.T.T.T.T.T.T.T.T.T.T.T.T.T.T.T.T.T.T.T.T.T.T.T.T.T.T.T.T.T.T.T.T.T.T.T.T.T.T.T.T.T.T.T.T.T.T.T.T.T.",
"T.T.T.T.T.T.T.T.T.T.T.T.T.T.T.T.T.T.T.T.T.T.T.T.T.T.T.T.T.T.T.T.T.T.T.T.T.T.T.T.T.T.T.T.T.T.T.T.T.T.",
"T.T.T.T.T.T.T.T.T.T.T.T.T.T.T.T.T.T.T.T.T.T.T.T.T.T.T.T.T.T.T.T.T.T.T.T.T.T.T.T.T.T.T.T.T.T.T.T.T.T.",
"T.T.T.T.T.T.T.T.T.T.T.T.T.T.T.T.T.T.T.T.T.T.T.T.T.T.T.T.T.T.T.T.T.T.T.T.T.T.T.T.T.T.T.T.T.T.T.T.T.T.",
"T.T.T.T.T.T.T.T.T.T.T.T.T.T.T.T.T.T.T.T.T.T.T.T.T.T.T.T.T.T.T.T.T.T.T.T.T.T.T.T.T.T.T.T.T.T.T.T.T.T.",
"T.T.T.T.T.T.T.T.T.T.T.T.T.T.T.T.T.T.T.T.T.T.T.T.T.T.T.T.T.T.T.T.T.T.T.T.T.T.T.T.T.T.T.T.T.T.T.T.T.T.",
"T.T.T.T.T.T.T.T.T.T.T.T.T.T.T.T.T.T.T.T.T.T.T.T.T.T.T.T.T.T.T.T.T.T.T.T.T.T.T.T.T.T.T.T.T.T.T.T.T.T.",
"T.T.T.T.T.T.T.T.T.T.T.T.T.T.T.T.T.T.T.T.K.K.K.K.K.K.K.K.T.T.T.T.T.T.T.T.T.T.T.T.T.T.T.T.T.T.T.T.T.T.",
"T.T.T.T.T.T.T.T.T.T.T.T.T.T.T.T.T.T.T.T.o.} } } } } } } %.T.T.T.T.T.T.T.T.T.T.T.T.T.T.T.T.T.T.T.T.T.",
"T.T.T.T.T.T.T.T.T.T.T.T.T.T.T.T.T.T.T.2.8 & 3 3 < < < , P j.T.T.T.T.T.T.T.T.T.T.T.T.T.T.T.T.T.T.T.T.",
"T.T.T.T.T.T.T.T.T.T.T.T.T.T.T.T.T.I.} r + Z 2.=.=.=.=.=.I M u.T.T.T.T.T.T.T.T.T.T.T.T.T.T.T.T.T.T.T.",
"T.T.T.T.T.T.T.T.T.T.T.T.T.T.T.T.T.{ l % C 7.c.} j.f.' x.2.H W %.T.T.T.T.T.T.T.T.T.T.T.T.T.T.T.T.T.T.",
"T.T.T.T.T.T.T.T.T.T.T.T.T.T.T.T.j.s X 7 r.I.%.< ! ' p 5.I.r.6 W G.T.T.T.T.T.T.T.T.T.T.T.T.T.T.T.T.T.",
"T.T.T.T.T.T.T.T.T.T.T.T.T.T.T.T.j.s X 7 r.I.=.: & Z 0.C.K.r.6 R G.T.T.T.T.T.T.T.T.T.T.T.T.T.T.T.T.T.",
"T.T.T.T.T.T.T.T.T.T.T.T.T.T.T.T.j.s X 7 r.I.=.: X v F.G.G.q.7 W G.T.T.T.T.T.T.T.T.T.T.T.T.T.T.T.T.T.",
"T.T.T.T.T.T.T.T.T.T.T.T.T.T.T.T.j.p X 8 u.I.=.; < G *.v.K.r.6 R G.T.T.T.T.T.T.T.T.T.T.T.T.T.T.T.T.T.",
"T.T.T.T.T.T.T.T.T.T.T.T.T.T.T.T.j.g O 6 9.K.=.6 ' } t 2.K.7.q W G.T.T.T.T.T.T.T.T.T.T.T.T.T.T.T.T.T.",
"T.T.T.T.T.T.T.T.T.T.T.T.T.T.T.T.T.#.B # h =.m.O.f.h.O.m.O.C ' 6.T.T.T.T.T.T.T.T.T.T.T.T.T.T.T.T.T.T.",
"T.T.T.T.T.T.T.T.T.T.T.T.T.T.T.T.T.T.o.h # v <.S.G.f.O.} P D s.T.T.T.T.T.T.T.T.T.T.T.T.T.T.T.T.T.T.T.",
"T.T.T.T.T.T.T.T.T.T.T.T.T.T.T.T.T.T.T.9.7 O g j.K...; = I C.T.T.T.T.T.T.T.T.T.T.T.T.T.T.T.T.T.T.T.T.",
"T.T.T.T.T.T.T.T.T.T.T.T.T.T.T.T.T.T.T.u.8 X y j.I.{ , ! y.T.T.T.T.T.T.T.T.T.T.T.T.T.T.T.T.T.T.T.T.T.",
"T.T.T.T.T.T.T.T.T.T.T.T.T.T.T.T.T.T.T.r.8 X p j.I.{ & D #.T.T.T.T.T.T.T.T.T.T.T.T.T.T.T.T.T.T.T.T.T.",
"T.T.T.T.T.T.T.T.T.T.T.T.T.T.T.T.T.T.T.r.8 X p j.K.O.q 4 P r.T.T.T.T.T.T.T.T.T.T.T.T.T.T.T.T.T.T.T.T.",
"T.T.T.T.T.T.T.T.T.T.T.T.T.T.T.T.T.T.T.r.8 X p j.G.v.r.y.Y g r.T.T.T.T.T.T.T.T.T.T.T.T.T.T.T.T.T.T.T.",
"T.T.T.T.T.T.T.T.T.T.T.T.T.T.T.T.T.T.T.r.8 X p j.F.F.Z.^ P ( p.T.T.T.T.T.T.T.T.T.T.T.T.T.T.T.T.T.T.T.",
"T.T.T.T.T.T.T.T.T.T.T.T.T.T.T.T.T.T.T.r.6 X p x.K.G.m.F J 2.T.T.T.T.T.T.T.T.T.T.T.T.T.T.T.T.T.T.T.T.",
"T.T.T.T.T.T.T.T.T.T.T.T.T.T.T.T.T.T.T.r.q O y a.A.C.N.j.Y p r.T.T.T.T.T.T.T.T.T.T.T.T.T.T.T.T.T.T.T.",
"T.T.T.T.T.T.T.T.T.T.T.T.T.T.T.T.T.T.T.T.o.h % h c z z c P ..T.T.T.T.T.T.T.T.T.T.T.T.T.T.T.T.T.T.T.T.",
"T.T.T.T.T.T.T.T.T.T.T.T.T.T.T.T.T.T.T.T.K.) N v v v v c ^ K.T.T.T.T.T.T.T.T.T.T.T.T.T.T.T.T.T.T.T.T.",
"T.T.T.T.T.T.T.T.T.T.T.T.T.T.T.T.T.T.T.T.T.N.N.N.N.N.N.N.N.T.T.T.T.T.T.T.T.T.T.T.T.T.T.T.T.T.T.T.T.T.",
"T.T.T.T.T.T.T.T.T.T.T.T.T.T.T.T.T.T.T.T.T.T.T.T.T.T.T.T.T.T.T.T.T.T.T.T.T.T.T.T.T.T.T.T.T.T.T.T.T.T.",
"T.T.T.T.T.T.T.T.T.T.T.T.T.T.T.T.T.T.T.T.T.T.T.T.T.T.T.T.T.T.T.T.T.T.T.T.T.T.T.T.T.T.T.T.T.T.T.T.T.T.",
"T.T.T.T.T.T.T.T.T.T.T.T.T.T.T.T.T.T.T.T.T.T.T.T.T.T.T.T.T.T.T.T.T.T.T.T.T.T.T.T.T.T.T.T.T.T.T.T.T.T.",
"T.T.T.T.T.T.T.T.T.T.T.T.T.T.T.T.T.T.T.T.T.T.T.T.T.T.T.T.T.T.T.T.T.T.T.T.T.T.T.T.T.T.T.T.T.T.T.T.T.T.",
"T.T.T.T.T.T.T.T.T.T.T.T.T.T.T.T.T.T.T.T.T.T.T.T.T.T.T.T.T.T.T.T.T.T.T.T.T.T.T.T.T.T.T.T.T.T.T.T.T.T.",
"T.T.T.T.T.T.T.T.T.T.T.T.T.T.T.T.T.T.T.T.T.T.T.T.T.T.T.T.T.T.T.T.T.T.T.T.T.T.T.T.T.T.T.T.T.T.T.T.T.T.",
"T.T.T.T.T.T.T.T.T.T.T.T.T.T.T.T.T.T.T.T.T.T.T.T.T.T.T.T.T.T.T.T.T.T.T.T.T.T.T.T.T.T.T.T.T.T.T.T.T.T.",
"T.T.T.T.T.T.T.T.T.T.T.T.T.T.T.T.T.T.T.T.T.T.T.T.T.T.T.T.T.T.T.T.T.T.T.T.T.T.T.T.T.T.T.T.T.T.T.T.T.T.",
"T.T.T.T.T.T.T.T.T.T.T.T.T.T.T.T.T.T.T.T.T.T.T.T.T.T.T.T.T.T.T.T.T.T.T.T.T.T.T.T.T.T.T.T.T.T.T.T.T.T.",
"T.T.T.T.T.T.T.T.T.T.T.T.T.T.T.T.T.T.T.T.T.T.T.T.T.T.T.T.T.T.T.T.T.T.T.T.T.T.T.T.T.T.T.T.T.T.T.T.T.T.",
"T.T.T.T.T.T.T.T.T.T.T.T.T.T.T.T.T.T.T.T.T.T.T.T.T.T.T.T.T.T.T.T.T.T.T.T.T.T.T.T.T.T.T.T.T.T.T.T.T.T.",
"T.T.T.T.T.T.T.T.T.T.T.T.T.T.T.T.T.T.T.T.T.T.T.T.T.T.T.T.T.T.T.T.T.T.T.T.T.T.T.T.T.T.T.T.T.T.T.T.T.T.",
"T.T.T.T.T.T.T.T.T.T.T.T.T.T.T.T.T.T.T.T.T.T.T.T.T.T.T.T.T.T.T.T.T.T.T.T.T.T.T.T.T.T.T.T.T.T.T.T.T.T."
};
