/* XPM */
static char *f5a6bcfad90c4e13b40c8f0469d708c0xI7jVkq6Iqc7JQPa[] = {
/* columns rows colors chars-per-pixel */
"50 50 146 2 ",
"   c None",
".  c black",
"X  c #010101",
"o  c #020202",
"O  c gray1",
"+  c #040404",
"@  c gray2",
"#  c #060606",
"$  c #070707",
"%  c gray3",
"&  c #090909",
"*  c gray4",
"=  c #0B0B0B",
"-  c #0C0C0C",
";  c gray5",
":  c #101010",
">  c #111111",
",  c gray7",
"<  c #131313",
"1  c gray8",
"2  c #161616",
"3  c gray9",
"4  c #191919",
"5  c gray10",
"6  c #1B1B1B",
"7  c gray12",
"8  c #202020",
"9  c gray14",
"0  c #252525",
"q  c gray15",
"w  c #272727",
"e  c #282828",
"r  c gray16",
"t  c gray17",
"y  c #2C2C2C",
"u  c #2D2D2D",
"i  c gray18",
"p  c #2F2F2F",
"a  c gray19",
"s  c #323232",
"d  c gray20",
"f  c #353535",
"g  c gray21",
"h  c #373737",
"j  c #393939",
"k  c #3A3A3A",
"l  c #3C3C3C",
"z  c gray24",
"x  c #3F3F3F",
"c  c gray25",
"v  c #414141",
"b  c gray26",
"n  c #434343",
"m  c #444444",
"M  c gray27",
"N  c #464646",
"B  c #484848",
"V  c gray29",
"C  c #4B4B4B",
"Z  c #4C4C4C",
"A  c gray30",
"S  c #4E4E4E",
"D  c gray31",
"F  c #505050",
"G  c #515151",
"H  c gray32",
"J  c #535353",
"K  c gray33",
"L  c #555555",
"P  c #565656",
"I  c gray34",
"U  c #585858",
"Y  c gray35",
"T  c #5A5A5A",
"R  c #5B5B5B",
"E  c gray36",
"W  c #5D5D5D",
"Q  c gray37",
"!  c #5F5F5F",
"~  c #606060",
"^  c gray38",
"/  c #626262",
"(  c gray39",
")  c #646464",
"_  c #656565",
"`  c gray40",
"'  c #676767",
"]  c #686868",
"[  c DimGray",
"{  c #6A6A6A",
"}  c gray42",
"|  c #6C6C6C",
" . c #6D6D6D",
".. c gray43",
"X. c #6F6F6F",
"o. c gray44",
"O. c #717171",
"+. c #727272",
"@. c gray45",
"#. c #747474",
"$. c gray46",
"%. c #767676",
"&. c #777777",
"*. c gray47",
"=. c #797979",
"-. c gray48",
";. c #7B7B7B",
":. c #7C7C7C",
">. c gray49",
",. c #7E7E7E",
"<. c gray50",
"1. c #808080",
"2. c #818181",
"3. c gray51",
"4. c #838383",
"5. c #848484",
"6. c gray52",
"7. c #868686",
"8. c gray53",
"9. c #888888",
"0. c #898989",
"q. c gray54",
"w. c #8B8B8B",
"e. c gray55",
"r. c #8D8D8D",
"t. c #8E8E8E",
"y. c gray56",
"u. c #909090",
"i. c gray57",
"p. c #929292",
"a. c #939393",
"s. c gray58",
"d. c #959595",
"f. c gray59",
"g. c #979797",
"h. c #989898",
"j. c gray60",
"k. c #9A9A9A",
"l. c #9B9B9B",
"z. c gray61",
"x. c #9D9D9D",
"c. c gray62",
"v. c #9F9F9F",
"b. c #A0A0A0",
"n. c gray63",
"m. c #A2A2A2",
/* pixels */
"                                                                                                    ",
"                                                                                                    ",
"                                                                                                    ",
"                                                                                                    ",
"                                                                                                    ",
"                                              . + + + = n J t . 5 p + +                             ",
"                                            , M O.X.X.J W _ J W >.q.X.Y ,                           ",
"                                          x 2.d.b.b.b.d.i.>.D _ r.i.%.W j                           ",
"                                        n q.b.c.c.c.c.c.c.c.2.Y P P ~ { { C                         ",
"                            . = , J ~ ~ q.c.c.c.c.c.c.j.c.j.j.2.=.=.i.c.c.>.p                       ",
"                          . t { { d.b.b.c.c.c.c.c.c.=.W >.W Y 5.b.b.c.c.c.c.2.W                     ",
"                          f 5.d.2.d.c.c.c.c.c.c.c.=.Y { %.O.O.{ 5.c.c.c.c.c.q.O.p                   ",
"                        + { b.c.5.5.c.c.c.c.c.c.%.D X.i.c.c.c.O.Y 2.c.c.c.i.>.j.W                   ",
"                        = O.b.c.d.>.5.c.c.c.c.j.W P >.c.c.c.c.r.~ X.c.c.d.>.q.c._                   ",
"                        n j.c.c.c.d.>.r.c.c.c.j.W { d.c.c.c.c.c.d.d.c.c.i.5.c.c.d.x                 ",
"                      8 C d.c.c.c.c.d.q.j.c.c.j.W X.c.c.c.c.c.j.>.=.i.c.i.q.c.c.c.~ ,               ",
"                  . 3 P P _ d.c.c.c.c.q.i.c.c.j.W ~ =.i.c.c.j.=.%.%.r.c.i.q.c.c.c.d.p               ",
"                  f %.r.=.J i.c.c.c.c.q.r.c.c.c._ J J { r.q.~ Y d.b.c.d.>.r.c.c.c.d.p               ",
"                p 5.c.b.2.J >.c.c.c.c.i.>.d.c.c.j.5.J J _ ~ D >.c.c.c.2.5.c.c.c.c.d.p               ",
"              , W c.c.d.O.J Y j.c.c.c.c.5.d.c.c.c.c.5.X.Y D Y i.c.d.q.r.c.c.c.c.c.d.t               ",
"          + f P i.c.c.d.q.{ Y j.c.c.c.i.>.d.c.c.c.c.c.c.5.>.r.j.j.r.5.c.c.c.c.c.c.j.p .             ",
"        - x 5.j.c.c.d.c.b.X._ j.c.c.c.5.q.c.c.c.c.c.c.c.c.j.r.5.5.r.c.c.c.c.c.c.c.c.=.t 5           ",
"        f q.5.q.q.i.%.=.=.W q.c.c.c.i.>.d.c.c.c.c.c.c.c.r.>.i.j.j.c.c.c.c.c.c.c.c.c.c.d.{ ,         ",
"        p { W W ~ X.P P %.=.j.c.c.j.5.q.c.c.c.c.c.c.c.j.2.i.c.c.c.c.c.c.j.c.c.c.c.c.c.c.c.O.M =     ",
"        7 P P P P P P q.c.c.c.c.c.q.2.j.c.c.c.c.j.j.j.q.2.c.c.c.c.j.i._ Y >.j.c.c.c.c.c.c.b.>.,     ",
"        f i.i.i.i.i.d.c.c.c.c.c.c.j.j.c.c.c.c.j.q.5.5.i.j.c.c.c.q.X.J J { 5.{ 2.c.c.c.c.c.b.>.,     ",
"        j c.c.j.r.d.c.c.c.c.c.c.c.c.j.r.r.r.r.2.i.c.c.c.c.c.c.>.P J Y { d.c.%.W j.c.c.c.c.b.>.-     ",
"      . x i.5.2.=.2.5.5.i.c.c.c.i.5.q.r.r.i.i.i.j.c.i.d.c.c.c.W Y O.q.q.c.c.O.W j.c.c.c.c.b.i.{ j   ",
"    , p 2.j.d.d.d.d.d.r.>.d.c.c.j.d.j.c.d.r.r.j.b.c.r.r.c.c.c._ D =.b.c.c.c._ 2.c.d.r.r.r.r.c.j.x   ",
"  w O.d.c.c.c.c.c.c.c.c.q.i.c.c.c.b.b.r.Y J D _ 2.j.r.r.c.c.c.i.P O.d.c.c.r.W i.i.W D J J J >.{ +   ",
"  s O.i.c.j.c.c.c.c.c.c.q.i.c.c.2.X.X.~ J _ =.O.=.j.r.r.c.c.c.j.O.Y %.j.i.Y { j.=.W =.X.O.P J n .   ",
"  w C W _ _ _ r.c.c.c.c.q.i.c.c.{ J Y ~ 2.i.c.c.c.c.j.q.d.j.c.c.q.D Y i.5.{ d.c.=.>.c.d.d.O.Y s     ",
"  - n 5.i.r._ ~ 5.q.j.c.q.i.c.c.{ P O.d.c.c.c.c.c.j.i.j.q.2.r.c.c.=.W i.j.j.b.r.X.j.c.c.c.d.Y 3     ",
"    n d.b.c.d._ J D q.b.q.i.c.c.{ Y 2.c.c.c.c.c.c.%.X.c.c.d.q.r.c.c.j.c.c.c.c.q.{ c.c.c.c.r.J =     ",
"    w X.j.c.c.q.5.{ { j.q.5.j.c.{ ~ j.c.c.c.c.c.j.W { c.c.c.d.2.d.c.c.c.c.j.c.q.{ c.c.c.c.O.p       ",
"    + M >.c.c.c.c.>.Y d.j.d.c.c.{ W j.b.c.c.b.c.r.Y { c.c.c.c.d.5.d.d.d.5.5.5.2.=.>.j.c.q.P ,       ",
"      5 _ d.c.c.c.d.W 2.c.c.c.c.=._ >.2.i.5.2.>.X.~ =.c.c.c.c.j.5.5.5.q.j.j.d.q.i.X.q.j.%.t         ",
"        x O.d.c.c.j.W ~ c.c.c.c.c.d.%.W W P X.O.i.c.c.c.c.c.c.c.c.c.c.c.c.c.c.d.q.{ { q.D 5         ",
"        , x O.j.c.j._ ~ c.c.c.c.c.c.b.i.2.5.c.c.c.c.c.c.c.c.j.X.W ~ ~ ~ ~ =.j.d.>.>.W D 5           ",
"          = D r.c.j.Y { c.c.c.c.c.c.c.c.b.b.c.c.d.r.c.c.c.b.%.D ~ ~ ~ _ P D P 5.r.>.2.J             ",
"          . p { i.5.Y i.c.c.c.c.c.c.c.d.r.r.r.r.2.d.c.c.c.i.~ W d.2.5.i._ W J Y j.r.J               ",
"            + p _ W p n M >.c.c.j.q.5.q.r.r.r.r.r.c.c.b.d.~ J >.c.d.d.d.%.O.W D =._                 ",
"              + 5 5       p %.5.5.2.i.j.b.b.b.b.b.b.d.q.=.D ~ i.c.c.c.j.d.d.%.P f                   ",
"                          . 5 { j.%.X.X.X.X.X.X.X.O.M , 3 x %.j.c.c.c.c.c.c.%.x                     ",
"                              s J w + + + + + + + + .   . , D =.q.c.c.c.c.=.t                       ",
"                                                            5 w ~ j.d.5.n t                         ",
"                                                              . 8 P j 7                             ",
"                                                                . =                                 ",
"                                                                                                    ",
"                                                                                                    "
};
