/* XPM */
static const char *V3MtZm9jb2NsaXBwaW5nLXN0YW5kYXJkLTUtMg__[] = {
/* columns rows colors chars-per-pixel */
"50 50 119 2 ",
"   c #040404",
".  c #0D0C0D",
"X  c #100F10",
"o  c #111111",
"O  c #171817",
"+  c #1B1C1B",
"@  c #232323",
"#  c #272827",
"$  c #2B2C2B",
"%  c #2F302F",
"&  c #333433",
"*  c #373837",
"=  c #3A3B3A",
"-  c #3F403F",
";  c #424342",
":  c #464846",
">  c #4C4D4C",
",  c #4E504E",
"<  c #525452",
"1  c #575957",
"2  c #5C5D5C",
"3  c #5E605E",
"4  c #636663",
"5  c #676967",
"6  c #6B6E6B",
"7  c #6E706E",
"8  c #717471",
"9  c #767876",
"0  c #7B7D7B",
"q  c #7E817E",
"w  c #828582",
"e  c #868A86",
"r  c #898C89",
"t  c #8E928E",
"y  c #919491",
"u  c #969996",
"i  c #999D99",
"p  c #9EA19E",
"a  c #A1A5A1",
"s  c #A6AAA6",
"d  c #A9ADA9",
"f  c #ADB1AD",
"g  c #B2B6B2",
"h  c #B5BAB5",
"j  c #B9BDB9",
"k  c #BDC2BD",
"l  c #C3C7C3",
"z  c #C2C7C2",
"x  c #C0C5C0",
"c  c #C3C8C3",
"v  c #C4C9C4",
"b  c #C6CBC6",
"n  c #C7CCC7",
"m  c #C6CBC6",
"M  c #C9CEC9",
"N  c #CACFCA",
"B  c #CBD0CB",
"V  c #CCD1CC",
"C  c #CDD2CD",
"Z  c #CDD3CD",
"A  c #CED3CE",
"S  c #CFD4CF",
"D  c #CCD1CC",
"F  c #D1D6D1",
"G  c #D2D8D2",
"H  c #D5DAD5",
"J  c #D9DED9",
"K  c #D8DED8",
"L  c #DAE0DA",
"P  c #DBE1DB",
"I  c #DCE2DC",
"U  c #DDE2DD",
"Y  c #DEE4DE",
"T  c #DFE4DF",
"R  c #DFE5DF",
"E  c #DEE3DE",
"W  c #E1E6E1",
"Q  c #E2E8E2",
"!  c #E3E8E3",
"~  c #E3E9E3",
"^  c #E4E9E4",
"/  c #E4EAE4",
"(  c #E5EAE5",
")  c #E5EBE5",
"_  c #E6ECE6",
"`  c #E7EDE7",
"'  c #E6EBE6",
"]  c #E8EDE8",
"[  c #E8EEE8",
"{  c #E9EFE9",
"}  c #EBF0EB",
"|  c #EBF1EB",
" . c #ECF2EC",
".. c #EDF3ED",
"X. c #EEF4EE",
"o. c #EFF5EF",
"O. c #ECF2EC",
"+. c #F0F6F0",
"@. c #F1F7F1",
"#. c #F1F8F1",
"$. c #F2F8F2",
"%. c #F3F9F3",
"&. c #F3FAF3",
"*. c #F4FAF4",
"=. c #F5FBF5",
"-. c #F5FCF5",
";. c #F6FCF6",
":. c #F6FDF6",
">. c #F7FDF7",
",. c #F7FEF7",
"<. c #F8FEF8",
"1. c #F9FFF9",
"2. c #FAFFFA",
"3. c #FCFFFC",
"4. c #FDFFFD",
"5. c #FEFFFE",
"6. c white",
"7. c None",
"8. c black",
/* pixels */
"7.7.7.7.7.7.7.7.7.7.7.7.7.7.7.7.7.7.7.7.7.7.7.7.7.7.7.7.7.7.7.7.7.7.7.7.7.7.7.7.7.7.7.7.7.7.7.7.7.7.",
"7.7.7.7.7.7.7.7.7.7.7.7.7.7.7.7.7.7.7.7.7.7.7.7.7.7.7.7.7.7.7.7.7.7.7.7.7.7.7.7.7.7.7.7.7.7.7.7.7.7.",
"7.7.7.7.7.7.7.7.7.7.7.7.7.7.7.7.7.7.7.7.7.7.+ + + + + + 7.7.7.7.7.7.7.7.7.7.7.7.7.7.7.7.7.7.7.7.7.7.",
"7.7.7.7.7.7.7.7.7.7.7.7.7.7.7.7.7.7.7.7.7.> t u u u u y < 7.7.7.7.7.7.7.7.7.7.7.7.7.7.7.7.7.7.7.7.7.",
"7.7.7.7.7.7.7.7.7.7.7.7.7.7.7.7.7.7.7.7.= w [ ,.%.%.1.( 4 . 7.7.7.7.7.7.7.7.7.7.7.7.7.7.7.7.7.7.7.7.",
"7.7.7.7.7.7.7.7.7.7.7.7.7.7.7.7.7.7.7.= s P o.%.@.@.1.( 4 . 7.7.7.7.7.7.7.7.7.7.7.7.7.7.7.7.7.7.7.7.",
"7.7.7.7.7.7.7.7.7.7.7.7.7.7.7.7.7.7.. $ w v } @.o.o.%.[ p 3 % 7.7.7.7.7.7.7.7.7.7.7.7.7.7.7.7.7.7.7.",
"7.7.7.7.7.7.7.7.7.7.7.7.7.7.7.7.7.7.o o O 8 ~ =.o.o.o.o.o.j =   7.7.7.7.7.7.7.7.7.7.7.7.7.7.7.7.7.7.",
"7.7.7.7.7.7.7.7.7.7.7.7.7.7.7.7.7.7.o . . 4 ~ ,.o.o.o.o.3.v *   7.7.7.7.7.7.7.7.7.7.7.7.7.7.7.7.7.7.",
"7.7.7.7.7.7.7.7.7.7.7.7.7.7.7.7.7.7.o . . 5 ~ ,.o.o.o.o.,.B 3 $ 7.7.7.7.7.7.7.7.7.7.7.7.7.7.7.7.7.7.",
"7.7.7.7.7.7.7.7.7.7.7.7.7.7.7.7.7.7.o . . 5 ~ ,.o.o.o.o.@.[ A w + 7.7.7.7.7.7.7.7.7.7.7.7.7.7.7.7.7.",
"7.7.7.7.7.7.7.7.7.7.7.7.7.7.7.7.7.7.. @ < a [ %.o.o.o.o.o.%.1.u O 7.7.7.7.7.7.7.7.7.7.7.7.7.7.7.7.7.",
"7.7.7.7.7.7.7.7.7.7.7.7.7.7.7.7.7.7.  = j o.o.o.o.o.o.o.o.@.%.i # 7.7.7.7.7.7.7.7.7.7.7.7.7.7.7.7.7.",
"7.7.7.7.7.7.7.7.7.7.7.7.7.7.7.7.7.7.  - A 3.@.o.o.o.o.o.o.@.@.S i < 7.7.7.7.7.7.7.7.7.7.7.7.7.7.7.7.",
"7.7.7.7.7.7.7.7.7.7.7.7.7.7.7.7.7.7.  & p P o.@.o.o.o.o.o.o.o.,.( 4 . 7.7.7.7.7.7.7.7.7.7.7.7.7.7.7.",
"7.7.7.7.7.7.7.7.7.7.7.7.7.7.7.7.7.7.. O $ w [ ,.o.o.o.o.o.o.o.,.( 4 . 7.7.7.7.7.7.7.7.7.7.7.7.7.7.7.",
"7.7.7.7.7.7.7.7.7.7.7.7.7.7.7.7.7.7.. @ < 0 u A @.@.o.o.o.o.o.%.[ p 3 % 7.7.7.7.7.7.7.7.7.7.7.7.7.7.",
"7.7.7.7.7.7.7.7.7.7.7.7.7.7.7.7.7.7.  = g u = p %.@.o.o.o.o.o.o.o.o.j =   7.7.7.7.7.7.7.7.7.7.7.7.7.",
"7.7.7.7.7.7.7.7.7.7.7.7.7.7.7.7.7.7.. @ < 0 i S @.@.o.o.o.o.o.o.o.3.v *   7.7.7.7.7.7.7.7.7.7.7.7.7.",
"7.7.7.7.7.7.7.7.7.7.7.7.7.7.7.7.7.7.. O & 8 k ( %.@.@.@.@.@.o.o.o.,.B 3 $ 7.7.7.7.7.7.7.7.7.7.7.7.7.",
"7.7.7.7.7.7.7.7.7.7.7.7.7.7.7.7.7.7.  * a y > s =.%.@.%.%.%.@.o.o.@.[ A w + 7.7.7.7.7.7.7.7.7.7.7.7.",
"7.7.7.7.7.7.7.7.7.7.7.7.7.7.7.7.7.7.  # w r 5 0 s Y A u y d Y %.o.o.%.1.u O 7.7.7.7.7.7.7.7.7.7.7.7.",
"7.7.7.7.7.7.7.7.7.7.7.7.7.7.7.7.7.+ + + O 8 A 8 < M d * O : v ,.o.o.@.%.i # 7.7.7.7.7.7.7.7.7.7.7.7.",
"7.7.7.7.7.7.7.7.7.7.7.7.7.7.7.7.< u s q + 4 [ x a U H u & % k 1.o.o.@.@.S i < 7.7.7.7.7.7.7.7.7.7.7.",
"7.7.7.7.7.7.7.7.7.7.7.7.7.7.7.= 8 k S d 1 6 k ( =.@.~ k 6 3 B ,.o.o.o.o.,.( 4 . 7.7.7.7.7.7.7.7.7.7.",
"7.7.7.7.7.7.7.7.7.7.7.7.7.7.= d u ; * 2 f t > s 1.=.s > r A [ @.o.o.o.o.,.( 4 . 7.7.7.7.7.7.7.7.7.7.",
"7.7.7.7.7.7.7.7.7.7.7.7.7.< 9 y r 4 # # w t 6 0 s ( j 8 k 3.%.o.o.o.o.o.%.[ p 3 % 7.7.7.7.7.7.7.7.7.",
"7.7.7.7.7.7.7.7.7.7.7.7.# u h > 6 x 4 . O 6 x 6 > k [ ~ ~ ( ..o.o.o.o.o.o.o.o.j =   7.7.7.7.7.7.7.7.",
"7.7.7.7.7.7.7.7.7.7.7.< u q 8 y t 6 * . . & 6 t t 6 a ..p 0 F ,.,.1.,.@.o.o.3.v *   7.7.7.7.7.7.7.7.",
"7.7.7.7.7.7.7.7.7.7.= 9 h 8 1 f w O . o o . O w f 1 7 g 7 2 B ~ v x A ` @.o.,.B 3 $ 7.7.7.7.7.7.7.7.",
"7.7.7.7.7.7.7.7.7.= d y > y f 2 # . . o o . o # 2 f t : r F } d ; & 4 A ,.o.@.[ A w + 7.7.7.7.7.7.7.",
"7.7.7.7.7.7.7.7.1 9 u r 6 t w @ # 4 = o o o o   # w t 6 w f W k 5 + & x 1.o.o.=.3.i + 7.7.7.7.7.7.7.",
"7.7.7.7.7.7.7.+ t g ; 4 x 6 O O 6 x 4 . . o o o o O 6 x 6 , n %.A 3 ; v ,.o.o.o.[ t + 7.7.7.7.7.7.7.",
"7.7.7.7.7.7.. O > 2 + & 4 & # 0 t 6 * o o o o o . . & 6 r f ` x 8 q d Y %.o.1.P q * . 7.7.7.7.7.7.7.",
"7.7.7.7.7.o o o . . o . .   ; B a O . o o o o o o o . O q M v e > s =.%.@.o.J s < * = & 7.7.7.7.7.7.",
"7.7.7.7.o o o o X . o . .   ; B a + . o o o o o o o . . # = = 7 k ~ %.@.,.[ q < s B k 3 . . 7.7.7.7.",
"7.7.7.o o o o o o o o = 4 & $ q 5 O . o o o o o o o = 4 & O < a o.,.@.=.G i 8 w Y 3.o.a < O . 7.7.7.",
"7.7.7.o o o o o o . . 4 x 4 o O O o o o o o o o . . 4 x 2 * f ` o.@.o.[ y & r P ~ [ o.o.k ; o o 7.7.",
"7.7.7.o o o o o o o o = 4 = . . . o o o o o o o o o = 4 * + < p [ 3.P q * O ; 5 5 p [ 1.( f 2 O 7.7.",
"7.7.7.7.o o o o o o o o . o o o o o o o o o o o o o o . . O & e ( Y s < @ o # % O 4 ~ ,.=.,.u + 7.7.",
"7.7.7.7.7.o o o o o o o . o o o o o o o o o o o o o o . . * a ~ ( q < s 0 @ 0 p & 4 ~ ,.=.,.u + 7.7.",
"7.7.7.7.7.o o o o o o o o o o o o o o o o o o o o o o o . $ w a y 8 w U x q M S = 4 ~ c i i 4 O 7.7.",
"7.7.7.o o o o o o o o o o o o o o o o o o o o o o o o o o o O + & y U ..` J ( j * 4 A 8 O + O o 7.7.",
"o o o o o o o o o o o o o o o o o o o o o o o o o o o o o . . ; t q r U v 9 6 1 @ & 3 & . . . o 7.7.",
"o o o o o o o o o o o o o o o o o o o o o o o o o o o o o . . 2 g < & p w O . . o o . o o o o o 7.7.",
"o o o o o o o o o o o o o o o o o o o o o o o o o o o o o o o # = @ O & $ o . . o o . o o o o o 7.7.",
"o o o o o o o o o o o o o o o o o o o o o o o o o o o o o o o .   . .   . o o o o o o o o o o o 7.7.",
"7.7.7.7.7.7.7.7.7.7.7.7.7.7.7.7.7.7.7.7.7.7.7.7.7.7.7.7.7.7.7.7.7.7.7.7.7.7.7.7.7.7.7.7.7.7.7.7.7.7.",
"7.7.7.7.7.7.7.7.7.7.7.7.7.7.7.7.7.7.7.7.7.7.7.7.7.7.7.7.7.7.7.7.7.7.7.7.7.7.7.7.7.7.7.7.7.7.7.7.7.7.",
"7.7.7.7.7.7.7.7.7.7.7.7.7.7.7.7.7.7.7.7.7.7.7.7.7.7.7.7.7.7.7.7.7.7.7.7.7.7.7.7.7.7.7.7.7.7.7.7.7.7."
};
