/* XPM */
static const char *V3MtZm9jb2NsaXBwaW5nLXN0YW5kYXJkLTYtMg__[] = {
/* columns rows colors chars-per-pixel */
"50 50 206 2 ",
"   c black",
".  c #040304",
"X  c #040404",
"o  c gray2",
"O  c #060506",
"+  c #060606",
"@  c gray3",
"#  c #090809",
"$  c #090909",
"%  c #0A090A",
"&  c gray4",
"*  c #0B0B0B",
"=  c #0C0C0C",
"-  c gray5",
";  c #0E0E0E",
":  c #0F0E0F",
">  c gray6",
",  c #101010",
"<  c #111111",
"1  c gray7",
"2  c #131313",
"3  c gray8",
"4  c gray9",
"5  c #171817",
"6  c #181818",
"7  c #181918",
"8  c #191919",
"9  c #1A1B1A",
"0  c #1B1B1B",
"q  c #1B1C1B",
"w  c gray11",
"e  c #1E1E1E",
"r  c #1E1F1E",
"t  c gray12",
"y  c #202120",
"u  c gray13",
"i  c #212221",
"p  c #222222",
"a  c #222322",
"s  c #252525",
"d  c #252625",
"f  c #282928",
"g  c #2A2A2A",
"h  c #2A2B2A",
"j  c #2B2C2B",
"k  c #2C2C2C",
"l  c #2C2D2C",
"z  c #2D2D2D",
"x  c #2D2E2D",
"c  c #2E2F2E",
"v  c #2F302F",
"b  c gray19",
"n  c #303130",
"m  c #313231",
"M  c #323332",
"N  c #333433",
"B  c #343534",
"V  c #353635",
"C  c #363736",
"Z  c #373837",
"A  c #373937",
"S  c #383938",
"D  c #393A39",
"F  c #3B3C3B",
"G  c #3D3E3D",
"H  c #3D3F3D",
"J  c #3E3F3E",
"K  c #3F403F",
"L  c #444544",
"P  c #4A4B4A",
"I  c #4B4D4B",
"U  c #4D4E4D",
"Y  c #4D4F4D",
"T  c #505150",
"R  c #515351",
"E  c #535553",
"W  c #545654",
"Q  c #575957",
"!  c #5B5D5B",
"~  c #5D5F5D",
"^  c #5E605E",
"/  c #5F615F",
"(  c #606260",
")  c #616361",
"_  c #626462",
"`  c #636663",
"'  c #646664",
"]  c #656765",
"[  c #666866",
"{  c #686A68",
"}  c #696B69",
"|  c #6B6D6B",
" . c #6B6E6B",
".. c #6C6E6C",
"X. c #6D706D",
"o. c #6F716F",
"O. c #707370",
"+. c #717371",
"@. c #727472",
"#. c #727572",
"$. c #737673",
"%. c #787A78",
"&. c #787B78",
"*. c #7B7E7B",
"=. c #7E817E",
"-. c #808380",
";. c #818481",
":. c #828582",
">. c #838683",
",. c #848784",
"<. c #858885",
"1. c #868986",
"2. c #888C88",
"3. c #8B8E8B",
"4. c #8D918D",
"5. c #8E918E",
"6. c #8E928E",
"7. c #8F938F",
"8. c #909390",
"9. c #949894",
"0. c #959895",
"q. c #979B97",
"w. c #989C98",
"e. c #999D99",
"r. c #9B9F9B",
"t. c #9CA09C",
"y. c #9DA09D",
"u. c #9DA19D",
"i. c #9FA39F",
"p. c #A0A4A0",
"a. c #A1A4A1",
"s. c #A1A5A1",
"d. c #A2A6A2",
"f. c #A3A7A3",
"g. c #A4A8A4",
"h. c #A5A9A5",
"j. c #A6AAA6",
"k. c #A7ABA7",
"l. c #AAAEAA",
"z. c #ACB0AC",
"x. c #ADB1AD",
"c. c #ADB2AD",
"v. c #B0B5B0",
"b. c #B2B6B2",
"n. c #BABEBA",
"m. c #BCC0BC",
"M. c #BCC1BC",
"N. c #BFC4BF",
"B. c #C0C4C0",
"V. c #C0C5C0",
"C. c #C1C5C1",
"Z. c #C2C7C2",
"A. c #C3C8C3",
"S. c #C4C9C4",
"D. c #C5CAC5",
"F. c #C7CCC7",
"G. c #C8CDC8",
"H. c #C9CEC9",
"J. c #CACFCA",
"K. c #CBD0CB",
"L. c #CCD1CC",
"P. c #CDD2CD",
"I. c #CED3CE",
"U. c #CFD4CF",
"Y. c #D1D6D1",
"T. c #D3D8D3",
"R. c #D4DAD4",
"E. c #D5DAD5",
"W. c #D9DFD9",
"Q. c #DDE2DD",
"!. c #DEE4DE",
"~. c #E2E8E2",
"^. c #E3E8E3",
"/. c #E3E9E3",
"(. c #E4E9E4",
"). c #E4EAE4",
"_. c #E5EAE5",
"`. c #E5EBE5",
"'. c #E6ECE6",
"]. c #E7ECE7",
"[. c #E7EDE7",
"{. c #E8EDE8",
"}. c #E8EEE8",
"|. c #EBF1EB",
" X c #ECF2EC",
".X c #EDF3ED",
"XX c #EEF4EE",
"oX c #EFF5EF",
"OX c #F0F6F0",
"+X c #F1F7F1",
"@X c #F1F8F1",
"#X c #F2F8F2",
"$X c #F3F9F3",
"%X c #F4FAF4",
"&X c #F4FBF4",
"*X c #F5FBF5",
"=X c #F5FCF5",
"-X c #F6FCF6",
";X c #F6FDF6",
":X c #F7FDF7",
">X c #F8FEF8",
",X c #F9FFF9",
"<X c #FCFFFC",
"1X c #FDFFFD",
"2X c #FEFFFE",
"3X c None",
/* pixels */
"3X3X3X3X3X3X3X3X3X3X3X3X3X3X3X3X3X3X3X3X3X3X3X3X3X3X3X3X3X3X3X3X3X3X3X3X3X3X3X3X3X3X3X3X3X3X3X3X3X3X",
"3X3X3X3X3X3X3X3X3X3X3X3X3X3X3X3X3X3X3X3X3X3X3X3X3X3X3X3X3X3X3X3X3X3X3X3X3X3X3X3X3X3X3X3X3X3X3X3X3X3X",
"3X3X3X3X3X3X3X3X3X3X3X3X3X3X3X3X3X3X3X3X3X3X3X3X3X3X3X3X3X3X3X3X3X3X3X3X3X3X3X3X3X3X3X3X3X3X3X3X3X3X",
"3X3X3X3X3X3X3X3X3X3X3X3X3X3X3X3X3X3X3X3X3X3X3X3X3X3X3X3X3X3X3X3X3X3X3X3X3X3X3X3X3X3X3X3X3X3X3X3X3X3X",
"3X3X3X3X3X3X3X3X3X3X3X3X3X3X3X3X3X3X3X3X3X3X3X3X3X3X3X3X3X3X3X3X3X3X3X3X3X3X3X3X3X3X3X3X3X3X3X3X3X3X",
"3X3X3X3X3X3X3X3X3X3X3X3X3X3X3X3X3X3X3X3X3X3X3X3X3X3X3X3X3X3X3X3X3X3X3X3X3X3X3X3X3X3X3X3X3X3X3X3X3X3X",
"3X3X3X3X3X3X3X3X3X3X3X3X3X3X3X3X3X3X3X3X3X3X3X3X3X3X3X3X3X3X3X3X3X3X3X3X3X3X3X3X3X3X3X3X3X3X3X3X3X3X",
"3X3X3X3X3X3X3X3X3X3X3X3X3X3X3X3X3X3X3X3X3X3X3X3X3X3X3X3X3X3X3X3X3X3X3X3X3X3X3X3X3X3X3X3X3X3X3X3X3X3X",
"3X3X3X3X3X3X3X3X3X3X3X3X3X3X3X3X3X3X3X3X3X3X3X3X3X3X3X3X3X3X3X3X3X3X3X3X3X3X3X3X3X3X3X3X3X3X3X3X3X3X",
"3X3X3X3X3X3X3X3X3X3X3X3X3X3X3X3X3X3X3X3X3X3X3X3X3X3X3X3X3X3X3X3X3X3X3X3X3X3X3X3X3X3X3X3X3X3X3X3X3X3X",
"3X3X3X3X3X3X3X3X3X3X3X3X3X3X3X3X3X3X3X3X3X3X3X3X3X3X3X3X3X3X3X3X3X3X3X3X3X3X3X3X3X3X3X3X3X3X3X3X3X3X",
"3X3X3X3X3X3X3X3X3X3X3X3X3X3X3X3X3X3X3X3X3X3X3X3X3X3X3X3X3X3X3X3X3X3X3X3X3X3X3X3X3X3X3X3X3X3X3X3X3X3X",
"3X3X3X3X3X3X3X3X3X3X3X3X3X3X3X3X3X3X3X3X3X3X3X3X3X3X3X3X3X3X3X3X3X3X3X3X3X3X3X3X3X3X3X3X3X3X3X3X3X3X",
"3X3X3X3X3X3X3X3X3X3X3X3X3X3X3X3X3X3X3X3X3X3X3X3X3X3X3X3X3X3X3X3X3X3X3X3X3X3X3X3X3X3X3X3X3X3X3X3X3X3X",
"3X3X3X3X3X3X3X3X3X3X3X3X3X3X3X3X3X3X3X3X3X3X3X3X3X3X3X3X3X3X3X3X3X3X3X3X3X3X3X3X3X3X3X3X3X3X3X3X3X3X",
"3X3X3X3X3X3X3X3X3X3X3X3X3X3X3X3X3X3X3X3X3X3X3X3X3X3X3X3X3X3X3X3X3X3X3X3X3X3X3X3X3X3X3X3X3X3X3X3X3X3X",
"3X3X3X3X3X3X3X3X3X3X3X3X3X3X3X3X3X3X3X3X3X3X3X3X3X3X3X3X3X3X3X3X3X3X3X3X3X3X3X3X3X3X3X3X3X3X3X3X3X3X",
"3X3X3X3X3X3X3X3X3X3X3X3X3X3X3X3X3X3X3X3X3X3X3X3X3X3X3X3X3X3X3X3X3X3X3X3X3X3X3X3X3X3X3X3X3X3X3X3X3X3X",
"3X3X3X3X3X3X3X3X3X3X3X3X3X3X3X3X3X3X3X3X3X3X3X3X3X3X3X3X3X3X3X3X3X3X3X3X3X3X3X3X3X3X3X3X3X3X3X3X3X3X",
"3X3X3X3X3X3X3X3X3X3X3X3X3X3X3X3X3X3X3X3X3X3X3X3X3X3X3X3X3X3X3X3X3X3X3X3X3X3X3X3X3X3X3X3X3X3X3X3X3X3X",
"3X3X3X3X3X3X3X3X3X3X3X3X3X3X3X3X3X3X3X3X3X3X3X3X3X3X3X3X3X3X3X3X3X3X3X3X3X3X3X3X3X3X3X3X3X3X3X3X3X3X",
"3X3X3X3X3X3X3X3X3X3X3X3X3X3X3X3X3X3X3X3X3X3X3X3X3X3X3X3X3X3X3X3X3X3X3X3X3X3X3X3X3X3X3X3X3X3X3X3X3X3X",
"3X3X3X3X3X3X3X3X3X3X3X3X3X3X3X3X3Xe e e 3X3X3X3X3X3X3X3X3X3X3X3X3X3X3X3X3X3X3X3X3X3X3X3X3X3X3X3X3X3X",
"3X3X3X3X3X3X3X3X3X3X3X3X3X3X3X3XY 7.e.:.c   . 3X3X3X3X3X3X3X3X3X3X3X3X3X3X3X3X3X3X3X3X3X3X3X3X3X3X3X",
"3X3X3X3X3X3X3X3X3X3X3X3X3X3X3XC :.}.<XI./ C F v 3X3X3X3X3X3X3X3X3X3X3X3X3X3X3X3X3X3X3X3X3X3X3X3X3X3X",
"3X3X3X3X3X3X3X3X3X3X3X3X3X3XC d.W.oX&X}.K.S.n./ * * 3X3X3X3X3X3X3X3X3X3X3X3X3X3X3X3X3X3X3X3X3X3X3X3X",
"3X3X3X3X3X3X3X3X3X3X3X3X3XP :.W.,XoXoX+X=X<XoXu.` ' R 3X3X3X3X3X3X3X3X3X3X3X3X3X3X3X3X3X3X3X3X3X3X3X",
"3X3X3X3X3X3X3X3X3X3X3X3Xg 0.}.oXoXoXoXoXoXoXoX}.).).e.g 7 e 3X3X3X3X3X3X3X3X3X3X3X3X3X3X3X3X3X3X3X3X",
"3X3X3X3X3X3X3X3X3X3X3XP 0.Y.=X+X$X=X,X=X+XoXoX$X=X=XU.e.0.:.c   . 3X3X3X3X3X3X3X3X3X3X3X3X3X3X3X3X3X",
"3X3X3X3X3X3X3X3X3X3XC :.}.=X+X$X!.S.B.I.'.+XoXoXoXoX+X$X,XI./ C F v 3X3X3X3X3X3X3X3X3X3X3X3X3X3X3X3X",
"3X3X3X3X3X3X3X3X3XC d.W.oX+X$X&Xl.L b ( I.=XoXoXoXoX+X+X$X}.K.S.n./ * * 3X3X3X3X3X3X3X3X3X3X3X3X3X3X",
"3X3X3X3X3X3X3X3XY :.!.<X+X=X~.j.-.` y b B.,XoXoXoXoXoXoXoX+X=X<XoXu.` ' R 3X3X3X3X3X3X3X3X3X3X3X3X3X",
"3X3X3X3X3X3X3Xe 8.).).}.oXoXM.I ..B.` L S.=XoXoXoXoXoXoXoXoXoXoXoX}.).).e.g 7 e 3X3X3X3X3X3X3X3X3X3X",
"3X3X3X3X3X3X* e d.~.1.u.'.d.o.2.,.@.2.b.'.=XoXoXoXoXoXoXoXoXoXoXoX$X=X=XU.e.0.:.c   . 3X3X3X3X3X3X3X",
"3X3X3X3X3X< = 7 ,.d.b E c.R F H.u.d %.H.S.R..X$X+XoX+X+X+XoXoXoXoXoXoXoX+X$X,XI./ C F v 3X3X3X3X3X3X",
"3X3X3X3X< < < < c C 7 e C 7 H H.d.e d H F :.).=X$X+X+X$X+XoXoXoXoXoXoXoX+X+X$X}.K.S.n./ * = 3X3X3X3X",
"3X3X3X< < < < < = * = C ~ b c =.} 7 * + + } ~.M.j.~.U.u.F.+X+XoXoXoXoXoXoXoXoX+X=X<XoXd.R 7 * 3X3X3X",
"3X3X3X< < < < < < = = ' B.' < 7 7 < < = = } I.@.Y N.e.K u.$X+XoXoXoXoXoXoXoXoXoXoXoXoXoXM.L < < 3X3X",
"3X3X3X< < < < < < < < D ' D = * = < < = * c [ 2.7. .@.e.U.+X+XoXoXoXoXoXoXoX&X=X=X&X+X=X).c.~ 7 3X3X",
"3X3X3X< < < < < < < < < = < < < < < = 7 Z g 7 :.c.Q  .N.).$X+X+X+X+XoXoX+X.XT.B.B.R..X$X&X=X0.e 3X3X",
"3X3X3X< < < < < < < < < = < < < < < * C j.,.e y ! c.7.Y j.&X$X+X$X+XoXoX&X).:.C Z :.).=X&X=X0.e 3X3X",
"3X3X3X< < < < < < < < < < < < < < < = c 1.o.7   y :.7...*.j.).U.u.I.=X+X&X.Xd.R 3 ' ~.A.e.e.( 7 3X3X",
"3X3X3X< < < < < < < < < < < < < < < < 3 7 7 < 7 e 7  .B...Y N.e.H 0.}.oX|.~.~.c.C ` I.+.7 q 7 < 3X3X",
"3X3X3X3X3X< < 3X< < < < < < < < < < < < = * 7 o.,.g j  .7.8.@.*.0.%.1.Q.S.+. .! y b / b * * = < 3X3X",
"3X3X3X3X3X< < 3X< < < < < < < < < < < < < = 7 1.j.C + 7 ,.d.b W b.W b u.:.7 * = < < = < < < < < 3X3X",
"3X3X< < < < < < < < < < < < < < < < < < < < 3 c C 7 = < c C 7 y D y 5 N c < = = < < = < < < < < 3X3X",
"3X3X< < < < < < < < < < < < < < < < < < < < < * + = < < * + = = + = = + * < < < < < < < < < < < 3X3X",
"3X3X3X3X3X3X3X3X3X3X3X3X3X3X3X3X3X3X3X3X3X3X3X3X3X3X3X3X3X3X3X3X3X3X3X3X3X3X3X3X3X3X3X3X3X3X3X3X3X3X",
"3X3X3X3X3X3X3X3X3X3X3X3X3X3X3X3X3X3X3X3X3X3X3X3X3X3X3X3X3X3X3X3X3X3X3X3X3X3X3X3X3X3X3X3X3X3X3X3X3X3X",
"3X3X3X3X3X3X3X3X3X3X3X3X3X3X3X3X3X3X3X3X3X3X3X3X3X3X3X3X3X3X3X3X3X3X3X3X3X3X3X3X3X3X3X3X3X3X3X3X3X3X"
};
