/* XPM */
static const char *V3MtZm9jb2NsaXBwaW5nLXN0YW5kYXJkLTctMg__[] = {
/* columns rows colors chars-per-pixel */
"50 50 133 2 ",
"   c #030303",
".  c #080708",
"X  c #0B0B0B",
"o  c #111111",
"O  c #171817",
"+  c #1A1B1A",
"@  c #1F201F",
"#  c #232423",
"$  c #2C2C2C",
"%  c #2F302F",
"&  c #323332",
"*  c #373837",
"=  c #3B3C3B",
"-  c #3F403F",
";  c #444544",
":  c #474847",
">  c #494B49",
",  c #4F514F",
"<  c #535453",
"1  c #575957",
"2  c #5B5D5B",
"3  c #5E615E",
"4  c #626462",
"5  c #676967",
"6  c #6A6D6A",
"7  c #6E716E",
"8  c #727472",
"9  c #767976",
"0  c #7A7C7A",
"q  c #7E817E",
"w  c #828582",
"e  c #868A86",
"r  c #8A8D8A",
"t  c #8E918E",
"y  c #929592",
"u  c #959995",
"i  c #999D99",
"p  c #9EA29E",
"a  c #A1A5A1",
"s  c #A5A9A5",
"d  c #A9ADA9",
"f  c #ADB2AD",
"g  c #B1B5B1",
"h  c #B5B9B5",
"j  c #BABEBA",
"k  c #BEC2BE",
"l  c #C1C6C1",
"z  c #C5C9C5",
"x  c #C9CEC9",
"c  c #CDD2CD",
"v  c #CFD4CF",
"b  c #CFD5CF",
"n  c #CCD1CC",
"m  c #D0D5D0",
"M  c #D1D6D1",
"N  c #D2D7D2",
"B  c #D2D7D2",
"V  c #D2D8D2",
"C  c #D3D8D3",
"Z  c #D4D9D4",
"A  c #D5DAD5",
"S  c #D7DCD7",
"D  c #D7DDD7",
"F  c #D5DAD5",
"G  c #D8DDD8",
"H  c #D8DED8",
"J  c #D9DED9",
"K  c #D9DFD9",
"L  c #DADFDA",
"P  c #D9DED9",
"I  c #DAE0DA",
"U  c #DBE0DB",
"Y  c #DBE1DB",
"T  c #DCE1DC",
"R  c #DCE2DC",
"E  c #DDE2DD",
"W  c #DDE3DD",
"Q  c #DEE3DE",
"!  c #DFE4DF",
"~  c #DFE5DF",
"^  c #DCE2DC",
"/  c #E0E5E0",
"(  c #E0E6E0",
")  c #E1E6E1",
"_  c #E2E7E2",
"`  c #E2E8E2",
"'  c #E3E9E3",
"]  c #E4EAE4",
"[  c #E5EAE5",
"{  c #E6ECE6",
"}  c #E7ECE7",
"|  c #E7EDE7",
" . c #E4EAE4",
".. c #E8EEE8",
"X. c #E9EEE9",
"o. c #E9EFE9",
"O. c #E8EEE8",
"+. c #EAF0EA",
"@. c #EBF1EB",
"#. c #ECF1EC",
"$. c #ECF2EC",
"%. c #EDF2ED",
"&. c #EDF3ED",
"*. c #EEF4EE",
"=. c #EFF5EF",
"-. c #EFF6EF",
";. c #EDF3ED",
":. c #F0F6F0",
">. c #F0F7F0",
",. c #F1F7F1",
"<. c #F1F7F1",
"1. c #F1F8F1",
"2. c #F2F8F2",
"3. c #F3F9F3",
"4. c #F4FAF4",
"5. c #F4FBF4",
"6. c #F5FBF5",
"7. c #F6FCF6",
"8. c #F6FDF6",
"9. c #F7FDF7",
"0. c #F7FEF7",
"q. c #F4FBF4",
"w. c #F8FEF8",
"e. c #F9FFF9",
"r. c #FAFFFA",
"t. c #FBFFFB",
"y. c #FCFFFC",
"u. c #FDFFFD",
"i. c #FEFFFE",
"p. c white",
"a. c #FBFFFB",
"s. c None",
"d. c black",
/* pixels */
"s.s.s.s.s.s.s.s.s.s.s.s.s.s.s.s.s.s.s.s.s.s.s.s.s.s.s.s.s.s.s.s.s.s.s.s.s.s.s.s.s.s.s.s.s.s.s.s.s.s.",
"s.s.s.s.s.s.s.s.s.s.s.s.s.s.s.s.s.s.s.s.s.              s.s.s.s.s.s.s.s.s.s.s.s.s.s.s.s.s.s.s.s.s.s.",
"s.s.s.s.s.s.s.s.s.s.s.s.s.s.s.s.s.s.s.s.; : : : : : : : = s.s.s.s.s.s.s.s.s.s.s.s.s.s.s.s.s.s.s.s.s.",
"s.s.s.s.s.s.s.s.s.s.s.s.s.s.s.s.s.+ o * l ` R R R R R ) r + + s.s.s.s.s.s.s.s.s.s.s.s.s.s.s.s.s.s.s.",
"s.s.s.s.s.s.s.s.s.s.s.s.s.s.s.s.+ w s g ..9.6.6.6.6.6.9.v a a 2     s.s.s.s.s.s.s.s.s.s.s.s.s.s.s.s.",
"s.s.s.s.s.s.s.s.s.s.s.s.s.s.s.& 5 A K g ` :.=.=.=.=.=.=.3.r.9.a 2 3 * s.s.s.s.s.s.s.s.s.s.s.s.s.s.s.",
"s.s.s.s.s.s.s.s.s.s.s.s.s.s.+ 5 ) { e > m 6.=.=.=.=.=.=.=.=.=.) S v 4 + s.s.s.s.s.s.s.s.s.s.s.s.s.s.",
"s.s.s.s.s.s.s.s.s.s.s.s.s.+ w C ` 7 8 k { :.:.6.:.=.=.=.=.:.=.y - > u r o s.s.s.s.s.s.s.s.s.s.s.s.s.",
"s.s.s.s.s.s.s.s.s.s.s.s.X o a i.Y & 6 i.r.r.K y x 3.=.=.3.9.:.s 5 8 v v 8 $ s.s.s.s.s.s.s.s.s.s.s.s.",
"s.s.s.s.s.s.s.s.s.s.s.X O * g r.! 2 8 v v m s : d 9.:.:.! m ..:.=.=.=.6.) 4 # s.s.s.s.s.s.s.s.s.s.s.",
"s.s.s.s.s.s.s.s.s.s.o X = k ..:.&.K e & & $ 1 l { :.:.6.u , m 9.:.:.=.:.&.K 0 o s.s.s.s.s.s.s.s.s.s.",
"s.s.s.s.s.s.s.s.s.s.o 1 t 0 z 3.:.9.z e w w a &.r.l 8 6 8 u ! 9.6.:.=.3.9.i.x q $ s.s.s.s.s.s.s.s.s.",
"s.s.s.s.s.s.s.s.s.s.o 8 a < g 6.=.3.3.6.6.6.3.=.6.h : = y 6.:.v z &.6.R j h K v & s.s.s.s.s.s.s.s.s.",
"s.s.s.s.s.s.s.s.s.o o O < v &.:.=...@.=.=.=.=.=.:...R R [ :.:.0 < K r.f & # r v = s.s.s.s.s.s.s.s.s.",
"s.s.s.s.s.s.s.s.s.o o   : ..i.r...0 u =.:.=.=.=.=.:.6.r.9.=.=.z r 5 k K a i z [ g 2 s.s.s.s.s.s.s.s.",
"s.s.s.s.s.s.s.s.o o o X & u s a i 4 i 6.:.=.=.=.3.6...g l 6.6.i.k # i r.9.r.9.3.9.8 X s.s.s.s.s.s.s.",
"s.s.s.s.s.s.s.o o o o o o O + + * j ..! &.:.=.=.` { R 1 8 R R ` f * s 9.&.) [ :.:.8 X s.s.s.s.s.s.s.",
"s.s.s.s.s.s.s.o o o o o X X   ; h @.a 4 A 6.3...9 0 [ x w ; ; = 3 g ) 6.) 6 r :.:.8 X s.s.s.s.s.s.s.",
"s.s.s.s.s.s.s.o o o o X $ 8 0 s 3.i.w # x r.9.@.u u &.r.j 6 6 5 t @.r.i.) * 4 :.:.8 X s.s.s.s.s.s.s.",
"s.s.s.s.s.s.s.o o o o X - k m Y &.K w < C ) C &.:.=.=.=.=.=.=.=.:.=.S v k < w :.:.8 X s.s.s.s.s.s.s.",
"s.s.s.s.s.s.s.o o o o o + & % 0 K 3 8 A @.w 2 ! 6.:.=.=.:.:.:.:.3...8 $ ; s ) :.:.8 X s.s.s.s.s.s.s.",
"s.s.s.s.s.s.s.o o o o o X X   # 6 q k ` r 9 p { :.3.9.:.=.=.=.=.:.&.d q t Y 9.:.=.8 X s.s.s.s.s.s.s.",
"s.s.s.s.s.s.s.o o o o o o o * : < v i.n $ e i.3.6.R k ) :.:.3.:.=.=.3.9.9.:.=.:.3.8 X s.s.s.s.s.s.s.",
"s.s.s.s.s.s.s.o o o o o X O y Y S ` 3.n & w &...=.a ; k 9.=...&.=.=.=.&...&.=.=...7 X s.s.s.s.s.s.s.",
"s.s.s.s.s.s.s.s.o o o o o O : 5 4 2 d m % $ 1 < < 6 a ` i.R 7 s 3.=.6.j 7 x r.K 8 = s.s.s.s.s.s.s.s.",
"s.s.s.s.s.s.s.s.s.o o o o o X X X   > u 6 1 < < , t @.h p y 4 d 6.6.i.p @ g i.v $ s.s.s.s.s.s.s.s.s.",
"s.s.s.s.s.s.s.s.s.o o o o o o o o + # : j [ ......=.! 2 + > n 3.@.R ` i = k 6.k & s.s.s.s.s.s.s.s.s.",
"s.s.s.s.s.s.s.s.s.s.o o o o o X @ u x d 1 a 9.3.3.3.@.z g k ..r.z < * 5 j ..s : s.s.s.s.s.s.s.s.s.s.",
"s.s.s.s.s.s.s.s.s.s.o o o o o X + 8 i t 0 j r.9.:.=.:.6.9.9.9.r.A 0 5 a 3.i.e X s.s.s.s.s.s.s.s.s.s.",
"s.s.s.s.s.s.s.s.s.s.o o o o o o o o X $ g C v v [ :.=.:.3.@.m x A @.K K &.K 0 o s.s.s.s.s.s.s.s.s.s.",
"s.s.s.s.s.s.s.s.s.s.s.o o o o o o o X O % & & * f 9.=.=.9.C < # 4 Y 8 8 K 4 # s.s.s.s.s.s.s.s.s.s.s.",
"s.s.s.s.s.s.s.s.s.s.s.s.o o o o o o o o X X X X > s ..u 7 2 o > f { 2 $ 5 & s.s.s.s.s.s.s.s.s.s.s.s.",
"s.s.s.s.s.s.s.s.s.s.s.s.s.o o o o o o o o o o o . > s * + : > r l g > X X s.s.s.s.s.s.s.s.s.s.s.s.s.",
"s.s.s.s.s.s.s.s.s.s.s.s.s.s.o o o o o o o o o o o + # o 5 S S 8 # # O o s.s.s.s.s.s.s.s.s.s.s.s.s.s.",
"s.s.s.s.s.s.s.s.s.s.s.s.s.s.s.s.s.o o o o o o o o X X X & 4 4 : s.s.s.s.s.s.s.s.s.s.s.s.s.s.s.s.s.s.",
"s.s.s.s.s.s.s.s.s.s.s.s.s.s.s.s.s.s.o o o o o o o X X o X     s.s.s.s.s.s.s.s.s.s.s.s.s.s.s.s.s.s.s.",
"s.s.s.s.s.s.s.s.s.s.s.s.s.s.s.s.s.s.s.s.o o o o o + # O o s.s.s.s.s.s.s.s.s.s.s.s.s.s.s.s.s.s.s.s.s.",
"s.s.s.s.s.s.s.s.s.s.s.s.s.s.s.s.s.s.s.s.o o o o X < d =   s.s.s.s.s.s.s.s.s.s.s.s.s.s.s.s.s.s.s.s.s.",
"s.s.s.s.s.s.s.s.s.s.s.s.s.s.s.s.s.s.s.s.o o o o X = q & X s.s.s.s.s.s.s.s.s.s.s.s.s.s.s.s.s.s.s.s.s.",
"s.s.s.s.s.s.s.s.s.s.s.s.s.s.s.s.s.s.s.s.o o o o o + % + X s.s.s.s.s.s.s.s.s.s.s.s.s.s.s.s.s.s.s.s.s.",
"s.s.s.s.s.s.s.s.s.s.s.s.s.s.s.s.s.s.s.s.o o o o X < h ;   s.s.s.s.s.s.s.s.s.s.s.s.s.s.s.s.s.s.s.s.s.",
"s.s.s.s.s.s.s.s.s.s.s.s.s.s.s.s.s.s.s.s.o o o o X 5 Y >   s.s.s.s.s.s.s.s.s.s.s.s.s.s.s.s.s.s.s.s.s.",
"s.s.s.s.s.s.s.s.s.s.s.s.s.s.s.s.s.s.s.s.o o o o X 4 A >   s.s.s.s.s.s.s.s.s.s.s.s.s.s.s.s.s.s.s.s.s.",
"s.s.s.s.s.s.s.s.s.s.s.s.s.s.s.s.s.s.s.s.o o o o X 4 A >   s.s.s.s.s.s.s.s.s.s.s.s.s.s.s.s.s.s.s.s.s.",
"s.s.s.s.s.s.s.s.s.s.s.s.s.s.s.s.s.s.s.o o o o o X 5 Y :   s.s.s.s.s.s.s.s.s.s.s.s.s.s.s.s.s.s.s.s.s.",
"s.s.s.s.s.s.s.s.s.s.s.s.s.s.s.s.s.s.s.o o o o o X : i 8 > s.s.s.s.s.s.s.s.s.s.s.s.s.s.s.s.s.s.s.s.s.",
"s.s.s.s.s.s.s.s.s.s.s.s.s.s.s.s.s.s.s.o o o o o o X $ j t o s.s.s.s.s.s.s.s.s.s.s.s.s.s.s.s.s.s.s.s.",
"s.s.s.s.s.s.s.s.s.s.s.s.s.s.s.s.s.s.s.o o o o o o X # l y o s.s.s.s.s.s.s.s.s.s.s.s.s.s.s.s.s.s.s.s.",
"s.s.s.s.s.s.s.s.s.s.s.s.s.s.s.s.s.s.s.o o o o o o X # k y s.s.s.s.s.s.s.s.s.s.s.s.s.s.s.s.s.s.s.s.s.",
"s.s.s.s.s.s.s.s.s.s.s.s.s.s.s.s.s.s.s.s.s.s.s.s.s.s.s.s.s.s.s.s.s.s.s.s.s.s.s.s.s.s.s.s.s.s.s.s.s.s."
};
