/* XPM */
static char *_d24166cf0d2494f9b3923528de86f7be45gmPGqIkmZUrf8[] = {
/* columns rows colors chars-per-pixel */
"50 50 206 2 ",
"   c None",
".  c #1E1E1F",
"X  c #1A301D",
"o  c #19371F",
"O  c #28251D",
"+  c #2A251E",
"@  c #332E1F",
"#  c #252421",
"$  c #282625",
"%  c #212F23",
"&  c #2B2828",
"*  c #2E2928",
"=  c #2D292B",
"-  c #2D2A2B",
";  c #2D2A2C",
":  c #302922",
">  c #342E20",
",  c #392D21",
"<  c #203423",
"1  c #223124",
"2  c #2D3523",
"3  c #2C3626",
"4  c #283F2C",
"5  c #3A3322",
"6  c #3E322C",
"7  c #3C342C",
"8  c #34382B",
"9  c #383632",
"0  c #3E3732",
"q  c #433B26",
"w  c #4E3E2F",
"e  c #403A33",
"r  c #1A4121",
"t  c #1F5427",
"y  c #2B462F",
"u  c #275C2F",
"i  c #2C4830",
"p  c #3C4032",
"a  c #304F34",
"s  c #315035",
"d  c #305A36",
"f  c #25712F",
"g  c #2D6C30",
"h  c #37613D",
"j  c #297133",
"k  c #41412B",
"l  c #534F2F",
"z  c #474835",
"x  c #464B37",
"c  c #4F4E37",
"v  c #4A4E38",
"b  c #524330",
"n  c #495F39",
"m  c #535137",
"M  c #5D5935",
"N  c #54533B",
"B  c #50573E",
"V  c #54583E",
"C  c #5D5839",
"Z  c #60522F",
"A  c #664A31",
"S  c #624D32",
"D  c #6A5A33",
"F  c #765A38",
"G  c #7D5E38",
"H  c #51633C",
"J  c #3F7046",
"K  c #535640",
"L  c #5F6445",
"P  c #457F4D",
"I  c #646847",
"U  c #6A6946",
"Y  c #6A674D",
"T  c #676A4B",
"R  c #646E4A",
"E  c #6C7048",
"W  c #6E734E",
"Q  c #7C7144",
"!  c #75744B",
"~  c #6E7650",
"^  c #727752",
"/  c #767455",
"(  c #86673D",
")  c #8F663A",
"_  c #8A693F",
"`  c #916A3C",
"'  c #8C773F",
"]  c #8E773E",
"[  c #9E703D",
"{  c #8C6B41",
"}  c #807243",
"|  c #857440",
" . c #897641",
".. c #807A40",
"X. c #867A47",
"o. c #827949",
"O. c #817D4F",
"+. c #827E4F",
"@. c #8C7B49",
"#. c #8C7F4F",
"$. c #837051",
"%. c #279337",
"&. c #259937",
"*. c #269937",
"=. c #26A33A",
"-. c #3C8847",
";. c #339642",
":. c #31A643",
">. c #3CB44D",
",. c #4C9457",
"<. c #50A05B",
"1. c #5AB267",
"2. c #57BE66",
"3. c #5CB769",
"4. c #5FBE6C",
"5. c #5AC069",
"6. c #818456",
"7. c #83895B",
"8. c #818A5B",
"9. c #858858",
"0. c #818B5D",
"q. c #888D5B",
"w. c #8E8F5B",
"e. c #988F53",
"r. c #989258",
"t. c #A78B46",
"y. c #BA894A",
"u. c #BC8A49",
"i. c #A1964A",
"p. c #AD934A",
"a. c #B69748",
"s. c #B6974A",
"d. c #A48D55",
"f. c #B39D50",
"g. c #BEAB54",
"h. c #8F8B62",
"j. c #8C8E63",
"k. c #8F9862",
"l. c #909863",
"z. c #B69665",
"x. c #B8986B",
"c. c #A09F70",
"v. c #91A167",
"b. c #9FA561",
"n. c #9EA364",
"m. c #96A56A",
"M. c #95A76A",
"N. c #9CAD6E",
"B. c #ABA968",
"V. c #AFB162",
"C. c #B2B769",
"Z. c #B0B96D",
"A. c #A0AF7A",
"S. c #A2B672",
"D. c #B0BC71",
"F. c #CEAE51",
"G. c #ABC078",
"H. c #B4C375",
"J. c #B1C178",
"K. c #B0C379",
"L. c #B7CA7B",
"P. c #B4CA7E",
"I. c #BDD07E",
"U. c #D5C05B",
"Y. c #D9CC64",
"T. c #F7DE65",
"R. c #B8BC89",
"E. c #B1C189",
"W. c #BED484",
"Q. c #C1D682",
"!. c #C1D886",
"~. c #C0D986",
"^. c #C4DB85",
"/. c #C4DD88",
"(. c #C7DF88",
"). c #C6DF89",
"_. c #C6DF8A",
"`. c #C1C893",
"'. c #C1CB92",
"]. c #C6E08A",
"[. c #C7E08A",
"{. c #C6E18B",
"}. c #C9E28B",
"|. c #CAE38C",
" X c #CAE38E",
".X c #CAE48C",
"XX c #CBE58C",
"oX c #CCE68D",
"OX c #CCE78D",
"+X c #CDE78E",
"@X c #CDE68F",
"#X c #CDE88E",
"$X c #D0EB90",
"%X c #D0E897",
"&X c #D1E69E",
"*X c #D1E899",
"=X c #D4EC99",
"-X c #D6ECA3",
";X c #D7EBA5",
":X c #D8EBA6",
">X c #D9ECA9",
",X c #D9ECAA",
"<X c #D9EDAB",
"1X c #DAECAB",
"2X c #DAEEAC",
"3X c #DCF0AC",
/* pixels */
"                                                                                                    ",
"                                                                                                    ",
"                                                                                                    ",
"                                                                                                    ",
"                                                                                                    ",
"                                                                                                    ",
"                                                                                                    ",
"                                                                                                    ",
"                                                                                                    ",
"                                                                                                    ",
"                                                                                                    ",
"                                                                                                    ",
"                                                                                                    ",
"                                                                                                    ",
"                                                                                                    ",
"                                                                                                    ",
"                                                                                                    ",
"                                                                                                    ",
"                                                                                                    ",
"                                                                                                    ",
"                                                                                                    ",
"                                                                                                    ",
"                                                                                                    ",
"                                                                                                    ",
"                                                                                                    ",
"                                                                                                    ",
"                                                                                                    ",
"                                        4 P s                                                       ",
"                                        i 3.1.d         y h a                                       ",
"                                        % <.5.;.3 7 r -.1.4.J                                       ",
"                                          u :.=.H n *.>.2.,.1                                       ",
"                                            t f M g *.%.j <                                         ",
"                                              O G 2 o X                                             ",
"                                            b F ) ,                                                 ",
"                                        p $.x.z.y.( O                                               ",
"                                      z E.R.`.`.d.B.~                                               ",
"                                      A.3X>X2X-X~..XP.8                                             ",
"                                    R &X>X>X>X%XOXOX_.K & .                                         ",
"                                    m.=X:X;X*XH.Z.}.[.#._ e $                                       ",
"                                    G. X XOX^.c.h.I.L.@.u.{ 0 :                                     ",
"                                    S._.~..XQ./ Y D.Y.g.` [ w *                                     ",
"                                    v.$XOX#X_.w.j.C.T.U.S A 6 ; #                                   ",
"                                    v K.}.W.K.n.r.f.F.| * * 9 T V                                   ",
"                                      m q.e.p.a.a.t.X.k.0.^ 8.l.I                                   ",
"                                        N o.} Q O.6.m.#X[.8.U O.c                                   ",
"                                        C 9.! z L W N.[._.B D ] q                                   ",
"                                        Z  .] >     E V.b.k                                         ",
"                                          5 @       l i...                                          ",
"                                                                                                    ",
"                                                                                                    "
};
